<svg width="30" height="38" viewBox="0 0 30 38" fill="none" xmlns="http://www.w3.org/2000/svg">
<path d="M6.81818 8.14286C6.45652 8.14286 6.10968 8.28584 5.85395 8.54036C5.59821 8.79487 5.45455 9.14006 5.45455 9.5C5.45455 9.85994 5.59821 10.2051 5.85395 10.4596C6.10968 10.7142 6.45652 10.8571 6.81818 10.8571V8.14286ZM12.2727 10.8571C12.6344 10.8571 12.9812 10.7142 13.237 10.4596C13.4927 10.2051 13.6364 9.85994 13.6364 9.5C13.6364 9.14006 13.4927 8.79487 13.237 8.54036C12.9812 8.28584 12.6344 8.14286 12.2727 8.14286V10.8571ZM6.81818 17.6429C6.45652 17.6429 6.10968 17.7858 5.85395 18.0404C5.59821 18.2949 5.45455 18.6401 5.45455 19C5.45455 19.3599 5.59821 19.7051 5.85395 19.9596C6.10968 20.2142 6.45652 20.3571 6.81818 20.3571V17.6429ZM23.1818 20.3571C23.5435 20.3571 23.8903 20.2142 24.1461 19.9596C24.4018 19.7051 24.5455 19.3599 24.5455 19C24.5455 18.6401 24.4018 18.2949 24.1461 18.0404C23.8903 17.7858 23.5435 17.6429 23.1818 17.6429V20.3571ZM6.81818 23.0714C6.45652 23.0714 6.10968 23.2144 5.85395 23.4689C5.59821 23.7234 5.45455 24.0686 5.45455 24.4286C5.45455 24.7885 5.59821 25.1337 5.85395 25.3882C6.10968 25.6427 6.45652 25.7857 6.81818 25.7857V23.0714ZM23.1818 25.7857C23.5435 25.7857 23.8903 25.6427 24.1461 25.3882C24.4018 25.1337 24.5455 24.7885 24.5455 24.4286C24.5455 24.0686 24.4018 23.7234 24.1461 23.4689C23.8903 23.2144 23.5435 23.0714 23.1818 23.0714V25.7857ZM6.81818 28.5C6.45652 28.5 6.10968 28.643 5.85395 28.8975C5.59821 29.152 5.45455 29.4972 5.45455 29.8571C5.45455 30.2171 5.59821 30.5623 5.85395 30.8168C6.10968 31.0713 6.45652 31.2143 6.81818 31.2143V28.5ZM12.2727 31.2143C12.6344 31.2143 12.9812 31.0713 13.237 30.8168C13.4927 30.5623 13.6364 30.2171 13.6364 29.8571C13.6364 29.4972 13.4927 29.152 13.237 28.8975C12.9812 28.643 12.6344 28.5 12.2727 28.5V31.2143ZM4.09091 2.71429H25.9091V0H4.09091V2.71429ZM27.2727 4.07143V33.9286H30V4.07143H27.2727ZM25.9091 35.2857H4.09091V38H25.9091V35.2857ZM2.72727 33.9286V4.07143H0V33.9286H2.72727ZM4.09091 35.2857C3.72925 35.2857 3.3824 35.1427 3.12667 34.8882C2.87094 34.6337 2.72727 34.2885 2.72727 33.9286H0C0 35.0084 0.431005 36.044 1.1982 36.8075C1.96539 37.571 3.00593 38 4.09091 38V35.2857ZM27.2727 33.9286C27.2727 34.2885 27.1291 34.6337 26.8733 34.8882C26.6176 35.1427 26.2707 35.2857 25.9091 35.2857V38C26.9941 38 28.0346 37.571 28.8018 36.8075C29.569 36.044 30 35.0084 30 33.9286H27.2727ZM25.9091 2.71429C26.2707 2.71429 26.6176 2.85727 26.8733 3.11178C27.1291 3.3663 27.2727 3.71149 27.2727 4.07143H30C30 2.99162 29.569 1.95603 28.8018 1.19249C28.0346 0.428953 26.9941 0 25.9091 0V2.71429ZM4.09091 0C3.00593 0 1.96539 0.428953 1.1982 1.19249C0.431005 1.95603 0 2.99162 0 4.07143H2.72727C2.72727 3.71149 2.87094 3.3663 3.12667 3.11178C3.3824 2.85727 3.72925 2.71429 4.09091 2.71429V0ZM6.81818 10.8571H12.2727V8.14286H6.81818V10.8571ZM6.81818 20.3571H23.1818V17.6429H6.81818V20.3571ZM6.81818 25.7857H23.1818V23.0714H6.81818V25.7857ZM6.81818 31.2143H12.2727V28.5H6.81818V31.2143Z" fill="#599DD9"/>
<path d="M23.1818 10.1786C23.5584 10.1786 23.8636 9.87476 23.8636 9.5C23.8636 9.12523 23.5584 8.82143 23.1818 8.82143C22.8053 8.82143 22.5 9.12523 22.5 9.5C22.5 9.87476 22.8053 10.1786 23.1818 10.1786Z" fill="#599DD9"/>
<path fill-rule="evenodd" clip-rule="evenodd" d="M21.8182 9.5C21.8182 8.75047 22.4287 8.14286 23.1818 8.14286C23.9349 8.14286 24.5455 8.75047 24.5455 9.5C24.5455 10.2495 23.9349 10.8571 23.1818 10.8571C22.4287 10.8571 21.8182 10.2495 21.8182 9.5Z" fill="#599DD9"/>
</svg>
