<svg width="94" height="94" viewBox="0 0 94 94" fill="none" xmlns="http://www.w3.org/2000/svg">
<circle cx="47" cy="47" r="47" fill="#181818"/>
<path d="M38.8182 36.1429C38.4565 36.1429 38.1097 36.2858 37.8539 36.5404C37.5982 36.7949 37.4545 37.1401 37.4545 37.5C37.4545 37.8599 37.5982 38.2051 37.8539 38.4596C38.1097 38.7142 38.4565 38.8571 38.8182 38.8571V36.1429ZM44.2727 38.8571C44.6344 38.8571 44.9812 38.7142 45.237 38.4596C45.4927 38.2051 45.6364 37.8599 45.6364 37.5C45.6364 37.1401 45.4927 36.7949 45.237 36.5404C44.9812 36.2858 44.6344 36.1429 44.2727 36.1429V38.8571ZM38.8182 45.6429C38.4565 45.6429 38.1097 45.7858 37.8539 46.0404C37.5982 46.2949 37.4545 46.6401 37.4545 47C37.4545 47.3599 37.5982 47.7051 37.8539 47.9596C38.1097 48.2142 38.4565 48.3571 38.8182 48.3571V45.6429ZM55.1818 48.3571C55.5435 48.3571 55.8903 48.2142 56.1461 47.9596C56.4018 47.7051 56.5455 47.3599 56.5455 47C56.5455 46.6401 56.4018 46.2949 56.1461 46.0404C55.8903 45.7858 55.5435 45.6429 55.1818 45.6429V48.3571ZM38.8182 51.0714C38.4565 51.0714 38.1097 51.2144 37.8539 51.4689C37.5982 51.7234 37.4545 52.0686 37.4545 52.4286C37.4545 52.7885 37.5982 53.1337 37.8539 53.3882C38.1097 53.6427 38.4565 53.7857 38.8182 53.7857V51.0714ZM55.1818 53.7857C55.5435 53.7857 55.8903 53.6427 56.1461 53.3882C56.4018 53.1337 56.5455 52.7885 56.5455 52.4286C56.5455 52.0686 56.4018 51.7234 56.1461 51.4689C55.8903 51.2144 55.5435 51.0714 55.1818 51.0714V53.7857ZM38.8182 56.5C38.4565 56.5 38.1097 56.643 37.8539 56.8975C37.5982 57.152 37.4545 57.4972 37.4545 57.8571C37.4545 58.2171 37.5982 58.5623 37.8539 58.8168C38.1097 59.0713 38.4565 59.2143 38.8182 59.2143V56.5ZM44.2727 59.2143C44.6344 59.2143 44.9812 59.0713 45.237 58.8168C45.4927 58.5623 45.6364 58.2171 45.6364 57.8571C45.6364 57.4972 45.4927 57.152 45.237 56.8975C44.9812 56.643 44.6344 56.5 44.2727 56.5V59.2143ZM36.0909 30.7143H57.9091V28H36.0909V30.7143ZM59.2727 32.0714V61.9286H62V32.0714H59.2727ZM57.9091 63.2857H36.0909V66H57.9091V63.2857ZM34.7273 61.9286V32.0714H32V61.9286H34.7273ZM36.0909 63.2857C35.7293 63.2857 35.3824 63.1427 35.1267 62.8882C34.8709 62.6337 34.7273 62.2885 34.7273 61.9286H32C32 63.0084 32.431 64.044 33.1982 64.8075C33.9654 65.571 35.0059 66 36.0909 66V63.2857ZM59.2727 61.9286C59.2727 62.2885 59.1291 62.6337 58.8733 62.8882C58.6176 63.1427 58.2708 63.2857 57.9091 63.2857V66C58.9941 66 60.0346 65.571 60.8018 64.8075C61.569 64.044 62 63.0084 62 61.9286H59.2727ZM57.9091 30.7143C58.2708 30.7143 58.6176 30.8573 58.8733 31.1118C59.1291 31.3663 59.2727 31.7115 59.2727 32.0714H62C62 30.9916 61.569 29.956 60.8018 29.1925C60.0346 28.429 58.9941 28 57.9091 28V30.7143ZM36.0909 28C35.0059 28 33.9654 28.429 33.1982 29.1925C32.431 29.956 32 30.9916 32 32.0714H34.7273C34.7273 31.7115 34.8709 31.3663 35.1267 31.1118C35.3824 30.8573 35.7293 30.7143 36.0909 30.7143V28ZM38.8182 38.8571H44.2727V36.1429H38.8182V38.8571ZM38.8182 48.3571H55.1818V45.6429H38.8182V48.3571ZM38.8182 53.7857H55.1818V51.0714H38.8182V53.7857ZM38.8182 59.2143H44.2727V56.5H38.8182V59.2143Z" fill="#599DD9"/>
<path d="M55.1818 38.1786C55.5584 38.1786 55.8636 37.8748 55.8636 37.5C55.8636 37.1252 55.5584 36.8214 55.1818 36.8214C54.8053 36.8214 54.5 37.1252 54.5 37.5C54.5 37.8748 54.8053 38.1786 55.1818 38.1786Z" fill="#599DD9"/>
<path fill-rule="evenodd" clip-rule="evenodd" d="M53.8182 37.5C53.8182 36.7505 54.4287 36.1429 55.1818 36.1429C55.9349 36.1429 56.5455 36.7505 56.5455 37.5C56.5455 38.2495 55.9349 38.8571 55.1818 38.8571C54.4287 38.8571 53.8182 38.2495 53.8182 37.5Z" fill="#599DD9"/>
</svg>
