<svg width="643" height="486" viewBox="0 0 643 486" fill="none" xmlns="http://www.w3.org/2000/svg">
<path d="M643 421.036H0V421.358H643V421.036Z" fill="#EBEBEB"/>
<path d="M578.571 441.728H535.979V442.05H578.571V441.728Z" fill="#EBEBEB"/>
<path d="M425.949 445.226H414.773V445.548H425.949V445.226Z" fill="#EBEBEB"/>
<path d="M534.693 429.794H510.015V430.116H534.693V429.794Z" fill="#EBEBEB"/>
<path d="M123.006 431.955H67.4635V432.276H123.006V431.955Z" fill="#EBEBEB"/>
<path d="M142.604 431.955H134.464V432.276H142.604V431.955Z" fill="#EBEBEB"/>
<path d="M289.543 437.381H169.07V437.703H289.543V437.381Z" fill="#EBEBEB"/>
<path d="M304.782 363.681H56.4683C54.523 363.677 52.6586 362.902 51.2842 361.526C49.9099 360.149 49.1381 358.283 49.1381 356.338V7.27876C49.155 5.34465 49.9343 3.49532 51.3068 2.13247C52.6793 0.769617 54.5341 0.00331324 56.4683 0H304.782C306.73 0 308.597 0.773642 309.974 2.15073C311.351 3.52782 312.125 5.39556 312.125 7.34306V356.338C312.125 358.285 311.351 360.153 309.974 361.53C308.597 362.907 306.73 363.681 304.782 363.681ZM56.4683 0.257201C54.6083 0.260608 52.8256 1.00188 51.5116 2.31831C50.1976 3.63474 49.4596 5.41875 49.4596 7.27876V356.338C49.4596 358.198 50.1976 359.982 51.5116 361.298C52.8256 362.615 54.6083 363.356 56.4683 363.359H304.782C306.643 363.356 308.427 362.615 309.743 361.299C311.059 359.983 311.8 358.199 311.804 356.338V7.27876C311.8 5.41757 311.059 3.63358 309.743 2.31752C308.427 1.00146 306.643 0.2606 304.782 0.257201H56.4683Z" fill="#EBEBEB"/>
<path d="M582.957 363.681H334.63C332.684 363.677 330.818 362.903 329.442 361.526C328.065 360.15 327.291 358.284 327.287 356.338V7.27876C327.307 5.34348 328.09 3.49416 329.464 2.13166C330.839 0.769168 332.695 0.0032771 334.63 0H582.957C584.889 0.00669298 586.74 0.774493 588.11 2.13698C589.48 3.49947 590.257 5.34687 590.274 7.27876V356.338C590.274 358.281 589.504 360.145 588.132 361.521C586.761 362.897 584.9 363.674 582.957 363.681ZM334.63 0.257201C332.769 0.2606 330.985 1.00146 329.669 2.31752C328.353 3.63358 327.612 5.41757 327.609 7.27876V356.338C327.612 358.199 328.353 359.983 329.669 361.299C330.985 362.615 332.769 363.356 334.63 363.359H582.957C584.818 363.356 586.602 362.615 587.918 361.299C589.234 359.983 589.975 358.199 589.978 356.338V7.27876C589.975 5.41757 589.234 3.63358 587.918 2.31752C586.602 1.00146 584.818 0.2606 582.957 0.257201H334.63Z" fill="#EBEBEB"/>
<path d="M542.152 57.3557V95.3698C542.146 95.8608 542.04 96.3454 541.84 96.7938C541.64 97.2423 541.351 97.6451 540.989 97.9775C540.628 98.31 540.202 98.565 539.739 98.7269C539.275 98.8889 538.784 98.9543 538.294 98.9192H409.925C409.925 98.9192 395.085 92.0005 396.088 82.3041C396.924 74.5881 397.798 68.2995 398.519 63.5156C398.942 60.7065 400.363 58.144 402.522 56.2972C404.68 54.4503 407.432 53.4428 410.273 53.4591H538.242C538.757 53.4522 539.267 53.5482 539.744 53.7414C540.22 53.9346 540.653 54.2212 541.018 54.5842C541.382 54.9473 541.67 55.3795 541.865 55.8554C542.059 56.3313 542.157 56.8414 542.152 57.3557Z" fill="#F5F5F5"/>
<path d="M542.152 57.3556V95.3697C542.146 95.8607 542.04 96.3453 541.84 96.7937C541.64 97.2422 541.351 97.645 540.989 97.9774C540.628 98.3099 540.202 98.5649 539.739 98.7268C539.275 98.8888 538.783 98.9542 538.294 98.9191H526.964C526.964 98.9191 512.124 92.0004 513.178 82.3297C514.027 74.6137 514.889 68.3251 515.609 63.5412C516.032 60.7321 517.453 58.1696 519.612 56.3228C521.77 54.4759 524.522 53.4684 527.363 53.4847H538.294C538.801 53.4847 539.304 53.5849 539.773 53.7796C540.242 53.9743 540.668 54.2596 541.026 54.6192C541.385 54.9788 541.669 55.4057 541.862 55.8752C542.055 56.3448 542.153 56.8478 542.152 57.3556Z" fill="#E6E6E6"/>
<path d="M399.084 85.3904H511.223C511.223 85.3904 514.927 93.6079 521.216 96.9644H411.661C411.661 96.9644 400.062 91.6661 399.084 85.3904Z" fill="#E0E0E0"/>
<path d="M406.826 93.1193H515.095L513.474 96.9901H406.826V93.1193Z" fill="#EBEBEB"/>
<path d="M402.955 88.2838H511.224L509.603 92.1547H402.955V88.2838Z" fill="#EBEBEB"/>
<path d="M507.353 82.484H504.614V83.6157H507.353V82.484Z" fill="#E0E0E0"/>
<path d="M503.482 82.484H500.743V83.6157H503.482V82.484Z" fill="#E0E0E0"/>
<path d="M404.511 150.076L451.823 122.543H488.281L536.378 148.777V327.171H404.511V150.076Z" fill="#E0E0E0"/>
<path d="M537.741 327.171H404.511V150.076L405.862 148.79C423.386 131.905 446.791 122.497 471.126 122.556C495.457 122.503 518.855 131.91 536.378 148.79L537.741 150.076V327.171ZM413.346 318.336H528.893V153.87C513.127 139.412 492.512 131.39 471.12 131.39C449.727 131.39 429.113 139.412 413.346 153.87V318.336Z" fill="#FAFAFA"/>
<path d="M467.808 319.391H474.431V260.184H530.578V253.561H474.431V193.003H530.578V186.38H474.431V130.246H467.808V186.38H411.674V193.003H467.808V253.561H411.674V260.184H467.808V319.391Z" fill="#F0F0F0"/>
<path d="M542.152 331.582H400.087V148.276L401.373 146.99C419.884 128.521 444.965 118.149 471.113 118.149C497.262 118.149 522.342 128.521 540.853 146.99L542.139 148.276L542.152 331.582ZM408.948 322.786H533.343V151.954C516.608 135.916 494.325 126.962 471.145 126.962C447.966 126.962 425.683 135.916 408.948 151.954V322.786Z" fill="#F0F0F0"/>
<path d="M94.1738 237.73H186.83L186.83 115.419L94.1738 115.419L94.1738 237.73Z" fill="#F5F5F5"/>
<path d="M155.323 128.433V182.213L133.898 181.005L131.442 128.433H155.323Z" fill="#EBEBEB"/>
<path d="M137.975 138.849H105.015L105.311 185.917L122.376 186.187L137.975 138.849Z" fill="#E0E0E0"/>
<path d="M170.061 131.905H161.393L164.428 173.906L175.269 176.581L170.061 131.905Z" fill="#E6E6E6"/>
<path d="M307.495 162.126H215.122V274.522H307.495V162.126Z" fill="#E6E6E6"/>
<path d="M286.366 246.693L237.82 198.983L290.34 190.315L286.366 246.693Z" fill="#E0E0E0"/>
<path d="M238.99 235.377L236.585 198.79L273.134 207.766L275.796 235.762L238.99 235.377Z" fill="#F0F0F0"/>
<path d="M290.178 198.274C298.106 196.402 303.017 188.458 301.145 180.529C299.274 172.601 291.33 167.69 283.401 169.562C275.472 171.433 270.562 179.377 272.433 187.306C274.305 195.235 282.249 200.145 290.178 198.274Z" fill="#FAFAFA"/>
<path d="M243.761 248.429C243.761 247.015 243.342 245.633 242.556 244.457C241.771 243.281 240.654 242.365 239.347 241.824C238.041 241.282 236.603 241.141 235.216 241.417C233.829 241.693 232.555 242.374 231.555 243.374C230.555 244.374 229.874 245.648 229.598 247.035C229.322 248.422 229.464 249.859 230.005 251.166C230.546 252.472 231.463 253.589 232.639 254.375C233.815 255.16 235.197 255.58 236.611 255.58C238.507 255.58 240.326 254.826 241.667 253.485C243.008 252.144 243.761 250.326 243.761 248.429Z" fill="#E0E0E0"/>
<path d="M238.309 260.994L258.975 248.429L241.601 234.116L238.309 260.994Z" fill="#F5F5F5"/>
<path d="M262.717 266.189H266.781V176.439H262.717V266.189Z" fill="#E0E0E0"/>
<path d="M223.79 262.215H229.049V176.439H223.79V262.215Z" fill="#EBEBEB"/>
<path d="M271.372 262.614H298.223V235.762H271.372V262.614Z" fill="#EBEBEB"/>
<path d="M366.15 14.9819C386.327 19.2772 406.247 27.7004 425.756 38.7472C458.742 57.4199 488.989 82.4712 508.06 115.213C527.131 147.954 533.96 189.016 520.547 224.458C512.908 244.636 497.901 263.038 477.389 269.803C455.694 276.876 431.427 270.06 409.565 276.593C401.326 279.119 393.752 283.444 387.389 289.255C381.026 295.067 376.033 302.219 372.773 310.196C368.632 320.484 367.629 331.852 363.771 342.346C359.913 352.84 352.197 363.025 341.189 364.722C326.837 366.934 314.8 354.177 307.2 341.819C299.599 329.46 292.141 315.07 278.342 310.569C252.738 302.223 228.664 334.039 201.992 330.309C189.569 328.56 179.654 319.404 170.807 310.518C113.837 253.278 158.152 156.198 197.813 101.195C218.8 72.106 243.877 45.0615 275.384 27.8934C305.901 11.3168 336.302 8.62907 366.15 14.9819Z" fill="#599DD9"/>
<path opacity="0.9" d="M366.15 14.9819C386.327 19.2772 406.247 27.7004 425.756 38.7472C458.742 57.4199 488.989 82.4712 508.06 115.213C527.131 147.954 533.96 189.016 520.547 224.458C512.908 244.636 497.901 263.038 477.389 269.803C455.694 276.876 431.427 270.06 409.565 276.593C401.326 279.119 393.752 283.444 387.389 289.255C381.026 295.067 376.033 302.219 372.773 310.196C368.632 320.484 367.629 331.852 363.771 342.346C359.913 352.84 352.197 363.025 341.189 364.722C326.837 366.934 314.8 354.177 307.2 341.819C299.599 329.46 292.141 315.07 278.342 310.569C252.738 302.223 228.664 334.039 201.992 330.309C189.569 328.56 179.654 319.404 170.807 310.518C113.837 253.278 158.152 156.198 197.813 101.195C218.8 72.106 243.877 45.0615 275.384 27.8934C305.901 11.3168 336.302 8.62907 366.15 14.9819Z" fill="white"/>
<path d="M321.5 479.112C459.208 479.112 570.843 472.594 570.843 464.555C570.843 456.515 459.208 449.997 321.5 449.997C183.792 449.997 72.1575 456.515 72.1575 464.555C72.1575 472.594 183.792 479.112 321.5 479.112Z" fill="#F5F5F5"/>
<path d="M446.242 51.6072V247.465C446.242 248.829 445.7 250.138 444.735 251.102C443.771 252.067 442.462 252.609 441.098 252.609H128.459C127.094 252.609 125.786 252.067 124.821 251.102C123.857 250.138 123.315 248.829 123.315 247.465V51.6072C123.331 50.2541 123.881 48.9621 124.844 48.0113C125.807 47.0605 127.105 46.5274 128.459 46.5275H441.162C442.504 46.5441 443.787 47.0847 444.736 48.0337C445.685 48.9828 446.225 50.2651 446.242 51.6072Z" fill="#599DD9"/>
<path opacity="0.6" d="M446.242 62.8083V247.465C446.242 248.829 445.7 250.138 444.735 251.102C443.771 252.067 442.462 252.609 441.098 252.609H128.459C127.094 252.609 125.786 252.067 124.821 251.102C123.857 250.138 123.315 248.829 123.315 247.465V62.8083H128.6V53.4333C128.6 52.7512 128.871 52.097 129.353 51.6146C129.836 51.1323 130.49 50.8613 131.172 50.8613H181.21C181.892 50.8613 182.547 51.1323 183.029 51.6146C183.511 52.097 183.782 52.7512 183.782 53.4333V62.8083H446.242Z" fill="white"/>
<path opacity="0.5" d="M439.709 54.6679C439.709 55.431 439.483 56.1769 439.059 56.8113C438.635 57.4458 438.033 57.9403 437.328 58.2323C436.623 58.5243 435.847 58.6007 435.098 58.4518C434.35 58.3029 433.663 57.9355 433.123 57.3959C432.584 56.8564 432.216 56.169 432.067 55.4206C431.918 54.6722 431.995 53.8965 432.287 53.1915C432.579 52.4866 433.073 51.8841 433.708 51.4601C434.342 51.0362 435.088 50.8099 435.851 50.8099C436.874 50.8099 437.856 51.2164 438.579 51.9399C439.303 52.6634 439.709 53.6447 439.709 54.6679Z" fill="white"/>
<path opacity="0.5" d="M176.555 59.9919C178.025 59.9919 179.217 58.8001 179.217 57.3299C179.217 55.8597 178.025 54.6678 176.555 54.6678C175.085 54.6678 173.893 55.8597 173.893 57.3299C173.893 58.8001 175.085 59.9919 176.555 59.9919Z" fill="white"/>
<path opacity="0.5" d="M238.45 59.9919C239.92 59.9919 241.112 58.8001 241.112 57.3299C241.112 55.8597 239.92 54.6678 238.45 54.6678C236.98 54.6678 235.788 55.8597 235.788 57.3299C235.788 58.8001 236.98 59.9919 238.45 59.9919Z" fill="white"/>
<path opacity="0.5" d="M303.007 57.3299C303.007 57.8564 302.851 58.371 302.559 58.8088C302.266 59.2466 301.85 59.5878 301.364 59.7893C300.878 59.9907 300.342 60.0434 299.826 59.9407C299.31 59.838 298.835 59.5845 298.463 59.2122C298.091 58.8399 297.837 58.3656 297.734 57.8492C297.632 57.3328 297.685 56.7976 297.886 56.3111C298.087 55.8247 298.429 55.409 298.866 55.1165C299.304 54.824 299.819 54.6678 300.345 54.6678C301.051 54.6678 301.728 54.9483 302.228 55.4475C302.727 55.9468 303.007 56.6239 303.007 57.3299Z" fill="white"/>
<path opacity="0.5" d="M362.241 59.9919C363.711 59.9919 364.903 58.8001 364.903 57.3299C364.903 55.8597 363.711 54.6678 362.241 54.6678C360.77 54.6678 359.579 55.8597 359.579 57.3299C359.579 58.8001 360.77 59.9919 362.241 59.9919Z" fill="white"/>
<path opacity="0.5" d="M426.669 54.6679C426.669 55.431 426.443 56.1769 426.019 56.8113C425.595 57.4458 424.992 57.9403 424.288 58.2323C423.583 58.5243 422.807 58.6007 422.058 58.4518C421.31 58.3029 420.623 57.9355 420.083 57.3959C419.544 56.8564 419.176 56.169 419.027 55.4206C418.878 54.6722 418.955 53.8965 419.247 53.1915C419.539 52.4866 420.033 51.8841 420.668 51.4601C421.302 51.0362 422.048 50.8099 422.811 50.8099C423.834 50.8099 424.816 51.2164 425.539 51.9399C426.263 52.6634 426.669 53.6447 426.669 54.6679Z" fill="white"/>
<path opacity="0.5" d="M413.629 54.6679C413.629 55.431 413.403 56.1769 412.979 56.8113C412.555 57.4458 411.952 57.9403 411.248 58.2323C410.543 58.5243 409.767 58.6007 409.018 58.4518C408.27 58.3029 407.583 57.9355 407.043 57.3959C406.504 56.8564 406.136 56.169 405.987 55.4206C405.838 54.6722 405.915 53.8965 406.207 53.1915C406.499 52.4866 406.993 51.8841 407.628 51.4601C408.262 51.0362 409.008 50.8099 409.771 50.8099C410.794 50.8099 411.776 51.2164 412.499 51.9399C413.223 52.6634 413.629 53.6447 413.629 54.6679Z" fill="white"/>
<g opacity="0.2">
<path d="M245.626 61.5094C245.455 61.5094 245.292 61.4417 245.171 61.3211C245.051 61.2005 244.983 61.0369 244.983 60.8664V53.4205C244.983 53.2499 245.051 53.0864 245.171 52.9658C245.292 52.8452 245.455 52.7775 245.626 52.7775C245.797 52.7775 245.96 52.8452 246.081 52.9658C246.201 53.0864 246.269 53.2499 246.269 53.4205V60.8664C246.269 61.0369 246.201 61.2005 246.081 61.3211C245.96 61.4417 245.797 61.5094 245.626 61.5094Z" fill="black"/>
</g>
<g opacity="0.2">
<path d="M307.585 61.5094C307.415 61.5094 307.251 61.4417 307.131 61.3211C307.01 61.2005 306.942 61.0369 306.942 60.8664V53.4205C306.942 53.2499 307.01 53.0864 307.131 52.9658C307.251 52.8452 307.415 52.7775 307.585 52.7775C307.755 52.7808 307.917 52.8496 308.036 52.9694C308.156 53.0893 308.225 53.251 308.228 53.4205V60.8664C308.228 61.0369 308.161 61.2005 308.04 61.3211C307.919 61.4417 307.756 61.5094 307.585 61.5094Z" fill="black"/>
</g>
<g opacity="0.2">
<path d="M369.519 61.5094C369.349 61.5094 369.185 61.4417 369.065 61.3211C368.944 61.2005 368.876 61.0369 368.876 60.8664V53.4205C368.876 53.2499 368.944 53.0864 369.065 52.9658C369.185 52.8452 369.349 52.7775 369.519 52.7775C369.69 52.7775 369.853 52.8452 369.974 52.9658C370.094 53.0864 370.162 53.2499 370.162 53.4205V60.8664C370.162 61.0369 370.094 61.2005 369.974 61.3211C369.853 61.4417 369.69 61.5094 369.519 61.5094Z" fill="black"/>
</g>
<path opacity="0.2" d="M406.286 69.534H133.204C132.428 69.5844 131.701 69.9281 131.169 70.4953C130.637 71.0626 130.342 71.8109 130.342 72.5883C130.342 73.3657 130.637 74.114 131.169 74.6812C131.701 75.2485 132.428 75.5922 133.204 75.6425H406.286C406.704 75.6696 407.123 75.6108 407.517 75.4696C407.911 75.3283 408.272 75.1078 408.577 74.8215C408.883 74.5352 409.126 74.1893 409.293 73.8052C409.459 73.4211 409.545 73.0069 409.545 72.5883C409.545 72.1696 409.459 71.7554 409.293 71.3713C409.126 70.9872 408.883 70.6413 408.577 70.355C408.272 70.0688 407.911 69.8482 407.517 69.707C407.123 69.5658 406.704 69.5069 406.286 69.534Z" fill="black"/>
<path opacity="0.2" d="M438.603 69.0197H434.501C433.656 69.0197 432.97 69.7048 432.97 70.55V74.6523C432.97 75.4975 433.656 76.1827 434.501 76.1827H438.603C439.448 76.1827 440.133 75.4975 440.133 74.6523V70.55C440.133 69.7048 439.448 69.0197 438.603 69.0197Z" fill="black"/>
<path opacity="0.2" d="M430.167 69.0197H426.065C425.22 69.0197 424.534 69.7048 424.534 70.55V74.6523C424.534 75.4975 425.22 76.1827 426.065 76.1827H430.167C431.012 76.1827 431.697 75.4975 431.697 74.6523V70.55C431.697 69.7048 431.012 69.0197 430.167 69.0197Z" fill="black"/>
<path opacity="0.2" d="M422.348 75.0252L420.419 73.0962C420.723 72.5931 420.852 72.0035 420.785 71.4194C420.719 70.8354 420.461 70.2898 420.052 69.8677C419.643 69.4456 419.106 69.1707 418.524 69.086C417.942 69.0013 417.349 69.1115 416.836 69.3994C416.324 69.6873 415.921 70.1367 415.691 70.6776C415.461 71.2184 415.416 71.8202 415.564 72.3892C415.711 72.9581 416.043 73.4621 416.507 73.8227C416.972 74.1832 417.542 74.38 418.13 74.3822C418.615 74.3759 419.089 74.2429 419.506 73.9964L421.435 75.9254C421.558 76.0485 421.724 76.1179 421.898 76.1184C422.068 76.1159 422.229 76.0466 422.348 75.9254C422.466 75.8053 422.532 75.6437 422.532 75.4754C422.532 75.307 422.466 75.1454 422.348 75.0252ZM417.204 72.6976C417.01 72.5051 416.877 72.2592 416.824 71.9911C416.77 71.723 416.797 71.445 416.902 71.1924C417.007 70.9399 417.184 70.7244 417.412 70.5733C417.64 70.4222 417.908 70.3425 418.181 70.3442C418.363 70.3423 418.542 70.3766 418.71 70.4451C418.878 70.5135 419.031 70.6148 419.159 70.7429C419.418 71.0021 419.564 71.3536 419.564 71.7202C419.564 72.0868 419.418 72.4384 419.159 72.6976C418.9 72.9568 418.548 73.1024 418.181 73.1024C417.815 73.1024 417.463 72.9568 417.204 72.6976Z" fill="black"/>
<path opacity="0.2" d="M446.255 79.822H123.366V94.5724H446.255V79.822Z" fill="black"/>
<path opacity="0.5" d="M123.366 236.431L363.668 236.431V94.5725L123.366 94.5725L123.366 236.431Z" fill="white"/>
<path opacity="0.2" d="M446.242 236.431V247.465C446.242 248.829 445.7 250.138 444.735 251.102C443.771 252.067 442.462 252.609 441.098 252.609H128.459C127.094 252.609 125.786 252.067 124.821 251.102C123.857 250.138 123.315 248.829 123.315 247.465V236.431H446.242Z" fill="black"/>
<path opacity="0.5" d="M446.255 94.5724H367.23V236.431H446.255V94.5724Z" fill="white"/>
<path d="M143.903 336.263C143.903 336.263 139.274 326.142 144.572 316.176C149.87 306.209 151.401 303.843 148.019 301.811C144.636 299.779 143.093 309.785 143.093 309.785C141.414 305.244 141.243 300.284 142.605 295.639C144.958 288.424 146.463 276.67 143.222 275.41C139.981 274.149 142.605 290.07 139.814 295.497C138.396 291.689 137.483 287.711 137.1 283.666C136.715 277.866 137.306 268.607 134.773 266.241C132.239 263.874 130.619 265.508 133.114 278.29C134.603 285.921 135.429 293.666 135.583 301.438C135.583 301.438 130.079 284.72 126.388 284.18C122.697 283.64 122.697 289.119 125.861 293.825C129.024 298.532 135.12 306.981 136.149 311.328C136.149 311.328 130.117 298.699 124.678 302.57C119.238 306.441 129.41 314.067 133.937 316.819C138.464 319.571 141.653 336.855 141.653 336.855L143.903 336.263Z" fill="#599DD9"/>
<path d="M140.251 340.404C140.251 340.404 144.765 330.219 139.351 320.33C133.937 310.44 132.368 308.113 135.711 306.017C139.055 303.92 140.74 313.925 140.74 313.925C142.364 309.367 142.477 304.407 141.061 299.779C138.631 292.604 137.01 280.875 140.212 279.564C143.415 278.252 140.997 294.211 143.852 299.599C145.223 295.772 146.088 291.781 146.424 287.73C146.745 281.93 146.038 272.683 148.533 270.266C151.028 267.848 152.687 269.481 150.346 282.303C148.95 289.941 148.219 297.686 148.16 305.451C148.16 305.451 153.458 288.604 157.162 288.051C160.866 287.498 160.917 292.938 157.805 297.696C154.693 302.454 148.713 310.993 147.761 315.353C147.761 315.353 153.651 302.634 159.13 306.428C164.608 310.222 154.539 318.002 150.05 320.806C145.562 323.609 142.617 340.944 142.617 340.944L140.251 340.404Z" fill="#599DD9"/>
<path opacity="0.2" d="M140.251 340.404C140.251 340.404 144.765 330.219 139.351 320.33C133.937 310.44 132.368 308.113 135.711 306.017C139.055 303.92 140.74 313.925 140.74 313.925C142.364 309.367 142.477 304.407 141.061 299.779C138.631 292.604 137.01 280.875 140.212 279.564C143.415 278.252 140.997 294.211 143.852 299.599C145.223 295.772 146.088 291.781 146.424 287.73C146.745 281.93 146.038 272.683 148.533 270.266C151.028 267.848 152.687 269.481 150.346 282.303C148.95 289.941 148.219 297.686 148.16 305.451C148.16 305.451 153.458 288.604 157.162 288.051C160.866 287.498 160.917 292.938 157.805 297.696C154.693 302.454 148.713 310.993 147.761 315.353C147.761 315.353 153.651 302.634 159.13 306.428C164.608 310.222 154.539 318.002 150.05 320.806C145.562 323.609 142.617 340.944 142.617 340.944L140.251 340.404Z" fill="white"/>
<path d="M161.071 333.151H123.777L126.787 359.836H158.049L161.071 333.151Z" fill="#263238"/>
<path d="M95.7169 359.218V465.956H103.433V374.65H225.603V465.956H234.605V359.218H95.7169Z" fill="#599DD9"/>
<path opacity="0.4" d="M95.7169 359.218V465.956H103.433V374.65H225.603V465.956H234.605V359.218H95.7169Z" fill="white"/>
<path d="M166.447 359.218V465.956H174.163V374.65H296.333V465.956H305.335V359.218H166.447Z" fill="#599DD9"/>
<path opacity="0.6" d="M166.447 359.218V465.956H174.163V374.65H296.333V465.956H305.335V359.218H166.447Z" fill="white"/>
<path opacity="0.2" d="M404.486 128.806V252.558H184.477V128.806C184.494 127.453 185.043 126.161 186.006 125.21C186.969 124.259 188.267 123.726 189.621 123.726H399.393C400.737 123.739 402.023 124.278 402.975 125.228C403.927 126.177 404.469 127.462 404.486 128.806Z" fill="black"/>
<path d="M414.709 138.142V283.846C414.709 285.21 414.167 286.519 413.203 287.483C412.238 288.448 410.93 288.99 409.565 288.99H199.793C198.429 288.99 197.12 288.448 196.156 287.483C195.191 286.519 194.649 285.21 194.649 283.846V138.142C194.666 136.789 195.215 135.497 196.178 134.546C197.141 133.596 198.44 133.062 199.793 133.063H409.617C410.961 133.076 412.247 133.615 413.198 134.564C414.15 135.514 414.693 136.798 414.709 138.142Z" fill="#599DD9"/>
<path opacity="0.5" d="M408.176 141.203C408.176 141.966 407.95 142.712 407.526 143.346C407.102 143.981 406.5 144.475 405.795 144.767C405.09 145.059 404.314 145.136 403.566 144.987C402.817 144.838 402.13 144.47 401.59 143.931C401.051 143.391 400.683 142.704 400.535 141.956C400.386 141.207 400.462 140.431 400.754 139.726C401.046 139.021 401.541 138.419 402.175 137.995C402.809 137.571 403.555 137.345 404.318 137.345C405.342 137.345 406.323 137.751 407.046 138.475C407.77 139.198 408.176 140.18 408.176 141.203Z" fill="white"/>
<path opacity="0.5" d="M395.123 141.203C395.123 141.966 394.897 142.712 394.473 143.346C394.049 143.981 393.447 144.475 392.742 144.767C392.037 145.059 391.261 145.136 390.513 144.987C389.764 144.838 389.077 144.47 388.537 143.931C387.998 143.391 387.63 142.704 387.482 141.956C387.333 141.207 387.409 140.431 387.701 139.726C387.993 139.021 388.488 138.419 389.122 137.995C389.757 137.571 390.502 137.345 391.265 137.345C392.289 137.345 393.27 137.751 393.993 138.475C394.717 139.198 395.123 140.18 395.123 141.203Z" fill="white"/>
<path opacity="0.4" d="M412.51 151.285V282.046C412.514 282.702 412.387 283.352 412.137 283.959C411.888 284.566 411.52 285.117 411.056 285.581C410.592 286.046 410.041 286.413 409.434 286.662C408.827 286.912 408.177 287.039 407.521 287.035H201.902C200.579 287.035 199.31 286.51 198.374 285.574C197.438 284.638 196.912 283.369 196.912 282.046V151.285H412.51Z" fill="black"/>
<path opacity="0.2" d="M263.99 236.495L202.648 287.035H201.902C200.579 287.035 199.31 286.509 198.374 285.574C197.438 284.638 196.912 283.369 196.912 282.045V264.775L263.99 236.495Z" fill="black"/>
<path opacity="0.2" d="M285.672 232.715L256.969 287.035H231.21L285.672 232.715Z" fill="black"/>
<path opacity="0.2" d="M318.041 287.035H289.26C295.613 261.585 304.692 234.965 304.692 234.965L318.041 287.035Z" fill="black"/>
<path opacity="0.2" d="M390.057 287.035H346.384L322.452 234.978L390.057 287.035Z" fill="black"/>
<path opacity="0.2" d="M412.51 272.735V282.046C412.509 283.197 412.115 284.313 411.391 285.209L338.797 240.611L412.51 272.735Z" fill="black"/>
<path opacity="0.2" d="M412.51 231.03V251.246L355.412 234.695L412.51 231.03Z" fill="black"/>
<path opacity="0.2" d="M253.033 231.3L196.899 238.399V228.021L253.033 231.3Z" fill="black"/>
<path opacity="0.2" d="M393.966 151.285L342.488 189.299L372.053 151.285H393.966Z" fill="black"/>
<path opacity="0.2" d="M348.365 151.285L320.729 192.604L335.505 151.285H348.365Z" fill="black"/>
<path opacity="0.2" d="M309.515 151.285C305.232 167 301.799 189.865 301.799 189.865L296.333 151.285H309.515Z" fill="black"/>
<path opacity="0.2" d="M284.013 189.518L254.718 151.285H273.892L284.013 189.518Z" fill="black"/>
<path opacity="0.2" d="M267.797 183.525L231.03 151.285H239.71L267.797 183.525Z" fill="black"/>
<path opacity="0.2" d="M251.053 189.055L196.899 172.53V152.237L251.053 189.055Z" fill="black"/>
<path opacity="0.2" d="M412.51 167.99V178.831L353.341 194.739L412.51 167.99Z" fill="black"/>
<path opacity="0.2" d="M196.899 201.786L219.867 210.505L196.899 209.387V201.786Z" fill="black"/>
<path opacity="0.2" d="M219.867 200.526L196.899 196.642V191.331L219.867 200.526Z" fill="black"/>
<path opacity="0.2" d="M412.51 198.79V208.139L384.591 208.679L412.51 198.79Z" fill="black"/>
<path d="M340.52 163.785L344.468 168.518L350.602 167.952L347.323 173.173L349.753 178.831L343.774 177.314L339.144 181.39L338.732 175.23L333.434 172.08L339.17 169.791L340.52 163.785Z" fill="#599DD9"/>
<path d="M229.718 168.402L233.666 173.147L239.8 172.581L236.508 177.79L238.952 183.461L232.972 181.943L228.329 186.007L227.931 179.86L222.632 176.709L228.355 174.42L229.718 168.402Z" fill="#599DD9"/>
<path d="M299.201 258.049L299.844 264.183L305.271 267.128L299.638 269.636L298.506 275.693L294.378 271.114L288.27 271.925L291.356 266.575L288.694 261.006L294.725 262.292L299.201 258.049Z" fill="#599DD9"/>
<path d="M362.922 230.94L366.124 233.512L370.059 232.342L368.593 236.187L370.921 239.556L366.819 239.35L364.324 242.617L363.256 238.643L359.385 237.28L362.819 235.042L362.922 230.94Z" fill="#599DD9"/>
<path d="M250.346 225.191L253.535 227.763L257.47 226.593L256.004 230.438L258.332 233.808L254.229 233.602L251.734 236.868L250.667 232.895L246.796 231.531L250.243 229.294L250.346 225.191Z" fill="#599DD9"/>
<path d="M379.576 259.438L380.09 263.502L383.729 265.392L380.026 267.141L379.357 271.192L376.541 268.195L372.49 268.813L374.47 265.212L372.618 261.547L376.656 262.318L379.576 259.438Z" fill="#599DD9"/>
<path d="M247.979 262.113L249.793 265.79L253.856 266.382L250.924 269.25L251.619 273.288L247.979 271.385L244.34 273.288L245.034 269.25L242.102 266.382L246.166 265.79L247.979 262.113Z" fill="#599DD9"/>
<path d="M273.674 177.211L275.5 180.889L279.564 181.48L276.619 184.348L277.313 188.386L273.674 186.483L270.047 188.386L270.742 184.348L267.797 181.48L271.86 180.889L273.674 177.211Z" fill="#599DD9"/>
<path d="M384.553 185.93L385.466 187.769L387.498 188.065L386.032 189.505L386.379 191.524L384.553 190.572L382.739 191.524L383.087 189.505L381.621 188.065L383.652 187.769L384.553 185.93Z" fill="#599DD9"/>
<path d="M299.368 162.396L300.281 164.235L302.313 164.531L300.847 165.971L301.194 167.99L299.368 167.026L297.555 167.99L297.902 165.971L296.436 164.531L298.468 164.235L299.368 162.396Z" fill="#599DD9"/>
<path d="M212.794 225.217L213.707 227.056L215.739 227.352L214.273 228.792L214.608 230.811L212.794 229.86L210.981 230.811L211.328 228.792L209.862 227.352L211.894 227.056L212.794 225.217Z" fill="#599DD9"/>
<path d="M347.67 271.217L348.583 273.056L350.602 273.352L349.136 274.792L349.483 276.812L347.67 275.86L345.857 276.812L346.204 274.792L344.725 273.352L346.757 273.056L347.67 271.217Z" fill="#599DD9"/>
<path d="M315.096 185.93L316.009 187.769L318.041 188.065L316.562 189.505L316.909 191.524L315.096 190.572L313.282 191.524L313.63 189.505L312.164 188.065L314.183 187.769L315.096 185.93Z" fill="#599DD9"/>
<path d="M320.728 243.736L321.642 245.575L323.673 245.87L322.207 247.311L322.555 249.33L320.728 248.378L318.915 249.33L319.262 247.311L317.796 245.87L319.828 245.575L320.728 243.736Z" fill="#599DD9"/>
<path d="M395.123 225.217L396.037 227.056L398.068 227.352L396.602 228.792L396.95 230.811L395.123 229.86L393.31 230.811L393.657 228.792L392.191 227.352L394.223 227.056L395.123 225.217Z" fill="#599DD9"/>
<path d="M331.557 233.175H277.84C275.828 233.175 273.898 232.375 272.475 230.953C271.052 229.53 270.253 227.6 270.253 225.587C270.253 223.575 271.052 221.645 272.475 220.222C273.898 218.799 275.828 218 277.84 218H331.557C333.569 218 335.499 218.799 336.922 220.222C338.345 221.645 339.144 223.575 339.144 225.587C339.144 227.6 338.345 229.53 336.922 230.953C335.499 232.375 333.569 233.175 331.557 233.175Z" fill="white"/>
<path d="M290.726 423.544L286.868 422.991C287.563 418.182 291.575 409.089 301.863 409.089C314.054 409.089 320.111 416.124 320.729 423.107L316.871 423.441C316.408 418.22 311.598 412.947 301.85 412.947C292.411 412.947 290.79 423.094 290.726 423.544Z" fill="#263238"/>
<path d="M335.865 420.149H273.198C269.767 420.149 266.986 422.93 266.986 426.361V458.768C266.986 462.198 269.767 464.979 273.198 464.979H335.865C339.295 464.979 342.076 462.198 342.076 458.768V426.361C342.076 422.93 339.295 420.149 335.865 420.149Z" fill="#263238"/>
<path opacity="0.3" d="M335.865 420.149H273.198C269.767 420.149 266.986 422.93 266.986 426.361V458.768C266.986 462.198 269.767 464.979 273.198 464.979H335.865C339.295 464.979 342.076 462.198 342.076 458.768V426.361C342.076 422.93 339.295 420.149 335.865 420.149Z" fill="white"/>
<path d="M320.767 465.673C267.719 465.673 265.083 429.267 265.07 428.894L267.231 424.676C267.308 426.039 271.487 461.815 320.767 461.815C341.034 461.815 358.55 461.815 360.324 457.957C361.88 454.537 354.28 445.792 342.089 431.762V426.386C357.624 444.274 366.42 453.881 363.835 459.552C361.135 465.442 349.406 465.673 320.767 465.673Z" fill="#263238"/>
<path d="M464.966 371.088C464.966 371.088 459.243 384.373 457.957 386.224C456.671 388.076 428.238 401.232 428.238 401.232C425.93 400.91 423.588 400.91 421.281 401.232C417.77 401.785 412.934 403.264 412.497 403.804C412.06 404.344 417.783 412.665 417.783 412.665C417.783 412.665 429.164 413.372 430.578 408.807C430.578 408.807 459.115 398.21 462.433 395.445C465.75 392.68 474.984 376.258 474.984 376.258L464.966 371.088Z" fill="#E4897B"/>
<path d="M473.415 341.664C469.557 347.066 459.822 373.017 459.822 373.017L470.676 386.199L483.755 371.795L473.415 341.664Z" fill="#599DD9"/>
<path opacity="0.4" d="M473.415 341.664C469.557 347.066 459.822 373.017 459.822 373.017L470.676 386.199L483.755 371.795L473.415 341.664Z" fill="white"/>
<path d="M486.365 330.579C486.365 330.579 493.284 325.551 506.941 325.551C506.941 325.551 510.799 333.55 510.388 333.82C509.976 334.09 484.218 338.964 484.475 338.964C484.732 338.964 486.365 330.579 486.365 330.579Z" fill="#599DD9"/>
<path opacity="0.2" d="M486.365 330.579C486.365 330.579 493.284 325.551 506.941 325.551C506.941 325.551 510.799 333.55 510.388 333.82C509.976 334.09 484.218 338.964 484.475 338.964C484.732 338.964 486.365 330.579 486.365 330.579Z" fill="white"/>
<path d="M474.946 420.522C474.946 420.522 384.758 407.585 380 427.364C374.972 448.287 447.374 462.394 490.596 463.873C533.819 465.352 546.319 455.849 539.374 402.364L480.99 402.222L474.946 420.522Z" fill="#263238"/>
<path opacity="0.2" d="M474.946 420.522C474.946 420.522 384.758 407.585 380 427.364C374.972 448.287 447.374 462.394 490.596 463.873C533.819 465.352 546.319 455.849 539.374 402.364L480.99 402.222L474.946 420.522Z" fill="black"/>
<path d="M389.889 468.271C389.24 467.78 388.763 467.095 388.526 466.316C388.481 466.058 388.505 465.793 388.595 465.546C388.686 465.3 388.839 465.082 389.041 464.915C389.15 464.801 389.287 464.719 389.438 464.676C389.59 464.633 389.75 464.631 389.902 464.67C391.355 465.107 392.783 469.261 392.924 469.75C392.947 469.795 392.952 469.847 392.941 469.897C392.929 469.946 392.9 469.989 392.86 470.02C392.812 470.051 392.756 470.068 392.699 470.068C392.642 470.068 392.586 470.051 392.539 470.02C391.602 469.523 390.715 468.937 389.889 468.271ZM390.121 465.403C390.025 465.315 389.911 465.249 389.787 465.21C389.727 465.192 389.663 465.192 389.603 465.21C389.544 465.228 389.491 465.264 389.452 465.313C389.303 465.418 389.189 465.564 389.123 465.733C389.056 465.902 389.041 466.087 389.079 466.265C389.722 467.59 390.817 468.644 392.166 469.236C391.721 467.845 391.028 466.547 390.121 465.403Z" fill="#599DD9"/>
<path d="M392.474 470.033V469.905C391.96 468.619 391.831 465.249 392.886 464.516C393.06 464.4 393.268 464.346 393.476 464.365C393.685 464.384 393.88 464.473 394.03 464.619C394.211 464.736 394.367 464.888 394.486 465.068C394.606 465.247 394.687 465.449 394.725 465.661C395.059 467.371 393.053 469.892 392.924 470.007C392.893 470.046 392.85 470.075 392.802 470.089C392.753 470.102 392.702 470.101 392.654 470.085C392.59 470.089 392.526 470.071 392.474 470.033ZM393.76 465.146L393.657 465.056C393.349 464.851 393.233 464.941 393.156 464.979C392.552 465.404 392.436 467.77 392.77 469.21C393.31 468.438 394.313 466.818 394.056 465.751C394.016 465.514 393.893 465.3 393.709 465.146H393.76Z" fill="#599DD9"/>
<path d="M424.727 461.726L405.836 461.738H396.757L395.676 452.196L404.061 451.078L424.56 448.338L424.727 461.726Z" fill="#E4897B"/>
<path d="M397.721 450.987L400.023 461.893C400.051 462.036 400.05 462.182 400.02 462.325C399.99 462.467 399.932 462.602 399.85 462.722C399.767 462.842 399.661 462.944 399.539 463.022C399.416 463.101 399.279 463.154 399.136 463.179L393.709 464.156C393.709 464.156 386.494 465.995 384.462 464.696C378.547 460.915 372.888 436.931 375.255 435.118C376.129 434.462 377.66 435.453 378.431 436.237C380.849 438.719 386.031 445.638 388.089 447.682C390.481 450.087 394.738 450.151 396.602 450.061C396.871 450.046 397.136 450.133 397.343 450.305C397.551 450.477 397.686 450.72 397.721 450.987Z" fill="#263238"/>
<path opacity="0.2" d="M424.727 461.726L405.836 461.738L404.061 451.078L424.56 448.338L424.727 461.726Z" fill="black"/>
<path d="M496.113 419.815V422.194C496.111 422.99 495.802 423.754 495.251 424.329C494.701 424.903 493.95 425.244 493.155 425.28H405.206C404.387 425.253 403.608 424.922 403.021 424.351C402.434 423.78 402.08 423.011 402.029 422.194V419.815H496.113Z" fill="#263238"/>
<path opacity="0.2" d="M496.113 419.815V422.194C496.111 422.99 495.802 423.754 495.251 424.329C494.701 424.903 493.95 425.244 493.155 425.28H405.206C404.387 425.253 403.608 424.922 403.021 424.351C402.434 423.78 402.08 423.011 402.029 422.194V419.815H496.113Z" fill="white"/>
<path opacity="0.2" d="M463.294 419.815V422.194C463.289 422.991 462.977 423.755 462.425 424.329C461.872 424.904 461.12 425.244 460.324 425.28H405.206C404.387 425.253 403.608 424.922 403.021 424.351C402.434 423.78 402.08 423.011 402.029 422.194V419.815H463.294Z" fill="white"/>
<path d="M460.388 423.094H402.222C401.289 423.048 400.391 422.728 399.638 422.175C398.886 421.621 398.313 420.859 397.991 419.982L384.668 378.187C384.513 377.826 384.452 377.432 384.491 377.041C384.53 376.65 384.668 376.275 384.892 375.952C385.116 375.629 385.418 375.369 385.77 375.195C386.123 375.021 386.513 374.94 386.906 374.959H444.956C445.898 375.025 446.799 375.366 447.549 375.94C448.299 376.514 448.864 377.295 449.174 378.187L462.497 419.93C462.647 420.277 462.708 420.656 462.675 421.033C462.641 421.41 462.513 421.772 462.304 422.086C462.094 422.401 461.809 422.658 461.474 422.834C461.139 423.01 460.766 423.099 460.388 423.094Z" fill="#263238"/>
<path opacity="0.2" d="M460.388 423.094H402.222C401.289 423.048 400.391 422.728 399.638 422.175C398.886 421.621 398.313 420.859 397.991 419.982L384.668 378.187C384.513 377.826 384.452 377.432 384.491 377.041C384.53 376.65 384.668 376.275 384.892 375.952C385.116 375.629 385.418 375.369 385.77 375.195C386.123 375.021 386.513 374.94 386.906 374.959H444.956C445.898 375.025 446.799 375.366 447.549 375.94C448.299 376.514 448.864 377.295 449.174 378.187L462.497 419.93C462.647 420.277 462.708 420.656 462.675 421.033C462.641 421.41 462.513 421.772 462.304 422.086C462.094 422.401 461.809 422.658 461.474 422.834C461.139 423.01 460.766 423.099 460.388 423.094Z" fill="white"/>
<path opacity="0.2" d="M458.137 423.094H402.222C401.289 423.048 400.391 422.728 399.638 422.175C398.886 421.621 398.313 420.859 397.991 419.982L384.668 378.187C384.513 377.826 384.452 377.432 384.491 377.041C384.53 376.65 384.668 376.275 384.892 375.952C385.116 375.629 385.418 375.369 385.77 375.195C386.123 375.021 386.513 374.94 386.906 374.959H442.821C443.762 375.027 444.663 375.368 445.413 375.942C446.162 376.515 446.728 377.296 447.039 378.187L460.388 419.93C460.544 420.289 460.606 420.681 460.566 421.07C460.525 421.459 460.385 421.831 460.158 422.15C459.932 422.468 459.627 422.723 459.272 422.888C458.918 423.054 458.527 423.125 458.137 423.094Z" fill="white"/>
<path opacity="0.2" d="M424.136 400.936C424.856 403.727 423.467 405.99 421.036 405.99C418.606 405.99 416.072 403.727 415.352 400.936C414.632 398.146 416.021 395.895 418.451 395.895C420.882 395.895 423.415 398.158 424.136 400.936Z" fill="white"/>
<path opacity="0.2" d="M397.721 450.987L400.023 461.893C400.051 462.036 400.05 462.182 400.02 462.325C399.99 462.467 399.932 462.602 399.85 462.722C399.767 462.842 399.661 462.944 399.539 463.022C399.416 463.101 399.279 463.154 399.136 463.179L393.709 464.156C393.709 464.156 386.494 465.995 384.462 464.696C378.547 460.915 372.888 436.931 375.255 435.118C376.129 434.462 377.66 435.453 378.431 436.237C380.849 438.719 386.031 445.638 388.089 447.682C390.481 450.087 394.738 450.151 396.602 450.061C396.871 450.046 397.136 450.133 397.343 450.305C397.551 450.477 397.686 450.72 397.721 450.987Z" fill="white"/>
<path d="M522.077 409.874L540.313 410.118L539.966 404.19L522.077 403.804V409.874Z" fill="black"/>
<path d="M486.095 403.019L480.642 402.904L478.7 409.308L486.095 409.411V403.019Z" fill="black"/>
<path d="M488.423 403.071V409.437L519.274 409.835V403.74L488.423 403.071Z" fill="black"/>
<path d="M503.855 410.735H503.765L498.183 410.491C497.544 410.445 496.949 410.149 496.525 409.668C496.102 409.187 495.885 408.559 495.92 407.919L496.01 405.437C496.033 404.783 496.304 404.162 496.769 403.701C496.991 403.483 497.254 403.312 497.544 403.197C497.833 403.082 498.142 403.026 498.453 403.032L504.035 403.277C504.672 403.326 505.264 403.623 505.684 404.104C506.105 404.585 506.321 405.211 506.285 405.849L506.195 408.331C506.192 408.956 505.947 409.557 505.51 410.005C505.074 410.454 504.48 410.716 503.855 410.735ZM503.855 409.681C504.04 409.684 504.225 409.651 504.397 409.582C504.569 409.512 504.726 409.41 504.858 409.279C504.99 409.148 505.094 408.992 505.165 408.821C505.235 408.649 505.271 408.465 505.269 408.279L505.359 405.81C505.388 405.439 505.269 405.071 505.028 404.787C504.787 404.503 504.444 404.325 504.073 404.293L498.492 404.061C498.311 404.053 498.131 404.083 497.962 404.15C497.794 404.216 497.641 404.317 497.515 404.447C497.242 404.716 497.081 405.08 497.065 405.463L496.975 407.932C496.949 408.303 497.07 408.668 497.31 408.952C497.55 409.235 497.891 409.414 498.261 409.449L503.855 409.681Z" fill="white"/>
<path d="M505.244 407.52H502.44C502.271 407.517 502.109 407.448 501.989 407.329C501.869 407.209 501.8 407.047 501.797 406.877C501.797 406.707 501.865 406.543 501.985 406.423C502.106 406.302 502.27 406.234 502.44 406.234H505.244C505.414 406.234 505.578 406.302 505.698 406.423C505.819 406.543 505.887 406.707 505.887 406.877C505.887 407.048 505.819 407.212 505.698 407.332C505.578 407.453 505.414 407.52 505.244 407.52Z" fill="white"/>
<path d="M473.158 341.999C473.158 341.999 480.192 386.482 477.247 402.377L542.306 404.267C542.306 404.267 534.59 358.331 524.366 340.996C524.366 340.996 507.378 312.614 473.158 341.999Z" fill="#599DD9"/>
<path opacity="0.6" d="M473.158 341.999C473.158 341.999 480.192 386.482 477.247 402.377L542.306 404.267C542.306 404.267 534.59 358.331 524.366 340.996C524.366 340.996 507.378 312.614 473.158 341.999Z" fill="white"/>
<path d="M482.931 335.042C484.282 332.47 490.892 330.438 496.203 329.666C501.514 328.894 507.906 327.428 509.565 330.052C511.223 332.675 500.897 341.703 500.897 341.703L498.711 353.431L492.757 344.146C492.757 344.146 480.732 339.247 482.931 335.042Z" fill="#599DD9"/>
<path d="M511.326 332.097C511.326 332.097 500.537 342.642 494.3 340.919C488.063 339.195 485.735 336.019 485.735 336.019C485.735 336.019 490.737 333.82 490.184 332.624C490.051 332.368 489.905 332.119 489.747 331.878C487.882 329.062 481.272 320.034 481.272 320.034L495.418 312.074C495.418 312.074 496.576 314.813 497.99 318.079C499.907 322.413 502.299 327.686 503.134 328.663C504.601 330.386 511.326 332.097 511.326 332.097Z" fill="#E4897B"/>
<path opacity="0.2" d="M498.055 318.079C497.167 323.082 494.981 328.997 489.747 331.878C487.882 329.062 481.272 320.034 481.272 320.034L495.418 312.074C495.418 312.074 496.627 314.813 498.055 318.079Z" fill="black"/>
<path d="M476.54 298.352C481.17 300.268 480.282 305.309 472.605 314.517C467.885 310.44 465.326 301.181 467.795 298.211C470.264 295.24 472.515 296.706 476.54 298.352Z" fill="#263238"/>
<path d="M469.712 318.838C470.124 320.074 470.618 321.281 471.19 322.452C475.743 331.749 488.873 333.563 494.686 324.355C494.714 324.331 494.736 324.3 494.75 324.265C498.608 318.079 497.155 312.305 495.547 302.287C495.198 299.957 494.259 297.754 492.82 295.889C491.381 294.023 489.489 292.555 487.324 291.625C485.159 290.695 482.792 290.334 480.448 290.575C478.104 290.816 475.86 291.651 473.93 293.002C466.329 298.352 466.818 310.286 469.712 318.838Z" fill="#E4897B"/>
<path d="M481.414 308.331C481.594 309.142 481.311 309.887 480.797 310.003C480.282 310.119 479.704 309.566 479.511 308.717C479.318 307.868 479.601 307.161 480.128 307.045C480.655 306.93 481.183 307.56 481.414 308.331Z" fill="#263238"/>
<path d="M472.283 310.389C472.463 311.199 472.181 311.945 471.653 312.061C471.126 312.177 470.56 311.636 470.367 310.775C470.174 309.913 470.47 309.232 470.984 309.116C471.499 309 472.103 309.592 472.283 310.389Z" fill="#263238"/>
<path d="M475.357 310.106C474.944 312.771 474.169 315.367 473.055 317.822C473.702 318.091 474.4 318.215 475.1 318.184C475.801 318.153 476.485 317.968 477.106 317.642L475.357 310.106Z" fill="#DE5753"/>
<path d="M483.266 304.898C483.366 304.889 483.461 304.849 483.536 304.782C483.625 304.691 483.674 304.568 483.674 304.441C483.674 304.314 483.625 304.192 483.536 304.1C482.962 303.589 482.273 303.223 481.527 303.035C480.781 302.847 480.001 302.842 479.253 303.02C479.193 303.034 479.136 303.059 479.087 303.095C479.037 303.131 478.995 303.178 478.963 303.231C478.932 303.284 478.912 303.343 478.904 303.404C478.897 303.465 478.902 303.527 478.919 303.586C478.958 303.709 479.042 303.812 479.154 303.874C479.267 303.936 479.399 303.953 479.523 303.92C480.115 303.787 480.73 303.798 481.316 303.953C481.903 304.107 482.443 304.4 482.893 304.808C482.946 304.847 483.006 304.875 483.07 304.891C483.134 304.906 483.201 304.909 483.266 304.898Z" fill="#263238"/>
<path d="M467.435 308.254C467.524 308.229 467.605 308.182 467.67 308.116C467.735 308.051 467.783 307.97 467.808 307.881C467.931 307.288 468.192 306.732 468.569 306.259C468.947 305.785 469.431 305.407 469.981 305.155C470.042 305.134 470.098 305.101 470.146 305.058C470.194 305.015 470.234 304.964 470.262 304.906C470.29 304.848 470.306 304.785 470.31 304.721C470.314 304.656 470.305 304.592 470.284 304.531C470.262 304.47 470.23 304.414 470.187 304.366C470.144 304.318 470.092 304.279 470.034 304.251C469.976 304.223 469.914 304.207 469.849 304.203C469.785 304.199 469.721 304.208 469.66 304.229C468.956 304.539 468.335 305.012 467.85 305.609C467.365 306.206 467.029 306.91 466.869 307.663C466.854 307.723 466.851 307.787 466.86 307.849C466.869 307.911 466.89 307.97 466.923 308.024C466.955 308.078 466.997 308.125 467.048 308.162C467.098 308.199 467.156 308.226 467.216 308.241H467.435V308.254Z" fill="#263238"/>
<path d="M484.822 317.809C484.344 319.017 483.543 320.07 482.506 320.853C481.47 321.635 480.237 322.117 478.945 322.246" stroke="#263238" stroke-width="0.557248" stroke-linecap="round" stroke-linejoin="round"/>
<path d="M499.122 303.817C500.202 300.049 500.228 296.101 499.019 293.89C497.065 287.794 490.866 284.386 479.472 285.055C476.187 285.099 472.968 285.984 470.123 287.627C468.593 288.49 467.305 289.724 466.379 291.217C465.453 292.71 464.918 294.412 464.825 296.166C464.554 299.715 467.975 302.416 467.975 302.416C467.912 300.98 468.117 299.545 468.58 298.185C468.744 298.882 469.082 299.527 469.564 300.058C470.045 300.588 470.653 300.988 471.332 301.22C471.181 300.063 471.181 298.891 471.332 297.735C471.653 300.435 475.048 301.67 475.048 301.67C475.514 300.216 476.148 298.822 476.939 297.516C476.916 298.636 477.154 299.745 477.633 300.757C478.815 299.336 480.26 298.157 481.89 297.285C481.743 297.601 481.666 297.945 481.666 298.294C481.666 298.643 481.743 298.987 481.89 299.304C482.456 298.453 483.22 297.752 484.115 297.259C485.011 296.767 486.012 296.497 487.034 296.474L487.702 296.68C486.609 299.522 489.194 303.766 496.139 309.797C497.515 308.054 498.525 306.051 499.109 303.907C499.103 303.893 499.101 303.877 499.103 303.861C499.106 303.845 499.112 303.83 499.122 303.817Z" fill="#263238"/>
<path d="M502.041 309.167C501.886 311.713 500.731 314.094 498.826 315.79C496.254 318.015 493.567 316.086 493.052 312.935C492.589 310.08 493.374 305.489 496.499 304.486C499.624 303.483 502.209 306.068 502.041 309.167Z" fill="#E4897B"/>
<path d="M486.365 330.579C486.365 330.579 484.719 336.006 492.795 344.146L488.68 353.431C488.68 353.431 479.999 342.487 480.398 335.427L486.365 330.579Z" fill="#599DD9"/>
<path opacity="0.4" d="M486.365 330.579C486.365 330.579 484.719 336.006 492.795 344.146L488.68 353.431C488.68 353.431 479.999 342.487 480.398 335.427L486.365 330.579Z" fill="white"/>
<path d="M506.903 325.551C506.903 325.551 507.507 333.563 500.897 341.703L505.784 349.843C505.784 349.843 512.42 340.713 513.86 329.91L506.903 325.551Z" fill="#599DD9"/>
<path opacity="0.4" d="M506.903 325.551C506.903 325.551 507.507 333.563 500.897 341.703L505.784 349.843C505.784 349.843 512.42 340.713 513.86 329.91L506.903 325.551Z" fill="white"/>
<path d="M514.786 371.77C514.786 371.77 508.896 385.453 507.571 387.343C506.247 389.234 476.939 402.775 476.939 402.775C474.563 402.438 472.151 402.438 469.776 402.775C466.162 403.341 461.185 404.859 460.774 405.424C460.362 405.99 466.213 414.542 466.213 414.542C466.213 414.542 477.929 415.275 479.382 410.684C479.382 410.684 508.754 399.779 512.162 396.937C515.57 394.095 525.022 377.184 525.022 377.184L514.786 371.77Z" fill="#E4897B"/>
<path d="M523.003 339.774C517.641 339.491 510.426 374.818 510.426 374.818L523.003 384.694C523.003 384.694 530.912 378.264 532.828 368.362C536.635 348.789 523.003 339.774 523.003 339.774Z" fill="#599DD9"/>
<path opacity="0.4" d="M523.003 339.774C517.641 339.491 510.426 374.818 510.426 374.818L523.003 384.694C523.003 384.694 530.912 378.264 532.828 368.362C536.635 348.789 523.003 339.774 523.003 339.774Z" fill="white"/>
<path d="M482.649 468.94C482.99 469.679 483.089 470.507 482.932 471.306C482.854 471.554 482.712 471.776 482.52 471.95C482.328 472.124 482.092 472.244 481.839 472.296C481.689 472.347 481.528 472.358 481.373 472.328C481.218 472.299 481.073 472.231 480.951 472.129C479.871 471.062 480.54 466.715 480.643 466.227C480.642 466.174 480.662 466.124 480.698 466.085C480.734 466.047 480.783 466.024 480.835 466.021C480.89 466.01 480.947 466.017 480.997 466.04C481.048 466.063 481.09 466.101 481.118 466.149C481.723 467.024 482.236 467.96 482.649 468.94ZM481.105 471.371C481.149 471.496 481.219 471.61 481.311 471.705C481.356 471.75 481.413 471.78 481.475 471.792C481.537 471.803 481.601 471.795 481.658 471.769C481.836 471.742 482.001 471.664 482.136 471.546C482.27 471.427 482.368 471.273 482.417 471.1C482.485 469.636 482.029 468.196 481.131 467.037C480.859 468.468 480.85 469.936 481.105 471.371Z" fill="#599DD9"/>
<path d="M452.338 444.853L470.264 450.82L478.881 453.688L476.887 463.088L468.58 461.494L448.261 457.623L452.338 444.853Z" fill="#E4897B"/>
<path d="M474.534 463.577L475.82 452.505C475.835 452.355 475.881 452.209 475.956 452.078C476.03 451.946 476.131 451.831 476.251 451.741C476.372 451.65 476.511 451.586 476.658 451.551C476.805 451.517 476.957 451.513 477.106 451.54L482.571 452.338C482.571 452.338 490.004 452.878 491.509 454.743C495.933 460.208 493.759 484.758 490.917 485.684C489.863 486.018 488.731 484.603 488.255 483.613C486.738 480.501 484.012 472.296 482.713 469.699C481.195 466.677 477.183 465.262 475.383 464.76C475.119 464.705 474.886 464.552 474.729 464.333C474.572 464.115 474.502 463.845 474.534 463.577Z" fill="#263238"/>
<path d="M481.17 466.175V466.303C481.028 467.68 479.575 470.727 478.302 470.895C478.094 470.914 477.885 470.862 477.71 470.748C477.535 470.633 477.403 470.463 477.337 470.264C477.229 470.07 477.162 469.856 477.139 469.635C477.117 469.413 477.141 469.19 477.209 468.978C477.71 467.319 480.655 466.021 480.823 465.969C480.871 465.95 480.923 465.946 480.974 465.958C481.024 465.969 481.07 465.995 481.105 466.033C481.143 466.072 481.165 466.122 481.17 466.175ZM477.775 469.917V470.033C477.942 470.367 478.096 470.342 478.173 470.342C478.919 470.251 480.115 468.207 480.488 466.779C479.652 467.204 478.006 468.168 477.698 469.223C477.614 469.447 477.614 469.693 477.698 469.917H477.775Z" fill="#599DD9"/>
<path opacity="0.2" d="M452.338 444.853L470.264 450.82L468.58 461.494L448.261 457.623L452.338 444.853Z" fill="black"/>
<path d="M465.455 463.166L460.336 463.641L463.397 445.959L469.274 449.045L465.455 463.166Z" fill="#599DD9"/>
<path opacity="0.6" d="M465.455 463.166L460.336 463.641L463.397 445.959L469.274 449.045L465.455 463.166Z" fill="white"/>
<path opacity="0.2" d="M474.534 463.577L475.82 452.505C475.835 452.355 475.881 452.209 475.956 452.078C476.03 451.946 476.131 451.831 476.251 451.741C476.372 451.65 476.511 451.586 476.658 451.551C476.805 451.517 476.957 451.513 477.106 451.54L482.571 452.338C482.571 452.338 490.004 452.878 491.509 454.743C495.933 460.208 493.759 484.758 490.917 485.684C489.863 486.018 488.731 484.603 488.255 483.613C486.738 480.501 484.012 472.296 482.713 469.699C481.195 466.677 477.183 465.262 475.383 464.76C475.119 464.705 474.886 464.552 474.729 464.333C474.572 464.115 474.502 463.845 474.534 463.577Z" fill="white"/>
<path d="M407.546 449.689C407.546 449.689 491.445 417.101 517.126 422.541C542.808 427.981 542.949 441.432 529.922 453.971C516.895 466.509 497.438 461.687 497.438 461.687C497.438 461.687 512.728 452.518 511.661 446.872C510.593 441.227 500.871 454.151 500.871 454.151C500.871 454.151 450.177 466.548 408.279 463.282L407.546 449.689Z" fill="#263238"/>
<path d="M406.53 448.326L411.237 446.165L413.951 463.822L407.405 462.754L406.53 448.326Z" fill="#599DD9"/>
<path opacity="0.6" d="M406.53 448.326L411.237 446.165L413.951 463.822L407.405 462.754L406.53 448.326Z" fill="white"/>
<path d="M263.036 211C261.891 211 260.824 210.82 259.834 210.461C258.859 210.088 258.011 209.564 257.29 208.887C256.569 208.21 256.004 207.416 255.594 206.504C255.198 205.593 255 204.591 255 203.5C255 202.409 255.198 201.407 255.594 200.496C256.004 199.584 256.569 198.79 257.29 198.113C258.025 197.436 258.88 196.919 259.855 196.559C260.831 196.186 261.898 196 263.057 196C264.343 196 265.502 196.221 266.534 196.663C267.58 197.091 268.456 197.727 269.163 198.569L266.958 200.558C266.449 199.992 265.884 199.57 265.262 199.294C264.64 199.004 263.961 198.859 263.226 198.859C262.534 198.859 261.898 198.97 261.318 199.191C260.739 199.412 260.237 199.729 259.813 200.144C259.389 200.558 259.057 201.048 258.816 201.615C258.59 202.181 258.477 202.809 258.477 203.5C258.477 204.191 258.59 204.819 258.816 205.385C259.057 205.952 259.389 206.442 259.813 206.856C260.237 207.271 260.739 207.588 261.318 207.809C261.898 208.03 262.534 208.141 263.226 208.141C263.961 208.141 264.64 208.003 265.262 207.727C265.884 207.436 266.449 207.001 266.958 206.421L269.163 208.41C268.456 209.253 267.58 209.895 266.534 210.337C265.502 210.779 264.336 211 263.036 211Z" fill="white"/>
<path d="M278.381 211C277.207 211 276.119 210.814 275.116 210.441C274.126 210.068 273.264 209.543 272.529 208.866C271.808 208.189 271.243 207.395 270.833 206.483C270.437 205.572 270.239 204.577 270.239 203.5C270.239 202.423 270.437 201.428 270.833 200.517C271.243 199.605 271.815 198.811 272.55 198.134C273.285 197.457 274.147 196.932 275.137 196.559C276.126 196.186 277.2 196 278.359 196C279.533 196 280.607 196.186 281.582 196.559C282.572 196.932 283.427 197.457 284.148 198.134C284.883 198.811 285.455 199.605 285.865 200.517C286.275 201.414 286.48 202.409 286.48 203.5C286.48 204.577 286.275 205.579 285.865 206.504C285.455 207.416 284.883 208.21 284.148 208.887C283.427 209.55 282.572 210.068 281.582 210.441C280.607 210.814 279.54 211 278.381 211ZM278.359 208.141C279.024 208.141 279.632 208.03 280.183 207.809C280.748 207.588 281.243 207.271 281.667 206.856C282.091 206.442 282.416 205.952 282.642 205.385C282.883 204.819 283.003 204.191 283.003 203.5C283.003 202.809 282.883 202.181 282.642 201.615C282.416 201.048 282.091 200.558 281.667 200.144C281.257 199.729 280.769 199.412 280.204 199.191C279.639 198.97 279.024 198.859 278.359 198.859C277.695 198.859 277.08 198.97 276.515 199.191C275.964 199.412 275.476 199.729 275.052 200.144C274.628 200.558 274.296 201.048 274.055 201.615C273.829 202.181 273.716 202.809 273.716 203.5C273.716 204.177 273.829 204.805 274.055 205.385C274.296 205.952 274.621 206.442 275.031 206.856C275.455 207.271 275.949 207.588 276.515 207.809C277.08 208.03 277.695 208.141 278.359 208.141Z" fill="white"/>
<path d="M296.27 211C295.097 211 294.008 210.814 293.005 210.441C292.015 210.068 291.153 209.543 290.418 208.866C289.697 208.189 289.132 207.395 288.722 206.483C288.326 205.572 288.128 204.577 288.128 203.5C288.128 202.423 288.326 201.428 288.722 200.517C289.132 199.605 289.704 198.811 290.439 198.134C291.174 197.457 292.037 196.932 293.026 196.559C294.015 196.186 295.09 196 296.249 196C297.422 196 298.496 196.186 299.471 196.559C300.461 196.932 301.316 197.457 302.037 198.134C302.772 198.811 303.344 199.605 303.754 200.517C304.164 201.414 304.369 202.409 304.369 203.5C304.369 204.577 304.164 205.579 303.754 206.504C303.344 207.416 302.772 208.21 302.037 208.887C301.316 209.55 300.461 210.068 299.471 210.441C298.496 210.814 297.429 211 296.27 211ZM296.249 208.141C296.913 208.141 297.521 208.03 298.072 207.809C298.638 207.588 299.132 207.271 299.556 206.856C299.98 206.442 300.305 205.952 300.532 205.385C300.772 204.819 300.892 204.191 300.892 203.5C300.892 202.809 300.772 202.181 300.532 201.615C300.305 201.048 299.98 200.558 299.556 200.144C299.146 199.729 298.659 199.412 298.093 199.191C297.528 198.97 296.913 198.859 296.249 198.859C295.584 198.859 294.97 198.97 294.404 199.191C293.853 199.412 293.365 199.729 292.941 200.144C292.517 200.558 292.185 201.048 291.945 201.615C291.719 202.181 291.605 202.809 291.605 203.5C291.605 204.177 291.719 204.805 291.945 205.385C292.185 205.952 292.51 206.442 292.92 206.856C293.344 207.271 293.839 207.588 294.404 207.809C294.97 208.03 295.584 208.141 296.249 208.141Z" fill="white"/>
<path d="M310.025 207.436L309.834 203.562L316.937 196.249H320.753L314.35 202.982L312.442 204.971L310.025 207.436ZM306.951 210.751V196.249H310.364V210.751H306.951ZM317.106 210.751L311.827 204.432L314.074 202.05L321.114 210.751H317.106Z" fill="white"/>
<path d="M322.645 210.751V196.249H326.08V210.751H322.645Z" fill="white"/>
<path d="M332.761 202.091H339.906V204.702H332.761V202.091ZM333.016 208.058H341.094V210.751H329.602V196.249H340.818V198.942H333.016V208.058Z" fill="white"/>
<path d="M348.703 211C347.516 211 346.378 210.848 345.289 210.544C344.201 210.227 343.325 209.819 342.66 209.322L343.826 206.794C344.463 207.236 345.212 207.602 346.074 207.892C346.95 208.169 347.834 208.307 348.724 208.307C349.403 208.307 349.947 208.244 350.357 208.12C350.781 207.982 351.092 207.796 351.29 207.561C351.488 207.326 351.586 207.057 351.586 206.753C351.586 206.366 351.431 206.062 351.12 205.841C350.809 205.606 350.399 205.42 349.89 205.282C349.381 205.13 348.816 204.992 348.194 204.867C347.586 204.729 346.971 204.564 346.35 204.37C345.742 204.177 345.183 203.928 344.675 203.624C344.166 203.32 343.749 202.92 343.424 202.423C343.113 201.925 342.957 201.29 342.957 200.517C342.957 199.688 343.183 198.935 343.636 198.258C344.102 197.568 344.795 197.022 345.713 196.622C346.646 196.207 347.812 196 349.212 196C350.145 196 351.063 196.11 351.968 196.331C352.873 196.539 353.671 196.856 354.364 197.285L353.304 199.833C352.611 199.446 351.919 199.163 351.226 198.983C350.533 198.79 349.855 198.693 349.191 198.693C348.526 198.693 347.982 198.769 347.558 198.921C347.134 199.073 346.83 199.273 346.646 199.522C346.463 199.757 346.371 200.033 346.371 200.351C346.371 200.724 346.526 201.028 346.837 201.262C347.148 201.483 347.558 201.663 348.067 201.801C348.576 201.939 349.134 202.077 349.742 202.215C350.364 202.354 350.979 202.512 351.586 202.692C352.208 202.872 352.774 203.113 353.283 203.417C353.791 203.721 354.201 204.122 354.512 204.619C354.837 205.116 355 205.744 355 206.504C355 207.319 354.767 208.065 354.3 208.742C353.834 209.419 353.134 209.964 352.201 210.378C351.283 210.793 350.116 211 348.703 211Z" fill="white"/>
<path d="M286 228.901L288.469 223.099H289.735L292.212 228.901H290.867L288.841 223.779H289.348L287.314 228.901H286ZM287.235 227.657L287.575 226.638H290.424L290.772 227.657H287.235Z" fill="#355E82"/>
<path d="M295.361 229C294.934 229 294.535 228.928 294.166 228.785C293.802 228.635 293.486 228.425 293.216 228.155C292.947 227.884 292.736 227.566 292.583 227.202C292.436 226.837 292.362 226.436 292.362 226C292.362 225.564 292.436 225.163 292.583 224.798C292.736 224.434 292.947 224.116 293.216 223.845C293.491 223.575 293.81 223.367 294.174 223.224C294.538 223.075 294.936 223 295.369 223C295.849 223 296.282 223.088 296.667 223.265C297.057 223.436 297.384 223.691 297.648 224.028L296.825 224.823C296.635 224.597 296.424 224.428 296.192 224.318C295.96 224.202 295.707 224.144 295.432 224.144C295.174 224.144 294.936 224.188 294.72 224.276C294.504 224.365 294.316 224.492 294.158 224.657C294 224.823 293.876 225.019 293.786 225.246C293.702 225.472 293.66 225.724 293.66 226C293.66 226.276 293.702 226.528 293.786 226.754C293.876 226.981 294 227.177 294.158 227.343C294.316 227.508 294.504 227.635 294.72 227.724C294.936 227.812 295.174 227.856 295.432 227.856C295.707 227.856 295.96 227.801 296.192 227.691C296.424 227.575 296.635 227.401 296.825 227.169L297.648 227.964C297.384 228.301 297.057 228.558 296.667 228.735C296.282 228.912 295.847 229 295.361 229Z" fill="#355E82"/>
<path d="M299.693 225.436H302.36V226.481H299.693V225.436ZM299.788 227.823H302.803V228.901H298.514V223.099H302.701V224.177H299.788V227.823Z" fill="#355E82"/>
<path d="M303.824 228.901V223.099H305.106V228.901H303.824Z" fill="#355E82"/>
<path d="M307.568 228.901V224.193H305.795V223.099H310.623V224.193H308.85V228.901H307.568Z" fill="#355E82"/>
<path d="M310.306 228.901L312.775 223.099H314.042L316.519 228.901H315.173L313.147 223.779H313.654L311.62 228.901H310.306ZM311.541 227.657L311.881 226.638H314.73L315.078 227.657H311.541Z" fill="#355E82"/>
<path d="M317.093 228.901V223.099H319.491C319.987 223.099 320.415 223.185 320.773 223.356C321.132 223.522 321.409 223.762 321.604 224.077C321.8 224.392 321.897 224.768 321.897 225.204C321.897 225.635 321.8 226.008 321.604 226.323C321.409 226.633 321.132 226.87 320.773 227.036C320.415 227.202 319.987 227.285 319.491 227.285H317.806L318.375 226.696V228.901H317.093ZM320.615 228.901L319.23 226.796H320.599L322 228.901H320.615ZM318.375 226.845L317.806 226.215H319.42C319.816 226.215 320.111 226.127 320.306 225.95C320.502 225.768 320.599 225.519 320.599 225.204C320.599 224.884 320.502 224.635 320.306 224.459C320.111 224.282 319.816 224.193 319.42 224.193H317.806L318.375 223.555V226.845Z" fill="#355E82"/>
</svg>
