<svg width="52" height="52" viewBox="0 0 52 52" fill="none" xmlns="http://www.w3.org/2000/svg">
<circle cx="26" cy="26" r="26" fill="#101010"/>
<path d="M26 35.625C23.4473 35.625 20.9991 34.6109 19.1941 32.8059C17.3891 31.0009 16.375 28.5527 16.375 26C16.375 23.4473 17.3891 20.9991 19.1941 19.1941C20.9991 17.3891 23.4473 16.375 26 16.375C28.5527 16.375 31.0009 17.3891 32.8059 19.1941C34.6109 20.9991 35.625 23.4473 35.625 26C35.625 28.5527 34.6109 31.0009 32.8059 32.8059C31.0009 34.6109 28.5527 35.625 26 35.625ZM26 37C28.9174 37 31.7153 35.8411 33.7782 33.7782C35.8411 31.7153 37 28.9174 37 26C37 23.0826 35.8411 20.2847 33.7782 18.2218C31.7153 16.1589 28.9174 15 26 15C23.0826 15 20.2847 16.1589 18.2218 18.2218C16.1589 20.2847 15 23.0826 15 26C15 28.9174 16.1589 31.7153 18.2218 33.7782C20.2847 35.8411 23.0826 37 26 37Z" fill="#599DD9"/>
<path d="M30.0838 21.8337C30.074 21.8432 30.0648 21.8533 30.0562 21.864L25.2809 27.9484L22.403 25.0691C22.2075 24.887 21.9489 24.7878 21.6818 24.7925C21.4146 24.7972 21.1597 24.9055 20.9708 25.0944C20.7818 25.2833 20.6736 25.5382 20.6689 25.8054C20.6642 26.0726 20.7633 26.3311 20.9455 26.5266L24.5837 30.1662C24.6818 30.2641 24.7985 30.3412 24.9269 30.3929C25.0554 30.4447 25.1929 30.47 25.3314 30.4675C25.4699 30.4649 25.6064 30.4345 25.7328 30.378C25.8593 30.3215 25.9731 30.2401 26.0674 30.1388L31.5564 23.2775C31.7433 23.0813 31.8455 22.8195 31.8409 22.5486C31.8362 22.2777 31.7252 22.0194 31.5317 21.8298C31.3382 21.6401 31.0779 21.5341 30.8069 21.5349C30.536 21.5356 30.2762 21.643 30.0838 21.8337Z" fill="#599DD9"/>
</svg>
