<svg width="94" height="94" viewBox="0 0 94 94" fill="none" xmlns="http://www.w3.org/2000/svg">
<circle cx="47" cy="47" r="47" fill="#181818"/>
<path d="M57 33.25C57 33.5815 56.8683 33.8995 56.6339 34.1339C56.3995 34.3683 56.0815 34.5 55.75 34.5C55.4185 34.5 55.1005 34.3683 54.8661 34.1339C54.6317 33.8995 54.5 33.5815 54.5 33.25C54.5 32.9185 54.6317 32.6005 54.8661 32.3661C55.1005 32.1317 55.4185 32 55.75 32C56.0815 32 56.3995 32.1317 56.6339 32.3661C56.8683 32.6005 57 32.9185 57 33.25ZM57 60.75C57 61.0815 56.8683 61.3995 56.6339 61.6339C56.3995 61.8683 56.0815 62 55.75 62C55.4185 62 55.1005 61.8683 54.8661 61.6339C54.6317 61.3995 54.5 61.0815 54.5 60.75C54.5 60.4185 54.6317 60.1005 54.8661 59.8661C55.1005 59.6317 55.4185 59.5 55.75 59.5C56.0815 59.5 56.3995 59.6317 56.6339 59.8661C56.8683 60.1005 57 60.4185 57 60.75ZM38.25 62C38.5815 62 38.8995 61.8683 39.1339 61.6339C39.3683 61.3995 39.5 61.0815 39.5 60.75C39.5 60.4185 39.3683 60.1005 39.1339 59.8661C38.8995 59.6317 38.5815 59.5 38.25 59.5C37.9185 59.5 37.6005 59.6317 37.3661 59.8661C37.1317 60.1005 37 60.4185 37 60.75C37 61.0815 37.1317 61.3995 37.3661 61.6339C37.6005 61.8683 37.9185 62 38.25 62ZM39.5 33.25C39.5 33.5815 39.3683 33.8995 39.1339 34.1339C38.8995 34.3683 38.5815 34.5 38.25 34.5C37.9185 34.5 37.6005 34.3683 37.3661 34.1339C37.1317 33.8995 37 33.5815 37 33.25C37 32.9185 37.1317 32.6005 37.3661 32.3661C37.6005 32.1317 37.9185 32 38.25 32C38.5815 32 38.8995 32.1317 39.1339 32.3661C39.3683 32.6005 39.5 32.9185 39.5 33.25ZM47 47C47.663 47 48.2989 46.7366 48.7678 46.2678C49.2366 45.7989 49.5 45.163 49.5 44.5C49.5 43.837 49.2366 43.2011 48.7678 42.7322C48.2989 42.2634 47.663 42 47 42C46.337 42 45.7011 42.2634 45.2322 42.7322C44.7634 43.2011 44.5 43.837 44.5 44.5C44.5 45.163 44.7634 45.7989 45.2322 46.2678C45.7011 46.7366 46.337 47 47 47Z" fill="#599DD9"/>
<path d="M57 44.5C57.0003 47.1251 55.9684 49.6451 54.127 51.516C52.2855 53.3869 49.7823 54.4587 47.1575 54.5C45.815 56.5325 44.6075 58.2875 44.205 58.6925C43.6882 59.2097 42.987 59.5003 42.2559 59.5006C41.5247 59.5008 40.8234 59.2106 40.3063 58.6937C39.7891 58.1769 39.4984 57.4758 39.4982 56.7446C39.4979 56.0135 39.7882 55.3122 40.305 54.795C40.555 54.55 41.295 54.01 42.2925 53.325C40.3238 52.2758 38.7625 50.5985 37.8568 48.5598C36.9512 46.5212 36.7532 44.2382 37.2943 42.074C37.8355 39.9099 39.0848 37.9888 40.8435 36.6164C42.6021 35.244 44.7692 34.499 47 34.5C49.6522 34.5 52.1957 35.5536 54.0711 37.4289C55.9464 39.3043 57 41.8478 57 44.5ZM54.5 44.5C54.4998 43.1129 54.115 41.7529 53.3882 40.5714C52.6614 39.3899 51.6212 38.4331 50.3832 37.8074C49.1452 37.1816 47.758 36.9115 46.3756 37.027C44.9933 37.1424 43.6701 37.639 42.5531 38.4615C41.4361 39.2839 40.569 40.4001 40.0484 41.6858C39.5277 42.9715 39.3738 44.3765 39.6038 45.7444C39.8338 47.1124 40.4386 48.3897 41.3511 49.4345C42.2636 50.4793 43.4479 51.2505 44.7725 51.6625C46.44 50.5625 48.2625 49.3875 49.66 48.4925C50.22 48.1325 50.8675 48.78 50.51 49.3425L48.96 51.7425C50.5507 51.3114 51.9552 50.3685 52.9565 49.0595C53.9578 47.7504 54.5003 46.1481 54.5 44.5Z" fill="#599DD9"/>
<path d="M32 32C32 30.6739 32.5268 29.4021 33.4645 28.4645C34.4021 27.5268 35.6739 27 37 27H57C58.3261 27 59.5979 27.5268 60.5355 28.4645C61.4732 29.4021 62 30.6739 62 32V62C62 63.3261 61.4732 64.5979 60.5355 65.5355C59.5979 66.4732 58.3261 67 57 67H37C35.6739 67 34.4021 66.4732 33.4645 65.5355C32.5268 64.5979 32 63.3261 32 62V32ZM37 29.5C36.337 29.5 35.7011 29.7634 35.2322 30.2322C34.7634 30.7011 34.5 31.337 34.5 32V62C34.5 62.663 34.7634 63.2989 35.2322 63.7678C35.7011 64.2366 36.337 64.5 37 64.5H57C57.663 64.5 58.2989 64.2366 58.7678 63.7678C59.2366 63.2989 59.5 62.663 59.5 62V32C59.5 31.337 59.2366 30.7011 58.7678 30.2322C58.2989 29.7634 57.663 29.5 57 29.5H37Z" fill="#599DD9"/>
</svg>
