<svg width="36" height="36" viewBox="0 0 36 36" fill="none" xmlns="http://www.w3.org/2000/svg">
<path d="M16.74 32.4L25.74 14.85H19.44V3.6L10.44 21.15H16.74V32.4ZM18 36C15.51 36 13.17 35.5272 10.98 34.5816C8.79 33.6372 6.885 32.355 5.265 30.735C3.645 29.115 2.3628 27.21 1.4184 25.02C0.4728 22.83 0 20.49 0 18C0 15.51 0.4728 13.17 1.4184 10.98C2.3628 8.79 3.645 6.885 5.265 5.265C6.885 3.645 8.79 2.3622 10.98 1.4166C13.17 0.4722 15.51 0 18 0C20.49 0 22.83 0.4722 25.02 1.4166C27.21 2.3622 29.115 3.645 30.735 5.265C32.355 6.885 33.6372 8.79 34.5816 10.98C35.5272 13.17 36 15.51 36 18C36 20.49 35.5272 22.83 34.5816 25.02C33.6372 27.21 32.355 29.115 30.735 30.735C29.115 32.355 27.21 33.6372 25.02 34.5816C22.83 35.5272 20.49 36 18 36ZM18 32.4C21.99 32.4 25.3878 30.9978 28.1934 28.1934C30.9978 25.3878 32.4 21.99 32.4 18C32.4 14.01 30.9978 10.6122 28.1934 7.8066C25.3878 5.0022 21.99 3.6 18 3.6C14.01 3.6 10.6128 5.0022 7.8084 7.8066C5.0028 10.6122 3.6 14.01 3.6 18C3.6 21.99 5.0028 25.3878 7.8084 28.1934C10.6128 30.9978 14.01 32.4 18 32.4Z" fill="#599DD9"/>
</svg>
