<svg width="94" height="94" viewBox="0 0 94 94" fill="none" xmlns="http://www.w3.org/2000/svg">
<circle cx="47" cy="47" r="47" fill="#181818"/>
<path d="M45.74 61.4L54.74 43.85H48.44V32.6L39.44 50.15H45.74V61.4ZM47 65C44.51 65 42.17 64.5272 39.98 63.5816C37.79 62.6372 35.885 61.355 34.265 59.735C32.645 58.115 31.3628 56.21 30.4184 54.02C29.4728 51.83 29 49.49 29 47C29 44.51 29.4728 42.17 30.4184 39.98C31.3628 37.79 32.645 35.885 34.265 34.265C35.885 32.645 37.79 31.3622 39.98 30.4166C42.17 29.4722 44.51 29 47 29C49.49 29 51.83 29.4722 54.02 30.4166C56.21 31.3622 58.115 32.645 59.735 34.265C61.355 35.885 62.6372 37.79 63.5816 39.98C64.5272 42.17 65 44.51 65 47C65 49.49 64.5272 51.83 63.5816 54.02C62.6372 56.21 61.355 58.115 59.735 59.735C58.115 61.355 56.21 62.6372 54.02 63.5816C51.83 64.5272 49.49 65 47 65ZM47 61.4C50.99 61.4 54.3878 59.9978 57.1934 57.1934C59.9978 54.3878 61.4 50.99 61.4 47C61.4 43.01 59.9978 39.6122 57.1934 36.8066C54.3878 34.0022 50.99 32.6 47 32.6C43.01 32.6 39.6128 34.0022 36.8084 36.8066C34.0028 39.6122 32.6 43.01 32.6 47C32.6 50.99 34.0028 54.3878 36.8084 57.1934C39.6128 59.9978 43.01 61.4 47 61.4Z" fill="#599DD9"/>
</svg>
