<svg width="30" height="40" viewBox="0 0 30 40" fill="none" xmlns="http://www.w3.org/2000/svg">
<path d="M25 6.25C25 6.58152 24.8683 6.89946 24.6339 7.13388C24.3995 7.3683 24.0815 7.5 23.75 7.5C23.4185 7.5 23.1005 7.3683 22.8661 7.13388C22.6317 6.89946 22.5 6.58152 22.5 6.25C22.5 5.91848 22.6317 5.60054 22.8661 5.36612C23.1005 5.1317 23.4185 5 23.75 5C24.0815 5 24.3995 5.1317 24.6339 5.36612C24.8683 5.60054 25 5.91848 25 6.25ZM25 33.75C25 34.0815 24.8683 34.3995 24.6339 34.6339C24.3995 34.8683 24.0815 35 23.75 35C23.4185 35 23.1005 34.8683 22.8661 34.6339C22.6317 34.3995 22.5 34.0815 22.5 33.75C22.5 33.4185 22.6317 33.1005 22.8661 32.8661C23.1005 32.6317 23.4185 32.5 23.75 32.5C24.0815 32.5 24.3995 32.6317 24.6339 32.8661C24.8683 33.1005 25 33.4185 25 33.75ZM6.25 35C6.58152 35 6.89946 34.8683 7.13388 34.6339C7.3683 34.3995 7.5 34.0815 7.5 33.75C7.5 33.4185 7.3683 33.1005 7.13388 32.8661C6.89946 32.6317 6.58152 32.5 6.25 32.5C5.91848 32.5 5.60054 32.6317 5.36612 32.8661C5.1317 33.1005 5 33.4185 5 33.75C5 34.0815 5.1317 34.3995 5.36612 34.6339C5.60054 34.8683 5.91848 35 6.25 35ZM7.5 6.25C7.5 6.58152 7.3683 6.89946 7.13388 7.13388C6.89946 7.3683 6.58152 7.5 6.25 7.5C5.91848 7.5 5.60054 7.3683 5.36612 7.13388C5.1317 6.89946 5 6.58152 5 6.25C5 5.91848 5.1317 5.60054 5.36612 5.36612C5.60054 5.1317 5.91848 5 6.25 5C6.58152 5 6.89946 5.1317 7.13388 5.36612C7.3683 5.60054 7.5 5.91848 7.5 6.25ZM15 20C15.663 20 16.2989 19.7366 16.7678 19.2678C17.2366 18.7989 17.5 18.163 17.5 17.5C17.5 16.837 17.2366 16.2011 16.7678 15.7322C16.2989 15.2634 15.663 15 15 15C14.337 15 13.7011 15.2634 13.2322 15.7322C12.7634 16.2011 12.5 16.837 12.5 17.5C12.5 18.163 12.7634 18.7989 13.2322 19.2678C13.7011 19.7366 14.337 20 15 20Z" fill="#599DD9"/>
<path d="M25 17.5C25.0003 20.1251 23.9684 22.6451 22.127 24.516C20.2855 26.3869 17.7823 27.4587 15.1575 27.5C13.815 29.5325 12.6075 31.2875 12.205 31.6925C11.6882 32.2097 10.987 32.5003 10.2559 32.5006C9.52473 32.5008 8.82342 32.2106 8.30625 31.6937C7.78908 31.1769 7.4984 30.4758 7.49817 29.7446C7.49793 29.0135 7.78816 28.3122 8.305 27.795C8.555 27.55 9.295 27.01 10.2925 26.325C8.32382 25.2758 6.76249 23.5985 5.85682 21.5598C4.95115 19.5212 4.75317 17.2382 5.29435 15.074C5.83553 12.9099 7.0848 10.9888 8.84347 9.6164C10.6021 8.24399 12.7692 7.49902 15 7.5C17.6522 7.5 20.1957 8.55357 22.0711 10.4289C23.9464 12.3043 25 14.8478 25 17.5ZM22.5 17.5C22.4998 16.1129 22.115 14.7529 21.3882 13.5714C20.6614 12.3899 19.6212 11.4331 18.3832 10.8074C17.1452 10.1816 15.758 9.91148 14.3756 10.027C12.9933 10.1424 11.6701 10.639 10.5531 11.4615C9.43606 12.2839 8.56903 13.4001 8.04837 14.6858C7.52771 15.9715 7.37382 17.3765 7.6038 18.7444C7.83379 20.1124 8.43864 21.3897 9.35112 22.4345C10.2636 23.4793 11.4479 24.2505 12.7725 24.6625C14.44 23.5625 16.2625 22.3875 17.66 21.4925C18.22 21.1325 18.8675 21.78 18.51 22.3425L16.96 24.7425C18.5507 24.3114 19.9552 23.3685 20.9565 22.0595C21.9578 20.7504 22.5003 19.1481 22.5 17.5Z" fill="#599DD9"/>
<path d="M0 5C0 3.67392 0.526784 2.40215 1.46447 1.46447C2.40215 0.526784 3.67392 0 5 0H25C26.3261 0 27.5979 0.526784 28.5355 1.46447C29.4732 2.40215 30 3.67392 30 5V35C30 36.3261 29.4732 37.5979 28.5355 38.5355C27.5979 39.4732 26.3261 40 25 40H5C3.67392 40 2.40215 39.4732 1.46447 38.5355C0.526784 37.5979 0 36.3261 0 35V5ZM5 2.5C4.33696 2.5 3.70107 2.76339 3.23223 3.23223C2.76339 3.70107 2.5 4.33696 2.5 5V35C2.5 35.663 2.76339 36.2989 3.23223 36.7678C3.70107 37.2366 4.33696 37.5 5 37.5H25C25.663 37.5 26.2989 37.2366 26.7678 36.7678C27.2366 36.2989 27.5 35.663 27.5 35V5C27.5 4.33696 27.2366 3.70107 26.7678 3.23223C26.2989 2.76339 25.663 2.5 25 2.5H5Z" fill="#599DD9"/>
</svg>
