<svg width="94" height="94" viewBox="0 0 94 94" fill="none" xmlns="http://www.w3.org/2000/svg">
<circle cx="47" cy="47" r="47" fill="#181818"/>
<path d="M26 65L62 29V39.8H58.4V37.73L34.73 61.4H54.8V65H26ZM60.2 65C59.69 65 59.2628 64.8272 58.9184 64.4816C58.5728 64.1372 58.4 63.71 58.4 63.2C58.4 62.69 58.5728 62.2628 58.9184 61.9184C59.2628 61.5728 59.69 61.4 60.2 61.4C60.71 61.4 61.1372 61.5728 61.4816 61.9184C61.8272 62.2628 62 62.69 62 63.2C62 63.71 61.8272 64.1372 61.4816 64.4816C61.1372 64.8272 60.71 65 60.2 65ZM58.4 57.8V43.4H62V57.8H58.4Z" fill="#599DD9"/>
</svg>
