<svg width="94" height="94" viewBox="0 0 94 94" fill="none" xmlns="http://www.w3.org/2000/svg">
<circle cx="47" cy="47" r="47" fill="#181818"/>
<path d="M64.5226 48.3597C64.3176 48.5185 64.0652 48.603 63.8064 48.5997C63.6212 48.5997 63.4384 48.5563 63.2727 48.473C63.1069 48.3897 62.9628 48.2687 62.8516 48.1197C62.1322 47.1476 61.1958 46.3588 60.1179 45.8169C59.0399 45.2751 57.8504 44.9952 56.6452 44.9999C56.3286 44.9999 56.025 44.8735 55.8012 44.6485C55.5774 44.4234 55.4516 44.1182 55.4516 43.8C55.4516 43.4818 55.5774 43.1766 55.8012 42.9515C56.025 42.7265 56.3286 42.6001 56.6452 42.6001C57.3244 42.5993 57.9895 42.4044 58.5627 42.0379C59.1359 41.6715 59.5936 41.1487 59.8824 40.5305C60.1711 39.9124 60.279 39.2244 60.1935 38.5469C60.1079 37.8695 59.8324 37.2304 59.3992 36.7044C58.9659 36.1785 58.3928 35.7872 57.7467 35.5764C57.1006 35.3656 56.4082 35.3439 55.7503 35.5138C55.0923 35.6838 54.4961 36.0384 54.0311 36.5362C53.5661 37.034 53.2516 37.6546 53.1242 38.3254C53.101 38.4858 53.0458 38.6398 52.9618 38.7781C52.8778 38.9165 52.7668 39.0363 52.6355 39.1303C52.5041 39.2244 52.3552 39.2907 52.1977 39.3253C52.0402 39.3599 51.8774 39.362 51.719 39.3316C51.5607 39.3012 51.4101 39.2388 51.2763 39.1483C51.1426 39.0577 51.0285 38.9409 50.9409 38.8048C50.8534 38.6687 50.7941 38.5162 50.7668 38.3565C50.7394 38.1967 50.7446 38.0331 50.7819 37.8754C50.9589 36.9422 51.3539 36.0646 51.9343 35.3149C52.5146 34.5651 53.2638 33.9647 54.1201 33.5629C54.9765 33.1611 55.9154 32.9696 56.8598 33.0039C57.8042 33.0383 58.7269 33.2976 59.5521 33.7606C60.3773 34.2236 61.0813 34.8769 61.6062 35.6669C62.1312 36.4569 62.462 37.3609 62.5715 38.3045C62.6809 39.2481 62.566 40.2044 62.236 41.0946C61.906 41.9848 61.3704 42.7836 60.6734 43.425C62.2955 44.1321 63.705 45.2543 64.7613 46.6798C64.8553 46.8059 64.9238 46.9493 64.9627 47.1019C65.0016 47.2546 65.0102 47.4134 64.988 47.5694C64.9658 47.7254 64.9133 47.8755 64.8335 48.0111C64.7536 48.1467 64.648 48.2651 64.5226 48.3597ZM56.1677 58.274C56.3024 58.561 56.3201 58.8896 56.2169 59.1895C56.1138 59.4894 55.898 59.7368 55.6157 59.8789C55.4511 59.9526 55.2737 59.9934 55.0935 59.9989C54.8699 59.9973 54.6511 59.9334 54.4614 59.8142C54.2718 59.6951 54.1187 59.5253 54.0194 59.3239C53.3311 57.9085 52.2614 56.7158 50.9321 55.8816C49.6027 55.0473 48.0671 54.605 46.5 54.605C44.9329 54.605 43.3973 55.0473 42.0679 55.8816C40.7386 56.7158 39.6689 57.9085 38.9806 59.3239C38.9122 59.4658 38.8165 59.5927 38.6992 59.6974C38.5819 59.8021 38.4452 59.8826 38.2969 59.9341C38.1486 59.9857 37.9917 60.0073 37.8351 59.9978C37.6785 59.9884 37.5253 59.9479 37.3843 59.8789C37.102 59.7368 36.8862 59.4894 36.7831 59.1895C36.6799 58.8896 36.6976 58.561 36.8323 58.274C37.9415 55.9778 39.8229 54.1501 42.1436 53.1144C40.9557 52.199 40.0829 50.9326 39.6479 49.4929C39.2129 48.0533 39.2374 46.5128 39.7181 45.0879C40.1988 43.663 41.1115 42.4253 42.3279 41.5487C43.5443 40.6721 45.0034 40.2007 46.5 40.2007C47.9966 40.2007 49.4557 40.6721 50.6721 41.5487C51.8885 42.4253 52.8012 43.663 53.2819 45.0879C53.7626 46.5128 53.7871 48.0533 53.3521 49.4929C52.9171 50.9326 52.0443 52.199 50.8565 53.1144C53.1771 54.1501 55.0585 55.9778 56.1677 58.274ZM46.5 52.1994C47.4442 52.1994 48.3673 51.9179 49.1524 51.3905C49.9375 50.8631 50.5494 50.1135 50.9108 49.2365C51.2721 48.3595 51.3667 47.3944 51.1825 46.4634C50.9982 45.5323 50.5435 44.6771 49.8759 44.0059C49.2082 43.3346 48.3575 42.8775 47.4314 42.6923C46.5053 42.5071 45.5454 42.6022 44.673 42.9654C43.8006 43.3287 43.055 43.9439 42.5304 44.7332C42.0058 45.5225 41.7258 46.4505 41.7258 47.3997C41.7297 48.6715 42.234 49.89 43.1285 50.7893C44.023 51.6885 45.235 52.1955 46.5 52.1994ZM37.5484 43.8C37.5484 43.4818 37.4226 43.1766 37.1988 42.9515C36.975 42.7265 36.6714 42.6001 36.3548 42.6001C35.6756 42.5993 35.0105 42.4044 34.4373 42.0379C33.8641 41.6715 33.4064 41.1487 33.1176 40.5305C32.8289 39.9124 32.721 39.2244 32.8065 38.5469C32.8921 37.8695 33.1676 37.2304 33.6008 36.7044C34.0341 36.1785 34.6072 35.7872 35.2533 35.5764C35.8994 35.3656 36.5918 35.3439 37.2498 35.5138C37.9077 35.6838 38.5039 36.0384 38.9689 36.5362C39.4339 37.034 39.7484 37.6546 39.8758 38.3254C39.899 38.4858 39.9542 38.6398 40.0382 38.7781C40.1222 38.9165 40.2332 39.0363 40.3645 39.1303C40.4959 39.2244 40.6448 39.2907 40.8023 39.3253C40.9598 39.3599 41.1226 39.362 41.281 39.3316C41.4394 39.3012 41.5899 39.2388 41.7237 39.1483C41.8574 39.0577 41.9715 38.9409 42.0591 38.8048C42.1466 38.6687 42.2059 38.5162 42.2332 38.3565C42.2606 38.1967 42.2554 38.0331 42.2181 37.8754C42.0411 36.9422 41.6461 36.0646 41.0657 35.3149C40.4854 34.5651 39.7362 33.9647 38.8799 33.5629C38.0235 33.1611 37.0846 32.9696 36.1402 33.0039C35.1958 33.0383 34.2731 33.2976 33.4479 33.7606C32.6227 34.2236 31.9187 34.8769 31.3938 35.6669C30.8689 36.4569 30.538 37.3609 30.4286 38.3045C30.3191 39.2481 30.4341 40.2044 30.764 41.0946C31.094 41.9848 31.6296 42.7836 32.3266 43.425C30.7045 44.1321 29.295 45.2543 28.2387 46.6798C28.0488 46.9344 27.9672 47.2544 28.012 47.5694C28.0568 47.8845 28.2242 48.1687 28.4774 48.3597C28.6824 48.5185 28.9348 48.603 29.1936 48.5997C29.3788 48.5997 29.5616 48.5563 29.7273 48.473C29.8931 48.3897 30.0372 48.2687 30.1484 48.1197C30.8678 47.1476 31.8042 46.3588 32.8822 45.8169C33.9601 45.2751 35.1496 44.9952 36.3548 44.9999C36.6714 44.9999 36.975 44.8735 37.1988 44.6485C37.4226 44.4234 37.5484 44.1182 37.5484 43.8Z" fill="#599DD9"/>
</svg>
