<svg width="580" height="433" viewBox="0 0 580 433" fill="none" xmlns="http://www.w3.org/2000/svg">
<path d="M580 379.784H0V380.074H580V379.784Z" fill="#EBEBEB"/>
<path d="M521.884 398.448H483.465V398.738H521.884V398.448Z" fill="#EBEBEB"/>
<path d="M384.215 401.604H374.135V401.894H384.215V401.604Z" fill="#EBEBEB"/>
<path d="M482.305 387.684H460.044V387.974H482.305V387.684Z" fill="#EBEBEB"/>
<path d="M110.954 389.633H60.8536V389.923H110.954V389.633Z" fill="#EBEBEB"/>
<path d="M128.632 389.633H121.29V389.923H128.632V389.633Z" fill="#EBEBEB"/>
<path d="M261.174 394.527H152.505V394.817H261.174V394.527Z" fill="#EBEBEB"/>
<path d="M274.92 328.048H50.9356C49.1809 328.045 47.4992 327.346 46.2595 326.104C45.0199 324.862 44.3236 323.179 44.3236 321.424V6.5656C44.3389 4.82099 45.0419 3.15286 46.2799 1.92353C47.5179 0.694212 49.1909 0.00298861 50.9356 0H274.92C276.677 0 278.361 0.697842 279.604 1.94001C280.846 3.18217 281.544 4.86691 281.544 6.6236V321.424C281.544 323.181 280.846 324.866 279.604 326.108C278.361 327.35 276.677 328.048 274.92 328.048ZM50.9356 0.232001C49.2578 0.235074 47.6498 0.903716 46.4646 2.09116C45.2793 3.27861 44.6136 4.88783 44.6136 6.5656V321.424C44.6136 323.102 45.2793 324.711 46.4646 325.899C47.6498 327.086 49.2578 327.755 50.9356 327.758H274.92C276.599 327.755 278.208 327.087 279.395 325.9C280.582 324.712 281.251 323.103 281.254 321.424V6.5656C281.251 4.88677 280.582 3.27757 279.395 2.09046C278.208 0.903339 276.599 0.235067 274.92 0.232001H50.9356Z" fill="#EBEBEB"/>
<path d="M525.84 328.048H301.844C300.088 328.045 298.405 327.346 297.163 326.105C295.922 324.863 295.223 323.18 295.22 321.424V6.5656C295.238 4.81993 295.944 3.15181 297.184 1.92281C298.424 0.693806 300.098 0.00295602 301.844 0H525.84C527.582 0.00603722 529.252 0.698609 530.488 1.9276C531.723 3.1566 532.425 4.82299 532.44 6.5656V321.424C532.44 323.177 531.745 324.858 530.508 326.1C529.271 327.341 527.592 328.042 525.84 328.048ZM301.844 0.232001C300.165 0.235067 298.556 0.903339 297.368 2.09046C296.181 3.27757 295.513 4.88677 295.51 6.5656V321.424C295.513 323.103 296.181 324.712 297.368 325.9C298.556 327.087 300.165 327.755 301.844 327.758H525.84C527.518 327.755 529.128 327.087 530.315 325.9C531.502 324.712 532.17 323.103 532.173 321.424V6.5656C532.17 4.88677 531.502 3.27757 530.315 2.09046C529.128 0.903339 527.518 0.235067 525.84 0.232001H301.844Z" fill="#EBEBEB"/>
<path d="M258.32 149.327H76.734V379.262H258.32V149.327Z" fill="#F0F0F0"/>
<path d="M251.894 157.714H83.1488V206.886H251.894V157.714Z" fill="#E0E0E0"/>
<path d="M92.7304 165.671H83.1488V206.874H92.7304V165.671Z" fill="#EBEBEB"/>
<path d="M139.084 165.671H129.502V206.874H139.084V165.671Z" fill="#EBEBEB"/>
<path d="M191.702 164.624L182.259 166.252L189.258 206.856L198.701 205.229L191.702 164.624Z" fill="#EBEBEB"/>
<path d="M104.609 171.1H95.0272V206.874H104.609V171.1Z" fill="#EBEBEB"/>
<path d="M126.637 171.1H117.056V206.874H126.637V171.1Z" fill="#EBEBEB"/>
<path d="M182.248 171.1H172.666V206.874H182.248V171.1Z" fill="#EBEBEB"/>
<path d="M151.672 169.868L142.318 171.946L150.08 206.869L159.433 204.79L151.672 169.868Z" fill="#EBEBEB"/>
<path d="M112.903 163.618H108.112V206.875H112.903V163.618Z" fill="#EBEBEB"/>
<path d="M169.917 163.618H165.126V206.875H169.917V163.618Z" fill="#EBEBEB"/>
<path d="M83.1488 263.83H251.894V214.658L83.1488 214.658V263.83Z" fill="#E0E0E0"/>
<path d="M242.312 263.83H251.894V222.627H242.312V263.83Z" fill="#EBEBEB"/>
<path d="M195.959 263.83H205.54V222.627H195.959V263.83Z" fill="#EBEBEB"/>
<path d="M136.344 262.208L145.786 263.836L152.785 223.232L143.343 221.604L136.344 262.208Z" fill="#EBEBEB"/>
<path d="M230.422 263.83H240.004V228.056H230.422V263.83Z" fill="#EBEBEB"/>
<path d="M208.406 263.83H217.987V228.056H208.406V263.83Z" fill="#EBEBEB"/>
<path d="M152.784 263.83H162.365V228.056H152.784V263.83Z" fill="#EBEBEB"/>
<path d="M175.623 261.744L184.977 263.822L192.738 228.9L183.385 226.821L175.623 261.744Z" fill="#EBEBEB"/>
<path d="M222.14 263.83H226.931V220.574H222.14V263.83Z" fill="#EBEBEB"/>
<path d="M165.126 263.83H169.917V220.574H165.126V263.83Z" fill="#EBEBEB"/>
<path d="M92.7304 222.627H83.1488V263.83H92.7304V222.627Z" fill="#EBEBEB"/>
<path d="M104.609 228.057H95.0272V263.831H104.609V228.057Z" fill="#EBEBEB"/>
<path d="M126.637 228.057H117.056V263.831H126.637V228.057Z" fill="#EBEBEB"/>
<path d="M112.903 220.573H108.112V263.83H112.903V220.573Z" fill="#EBEBEB"/>
<path d="M251.894 271.614H83.1488V320.787H251.894V271.614Z" fill="#E0E0E0"/>
<path d="M189.579 279.571H179.997V320.774H189.579V279.571Z" fill="#EBEBEB"/>
<path d="M242.206 278.534L232.763 280.161L239.762 320.766L249.205 319.138L242.206 278.534Z" fill="#EBEBEB"/>
<path d="M155.104 285.012H145.522V320.786H155.104V285.012Z" fill="#EBEBEB"/>
<path d="M177.144 285.012H167.562V320.786H177.144V285.012Z" fill="#EBEBEB"/>
<path d="M232.754 285.012H223.172V320.786H232.754V285.012Z" fill="#EBEBEB"/>
<path d="M202.187 283.774L192.833 285.853L200.595 320.775L209.948 318.696L202.187 283.774Z" fill="#EBEBEB"/>
<path d="M163.398 277.53H158.607V320.787H163.398V277.53Z" fill="#EBEBEB"/>
<path d="M220.412 277.53H215.621V320.787H220.412V277.53Z" fill="#EBEBEB"/>
<path d="M131.926 278.544L122.484 280.172L129.483 320.776L138.925 319.149L131.926 278.544Z" fill="#EBEBEB"/>
<path d="M122.473 285.012H112.891V320.786H122.473V285.012Z" fill="#EBEBEB"/>
<path d="M91.8992 283.78L82.5458 285.858L90.3071 320.781L99.6605 318.702L91.8992 283.78Z" fill="#EBEBEB"/>
<path d="M110.13 277.53H105.34V320.787H110.13V277.53Z" fill="#EBEBEB"/>
<path d="M354.125 242.011H456.46C459.103 242.011 461.721 242.532 464.162 243.546C466.603 244.559 468.821 246.044 470.687 247.916C472.554 249.788 474.032 252.009 475.039 254.454C476.045 256.898 476.559 259.517 476.551 262.16V342.061H334.08V262.16C334.068 256.83 336.172 251.714 339.931 247.936C343.69 244.157 348.795 242.026 354.125 242.011Z" fill="#E6E6E6"/>
<path d="M303.781 301.24H322.086C323.659 301.234 325.219 301.539 326.675 302.138C328.131 302.736 329.454 303.616 330.568 304.727C331.683 305.839 332.567 307.159 333.169 308.613C333.772 310.067 334.082 311.626 334.08 313.2V379.32H291.833V313.2C291.831 311.63 292.139 310.075 292.739 308.624C293.339 307.173 294.219 305.855 295.328 304.744C296.438 303.633 297.755 302.752 299.206 302.151C300.656 301.55 302.211 301.24 303.781 301.24Z" fill="#E0E0E0"/>
<path d="M303.781 301.24H304.164C305.734 301.24 307.288 301.55 308.739 302.151C310.189 302.752 311.507 303.633 312.616 304.744C313.726 305.855 314.606 307.173 315.205 308.624C315.805 310.075 316.113 311.63 316.112 313.2V379.32H291.833V313.2C291.831 311.63 292.139 310.075 292.739 308.624C293.339 307.173 294.219 305.855 295.328 304.744C296.438 303.633 297.755 302.752 299.206 302.151C300.656 301.55 302.211 301.24 303.781 301.24Z" fill="#EBEBEB"/>
<path d="M461.645 348.904H321.216V379.262H461.645V348.904Z" fill="#E6E6E6"/>
<path d="M456.448 321.146H321.018C314.311 321.146 308.873 326.584 308.873 333.292V340.843C308.873 347.551 314.311 352.988 321.018 352.988H456.448C463.156 352.988 468.594 347.551 468.594 340.843V333.292C468.594 326.584 463.156 321.146 456.448 321.146Z" fill="#F5F5F5"/>
<path d="M456.216 321.146H439.431C432.724 321.146 427.286 326.584 427.286 333.292V340.843C427.286 347.551 432.724 352.988 439.431 352.988H456.216C462.924 352.988 468.362 347.551 468.362 340.843V333.292C468.362 326.584 462.924 321.146 456.216 321.146Z" fill="#E0E0E0"/>
<path d="M458.038 301.24H476.354C477.923 301.24 479.478 301.55 480.927 302.151C482.377 302.752 483.694 303.634 484.803 304.745C485.911 305.855 486.79 307.174 487.388 308.625C487.987 310.076 488.293 311.63 488.29 313.2V379.32H446.101V313.2C446.098 311.63 446.405 310.076 447.003 308.625C447.602 307.174 448.48 305.855 449.589 304.745C450.698 303.634 452.015 302.752 453.464 302.151C454.914 301.55 456.468 301.24 458.038 301.24Z" fill="#E0E0E0"/>
<path d="M458.038 301.24H458.432C460.001 301.24 461.556 301.55 463.005 302.151C464.455 302.752 465.772 303.634 466.881 304.745C467.989 305.855 468.868 307.174 469.466 308.625C470.065 310.076 470.371 311.63 470.368 313.2V379.32H446.101V313.2C446.098 311.63 446.405 310.076 447.003 308.625C447.602 307.174 448.48 305.855 449.589 304.745C450.698 303.634 452.015 302.752 453.464 302.151C454.914 301.55 456.468 301.24 458.038 301.24Z" fill="#F0F0F0"/>
<path d="M174.297 121.375C189.189 118.958 199.302 104.926 196.885 90.0332C194.467 75.1408 180.435 65.0278 165.542 67.4452C150.65 69.8626 140.537 83.8949 142.954 98.7873C145.372 113.68 159.404 123.793 174.297 121.375Z" fill="#E0E0E0"/>
<path d="M173.642 117.345C186.309 115.289 194.91 103.354 192.854 90.6872C190.798 78.0208 178.863 69.4194 166.197 71.4754C153.53 73.5315 144.929 85.4664 146.985 98.1328C149.041 110.799 160.976 119.401 173.642 117.345Z" fill="#F0F0F0"/>
<path d="M168.815 110.362V94.1221L158.062 100.212" fill="#F0F0F0"/>
<path d="M168.815 111.523C168.507 111.523 168.212 111.401 167.995 111.183C167.777 110.966 167.655 110.67 167.655 110.363V96.1065L158.63 101.222C158.362 101.372 158.046 101.41 157.75 101.328C157.454 101.245 157.203 101.049 157.052 100.781C156.901 100.515 156.861 100.2 156.942 99.904C157.022 99.6084 157.216 99.3567 157.482 99.2037L168.246 93.1137C168.423 93.0145 168.622 92.9632 168.824 92.9649C169.027 92.9665 169.225 93.0211 169.4 93.1231C169.574 93.2251 169.719 93.3711 169.82 93.5464C169.921 93.7218 169.974 93.9205 169.975 94.1228V110.363C169.975 110.67 169.853 110.966 169.635 111.183C169.417 111.401 169.122 111.523 168.815 111.523Z" fill="#E0E0E0"/>
<path d="M497.188 59.9492H322.318V215.122H497.188V59.9492Z" fill="#E6E6E6"/>
<path d="M492.582 64.2061H326.691V210.958H492.582V64.2061Z" fill="#F0F0F0"/>
<path d="M365.62 64.2061L326.691 210.633V141.833L347.246 64.2061H365.62Z" fill="white"/>
<path d="M379.413 64.2061L340.135 210.958H333.871L373.149 64.2061H379.413Z" fill="white"/>
<path d="M492.582 156.809V180.252L484.636 210.957H478.372L492.582 156.809Z" fill="white"/>
<path d="M384.552 61.5732H381.756V214.241H384.552V61.5732Z" fill="#E6E6E6"/>
<path d="M438.712 61.5732H435.917V214.241H438.712V61.5732Z" fill="#E6E6E6"/>
<path d="M290 432.171C414.216 432.171 514.912 426.292 514.912 419.039C514.912 411.787 414.216 405.908 290 405.908C165.784 405.908 65.0876 411.787 65.0876 419.039C65.0876 426.292 165.784 432.171 290 432.171Z" fill="#F5F5F5"/>
<path d="M466.204 390.027C466.204 390.027 471.714 378.01 465.415 366.154C459.116 354.299 457.295 351.515 461.309 349.079C465.322 346.643 467.167 358.568 467.167 358.568C469.151 353.183 469.355 347.304 467.747 341.794C464.963 333.222 463.211 319.256 467.016 317.759C470.821 316.263 467.747 335.159 471.064 341.632C472.747 337.101 473.835 332.372 474.301 327.561C474.753 320.671 474.046 309.674 477.05 306.855C480.054 304.036 481.992 305.985 479.034 321.181C477.256 330.266 476.274 339.488 476.099 348.743C476.099 348.743 482.63 328.802 487.026 328.222C491.422 327.642 491.411 334.092 487.652 339.695C483.894 345.298 476.644 355.332 475.461 360.494C475.461 360.494 482.641 345.483 489.091 350.054C495.54 354.624 483.476 363.707 478.094 366.99C472.712 370.272 468.976 390.781 468.976 390.781L466.204 390.027Z" fill="#599DD9"/>
<path opacity="0.2" d="M466.204 390.027C466.204 390.027 471.714 378.01 465.415 366.154C459.116 354.299 457.295 351.515 461.309 349.079C465.322 346.643 467.167 358.568 467.167 358.568C469.151 353.183 469.355 347.304 467.747 341.794C464.963 333.222 463.211 319.256 467.016 317.759C470.821 316.263 467.747 335.159 471.064 341.632C472.747 337.101 473.835 332.372 474.301 327.561C474.753 320.671 474.046 309.674 477.05 306.855C480.054 304.036 481.992 305.985 479.034 321.181C477.256 330.266 476.274 339.488 476.099 348.743C476.099 348.743 482.63 328.802 487.026 328.222C491.422 327.642 491.411 334.092 487.652 339.695C483.894 345.298 476.644 355.332 475.461 360.494C475.461 360.494 482.641 345.483 489.091 350.054C495.54 354.624 483.476 363.707 478.094 366.99C472.712 370.272 468.976 390.781 468.976 390.781L466.204 390.027Z" fill="black"/>
<path d="M470.554 394.957C470.554 394.957 465.183 382.858 471.621 371.096C478.059 359.334 479.915 356.573 475.936 354.09C471.958 351.608 469.962 363.486 469.962 363.486C468.04 358.081 467.906 352.201 469.58 346.713C472.468 338.175 474.394 324.232 470.6 322.678C466.807 321.123 469.661 340.078 466.274 346.492C464.644 341.939 463.611 337.194 463.2 332.375C462.828 325.485 463.675 314.5 460.694 311.634C457.713 308.769 455.764 310.695 458.548 325.937C460.215 335.039 461.085 344.269 461.146 353.522C461.146 353.522 454.848 333.489 450.474 332.851C446.101 332.213 446.02 338.651 449.709 344.312C453.398 349.972 460.52 360.111 461.68 365.284C461.68 365.284 454.72 350.204 448.178 354.682C441.635 359.16 453.63 368.416 458.966 371.78C464.302 375.144 467.805 395.711 467.805 395.711L470.554 394.957Z" fill="#599DD9"/>
<path d="M445.8 386.327H490.123L486.539 418.053H449.384L445.8 386.327Z" fill="#263238"/>
<path d="M281.416 412.961V417.126C281.416 417.249 281.392 417.371 281.344 417.485C281.297 417.599 281.228 417.703 281.141 417.79C281.053 417.877 280.95 417.946 280.836 417.994C280.722 418.041 280.6 418.065 280.476 418.065H162.829C161.826 418.065 160.838 417.819 159.951 417.349C159.065 416.878 158.308 416.198 157.745 415.367C157.183 414.535 156.834 413.579 156.727 412.581C156.62 411.584 156.76 410.575 157.134 409.644L194.416 317.308L254.666 317.714L252.613 329.696L239.32 407.242C239.22 407.83 239.25 408.433 239.407 409.008C239.564 409.583 239.844 410.117 240.228 410.573C240.612 411.029 241.091 411.396 241.631 411.648C242.172 411.9 242.76 412.031 243.356 412.033H280.476C280.599 412.032 280.721 412.055 280.835 412.1C280.949 412.146 281.053 412.215 281.14 412.301C281.227 412.387 281.297 412.49 281.344 412.603C281.392 412.717 281.416 412.838 281.416 412.961Z" fill="#263238"/>
<path opacity="0.5" d="M281.416 412.961V417.126C281.416 417.249 281.392 417.371 281.344 417.485C281.297 417.599 281.228 417.703 281.141 417.79C281.053 417.877 280.95 417.946 280.836 417.994C280.722 418.041 280.6 418.065 280.476 418.065H162.829C161.826 418.065 160.838 417.819 159.951 417.349C159.065 416.878 158.308 416.198 157.745 415.367C157.183 414.535 156.834 413.579 156.727 412.581C156.62 411.584 156.76 410.575 157.134 409.644L180.252 352.398L194.416 317.308L254.666 317.714L252.613 329.696L246.813 363.418L239.308 407.242C239.209 407.83 239.238 408.433 239.395 409.008C239.552 409.583 239.832 410.117 240.217 410.573C240.601 411.029 241.08 411.396 241.62 411.648C242.16 411.9 242.749 412.031 243.345 412.033H280.465C280.589 412.03 280.712 412.052 280.827 412.097C280.942 412.142 281.047 412.21 281.136 412.297C281.225 412.383 281.295 412.486 281.343 412.601C281.391 412.715 281.416 412.837 281.416 412.961Z" fill="white"/>
<path opacity="0.2" d="M243.356 412.02H166.796C166.355 412.019 165.921 411.91 165.533 411.701C165.144 411.493 164.812 411.192 164.567 410.825C164.322 410.459 164.171 410.037 164.126 409.598C164.082 409.16 164.147 408.717 164.314 408.308L197.003 329.684H252.602L239.308 407.23C239.209 407.818 239.239 408.422 239.396 408.998C239.554 409.574 239.835 410.108 240.221 410.564C240.606 411.021 241.086 411.387 241.628 411.639C242.169 411.89 242.759 412.02 243.356 412.02Z" fill="black"/>
<path opacity="0.1" d="M254.666 317.701L252.613 329.684L246.825 363.405L180.252 352.397L194.416 317.295L254.666 317.701Z" fill="black"/>
<path d="M371.815 145.58H92.8928C91.9559 145.58 91.0283 145.765 90.1627 146.123C89.2972 146.482 88.5107 147.007 87.8483 147.67C87.1858 148.332 86.6603 149.118 86.3018 149.984C85.9433 150.85 85.7588 151.777 85.7588 152.714V341.55C85.7588 343.443 86.5104 345.257 87.8483 346.595C89.1862 347.933 91.0007 348.684 92.8928 348.684H371.815C373.708 348.684 375.524 347.933 376.863 346.596C378.203 345.258 378.957 343.444 378.96 341.55V152.714C378.957 150.821 378.203 149.006 376.863 147.669C375.524 146.331 373.708 145.58 371.815 145.58Z" fill="#263238"/>
<path opacity="0.6" d="M371.815 145.58H92.8928C91.9559 145.58 91.0283 145.765 90.1627 146.123C89.2972 146.482 88.5107 147.007 87.8483 147.67C87.1858 148.332 86.6603 149.118 86.3018 149.984C85.9433 150.85 85.7588 151.777 85.7588 152.714V341.55C85.7588 343.443 86.5104 345.257 87.8483 346.595C89.1862 347.933 91.0007 348.684 92.8928 348.684H371.815C373.708 348.684 375.524 347.933 376.863 346.596C378.203 345.258 378.957 343.444 378.96 341.55V152.714C378.957 150.821 378.203 149.006 376.863 147.669C375.524 146.331 373.708 145.58 371.815 145.58Z" fill="white"/>
<path opacity="0.2" d="M98.8088 348.673H92.8928C91.0028 348.673 89.1899 347.923 87.8524 346.588C86.5148 345.252 85.7619 343.441 85.7588 341.551V152.726C85.7573 151.788 85.9407 150.859 86.2985 149.992C86.6563 149.125 87.1816 148.337 87.8442 147.674C88.5068 147.01 89.2938 146.484 90.16 146.124C91.0263 145.765 91.955 145.58 92.8928 145.58H98.8088C97.868 145.576 96.9357 145.757 96.0654 146.114C95.195 146.471 94.404 146.997 93.7377 147.661C93.0714 148.326 92.543 149.115 92.183 149.984C91.823 150.853 91.6385 151.785 91.64 152.726V341.551C91.64 342.49 91.8257 343.42 92.1866 344.287C92.5474 345.154 93.0762 345.941 93.7425 346.603C94.4088 347.265 95.1994 347.789 96.0689 348.144C96.9384 348.499 97.8696 348.679 98.8088 348.673Z" fill="black"/>
<path d="M372.534 151.717H98.1128V333.802H372.534V151.717Z" fill="#599DD9"/>
<path opacity="0.4" d="M231.536 221.026C244.695 221.026 255.362 210.358 255.362 197.199C255.362 184.04 244.695 173.373 231.536 173.373C218.377 173.373 207.71 184.04 207.71 197.199C207.71 210.358 218.377 221.026 231.536 221.026Z" fill="white"/>
<path d="M225.852 193.581V191.401C225.852 190.361 226.265 189.364 227 188.628C227.736 187.893 228.733 187.48 229.773 187.48H233.253C233.772 187.474 234.286 187.571 234.768 187.765C235.249 187.959 235.686 188.247 236.055 188.612C236.424 188.976 236.717 189.411 236.917 189.889C237.117 190.368 237.22 190.882 237.22 191.401V193.628H239.76V191.401C239.757 189.688 239.076 188.046 237.865 186.835C236.654 185.624 235.012 184.943 233.299 184.939H229.819C228.107 184.943 226.465 185.624 225.254 186.835C224.043 188.046 223.361 189.688 223.358 191.401V193.628L225.852 193.581Z" fill="white"/>
<path d="M220.11 196.516V208.22C220.11 208.391 220.144 208.56 220.209 208.718C220.274 208.875 220.37 209.018 220.491 209.139C220.611 209.26 220.754 209.355 220.912 209.421C221.07 209.486 221.239 209.52 221.409 209.52H241.663C241.833 209.52 242.002 209.486 242.16 209.421C242.318 209.355 242.461 209.26 242.581 209.139C242.702 209.018 242.798 208.875 242.863 208.718C242.928 208.56 242.962 208.391 242.962 208.22V196.516C242.962 196.171 242.825 195.841 242.581 195.597C242.338 195.354 242.007 195.217 241.663 195.217H221.409C221.239 195.217 221.07 195.25 220.912 195.316C220.754 195.381 220.611 195.477 220.491 195.597C220.37 195.718 220.274 195.861 220.209 196.019C220.144 196.176 220.11 196.345 220.11 196.516ZM232.267 203.14V205.46H230.84V203.14C230.631 203.023 230.456 202.856 230.33 202.653C230.204 202.45 230.132 202.218 230.121 201.98C230.121 201.595 230.274 201.226 230.545 200.954C230.817 200.682 231.186 200.53 231.571 200.53C231.955 200.53 232.324 200.682 232.596 200.954C232.868 201.226 233.021 201.595 233.021 201.98C233.006 202.222 232.929 202.456 232.797 202.659C232.664 202.862 232.482 203.028 232.267 203.14Z" fill="white"/>
<path d="M173.408 240.759H150.904C149.565 240.759 148.48 241.844 148.48 243.183V265.687C148.48 267.026 149.565 268.112 150.904 268.112H173.408C174.747 268.112 175.833 267.026 175.833 265.687V243.183C175.833 241.844 174.747 240.759 173.408 240.759Z" fill="white"/>
<path d="M208.104 240.724H185.6C184.261 240.724 183.176 241.809 183.176 243.148V265.652C183.176 266.991 184.261 268.076 185.6 268.076H208.104C209.443 268.076 210.528 266.991 210.528 265.652V243.148C210.528 241.809 209.443 240.724 208.104 240.724Z" fill="white"/>
<path d="M242.788 240.689H220.284C218.945 240.689 217.86 241.775 217.86 243.114V265.618C217.86 266.957 218.945 268.042 220.284 268.042H242.788C244.127 268.042 245.212 266.957 245.212 265.618V243.114C245.212 241.775 244.127 240.689 242.788 240.689Z" fill="white"/>
<path d="M277.472 240.643H254.968C253.629 240.643 252.544 241.728 252.544 243.067V265.571C252.544 266.91 253.629 267.995 254.968 267.995H277.472C278.811 267.995 279.896 266.91 279.896 265.571V243.067C279.896 241.728 278.811 240.643 277.472 240.643Z" fill="white"/>
<path d="M312.156 240.607H289.652C288.313 240.607 287.228 241.693 287.228 243.032V265.536C287.228 266.875 288.313 267.96 289.652 267.96H312.156C313.495 267.96 314.58 266.875 314.58 265.536V243.032C314.58 241.693 313.495 240.607 312.156 240.607Z" fill="white"/>
<path d="M294.884 254.818C294.884 250.004 297.459 247.267 300.916 247.267C304.372 247.267 306.936 250.004 306.936 254.818C306.936 259.632 304.361 262.37 300.916 262.37C297.47 262.37 294.884 259.632 294.884 254.818ZM304.825 254.818C304.825 251.037 303.212 249.146 300.916 249.146C298.619 249.146 296.995 251.037 296.995 254.818C296.995 258.6 298.596 260.491 300.916 260.491C303.236 260.491 304.825 258.588 304.825 254.818Z" fill="#263238"/>
<path d="M167.655 254.632C167.655 259.666 164.801 262.369 160.695 262.369C159.413 262.415 158.143 262.114 157.018 261.499L157.76 259.84C158.622 260.338 159.608 260.58 160.602 260.536C163.595 260.536 165.497 258.657 165.497 254.956V254.434C165.002 255.082 164.354 255.597 163.611 255.933C162.868 256.27 162.053 256.416 161.24 256.36C158.305 256.36 156.194 254.608 156.194 251.894C156.194 249.18 158.514 247.254 161.402 247.254C165.416 247.266 167.655 249.922 167.655 254.632ZM165.056 251.824C165.056 250.305 163.896 248.971 161.576 248.971C161.17 248.922 160.758 248.959 160.368 249.08C159.977 249.202 159.617 249.404 159.31 249.675C159.003 249.946 158.757 250.278 158.588 250.65C158.419 251.023 158.33 251.427 158.328 251.836C158.328 253.576 159.616 254.69 161.692 254.69C163.769 254.69 165.056 253.448 165.056 251.824Z" fill="#263238"/>
<path d="M190.82 254.818C190.82 250.004 193.395 247.267 196.852 247.267C200.309 247.267 202.872 250.004 202.872 254.818C202.872 259.632 200.297 262.37 196.852 262.37C193.407 262.37 190.82 259.632 190.82 254.818ZM200.761 254.818C200.761 251.037 199.16 249.146 196.852 249.146C194.544 249.146 192.931 251.037 192.931 254.818C192.931 258.6 194.532 260.491 196.852 260.491C199.172 260.491 200.761 258.6 200.761 254.818Z" fill="#263238"/>
<path d="M236.872 260.363V262.161H226.258V260.769L232.267 254.969C233.833 253.449 234.123 252.521 234.123 251.593C234.123 250.074 233.056 249.146 230.979 249.146C230.27 249.106 229.562 249.23 228.908 249.508C228.254 249.785 227.673 250.209 227.209 250.747L225.771 249.505C226.449 248.755 227.286 248.164 228.221 247.777C229.156 247.39 230.166 247.215 231.176 247.267C234.25 247.267 236.234 248.844 236.234 251.373C236.234 252.811 235.816 254.099 233.81 256.013L229.297 260.351L236.872 260.363Z" fill="#263238"/>
<path d="M267.96 247.429V262.161H265.872V249.273H262.531V247.429H267.96Z" fill="#263238"/>
<g opacity="0.6">
<path d="M205.587 234.077V234.599H201.562V228.903H205.459V229.425H202.165V231.455H205.1V232.001H202.165V234.112L205.587 234.077Z" fill="white"/>
<path d="M210.807 232.116V234.599H210.227V232.174C210.261 231.994 210.253 231.808 210.201 231.632C210.15 231.456 210.058 231.295 209.932 231.161C209.807 231.027 209.651 230.926 209.479 230.864C209.306 230.802 209.121 230.782 208.939 230.805C208.735 230.791 208.53 230.821 208.339 230.894C208.147 230.967 207.974 231.081 207.832 231.228C207.689 231.375 207.58 231.552 207.513 231.745C207.446 231.939 207.422 232.144 207.443 232.348V234.599H206.874V230.318H207.42V231.107C207.594 230.84 207.836 230.624 208.122 230.481C208.407 230.338 208.725 230.274 209.044 230.295C209.285 230.274 209.529 230.308 209.756 230.393C209.983 230.478 210.189 230.613 210.358 230.787C210.526 230.961 210.654 231.171 210.732 231.401C210.81 231.631 210.835 231.875 210.807 232.116Z" fill="white"/>
<path d="M214.6 234.32C214.345 234.527 214.023 234.634 213.695 234.622C213.528 234.635 213.36 234.613 213.203 234.556C213.045 234.498 212.902 234.408 212.783 234.29C212.664 234.172 212.572 234.029 212.513 233.872C212.454 233.715 212.43 233.548 212.442 233.38V230.84H211.677V230.353H212.442V229.425H213.022V230.353H214.322V230.84H213.022V233.392C213.022 233.902 213.278 234.169 213.753 234.169C213.984 234.176 214.21 234.102 214.391 233.96L214.6 234.32Z" fill="white"/>
<path d="M219.24 232.639H215.667C215.694 233.058 215.886 233.45 216.202 233.728C216.517 234.007 216.93 234.149 217.349 234.123C217.595 234.131 217.84 234.086 218.066 233.989C218.292 233.893 218.495 233.749 218.66 233.567L218.985 233.938C218.668 234.235 218.275 234.437 217.849 234.522C217.424 234.606 216.983 234.57 216.577 234.416C216.171 234.263 215.816 233.999 215.553 233.654C215.289 233.309 215.128 232.897 215.087 232.465C215.071 232.182 215.114 231.9 215.212 231.635C215.31 231.37 215.462 231.128 215.658 230.924C215.854 230.721 216.09 230.56 216.351 230.451C216.612 230.343 216.893 230.29 217.175 230.295C217.457 230.29 217.737 230.343 217.997 230.451C218.257 230.56 218.491 230.721 218.685 230.925C218.879 231.129 219.029 231.372 219.125 231.637C219.22 231.902 219.259 232.183 219.24 232.465C219.24 232.465 219.24 232.569 219.24 232.639ZM215.667 232.209H218.695C218.662 231.831 218.488 231.478 218.208 231.222C217.927 230.965 217.561 230.822 217.181 230.822C216.801 230.822 216.435 230.965 216.155 231.222C215.874 231.478 215.7 231.831 215.667 232.209Z" fill="white"/>
<path d="M222.569 230.295V230.841H222.43C222.226 230.83 222.022 230.864 221.833 230.942C221.644 231.02 221.475 231.138 221.338 231.289C221.2 231.44 221.098 231.619 221.038 231.815C220.978 232.01 220.962 232.216 220.992 232.418V234.599H220.4V230.319H220.957V231.154C221.106 230.863 221.34 230.625 221.629 230.472C221.917 230.319 222.245 230.257 222.569 230.295Z" fill="white"/>
<path d="M229.39 230.318L227.256 235.109C226.896 235.944 226.444 236.211 225.829 236.211C225.639 236.218 225.45 236.187 225.273 236.119C225.095 236.051 224.933 235.948 224.796 235.817L225.063 235.388C225.162 235.494 225.283 235.578 225.417 235.634C225.551 235.69 225.695 235.717 225.84 235.712C226.223 235.712 226.478 235.538 226.722 235.005L226.908 234.587L225.04 230.318H225.643L227.244 233.949L228.856 230.318H229.39Z" fill="white"/>
<path d="M229.68 232.465C229.678 232.033 229.804 231.61 230.042 231.25C230.28 230.89 230.62 230.609 231.018 230.442C231.416 230.275 231.855 230.23 232.279 230.313C232.703 230.396 233.093 230.603 233.399 230.907C233.705 231.212 233.914 231.6 233.999 232.024C234.084 232.447 234.041 232.886 233.877 233.285C233.712 233.684 233.433 234.026 233.074 234.266C232.715 234.506 232.293 234.634 231.861 234.634C231.572 234.645 231.285 234.597 231.016 234.492C230.747 234.387 230.502 234.228 230.298 234.025C230.093 233.821 229.933 233.578 229.826 233.309C229.72 233.041 229.67 232.753 229.68 232.465ZM233.438 232.465C233.425 232.153 233.32 231.853 233.137 231.601C232.953 231.348 232.7 231.156 232.408 231.046C232.116 230.937 231.798 230.916 231.494 230.986C231.191 231.056 230.914 231.213 230.699 231.439C230.484 231.665 230.341 231.949 230.286 232.256C230.232 232.563 230.268 232.88 230.392 233.166C230.516 233.452 230.721 233.695 230.982 233.866C231.244 234.036 231.549 234.126 231.861 234.124C232.073 234.123 232.283 234.078 232.477 233.993C232.672 233.907 232.846 233.783 232.991 233.628C233.135 233.472 233.247 233.289 233.318 233.089C233.389 232.889 233.418 232.677 233.404 232.465H233.438Z" fill="white"/>
<path d="M239.018 230.318V234.599H238.473V233.81C238.314 234.074 238.087 234.29 237.815 234.435C237.543 234.58 237.238 234.648 236.93 234.634C236.685 234.658 236.437 234.627 236.206 234.543C235.974 234.459 235.764 234.324 235.592 234.148C235.419 233.972 235.289 233.76 235.209 233.527C235.129 233.293 235.103 233.045 235.132 232.801V230.318H235.7V232.743C235.666 232.923 235.675 233.109 235.726 233.285C235.777 233.461 235.869 233.622 235.995 233.756C236.12 233.889 236.276 233.991 236.449 234.053C236.621 234.115 236.806 234.135 236.988 234.112C237.19 234.123 237.391 234.09 237.579 234.016C237.766 233.941 237.935 233.826 238.073 233.679C238.212 233.532 238.316 233.356 238.379 233.164C238.442 232.972 238.462 232.769 238.438 232.569V230.318H239.018Z" fill="white"/>
<path d="M242.788 230.295V230.84H242.649C242.445 230.83 242.241 230.864 242.052 230.942C241.863 231.019 241.694 231.138 241.556 231.289C241.419 231.44 241.316 231.619 241.257 231.814C241.197 232.01 241.181 232.216 241.21 232.418V234.599H240.63V230.318H241.187V231.153C241.336 230.865 241.568 230.628 241.854 230.475C242.14 230.322 242.466 230.259 242.788 230.295Z" fill="white"/>
<path d="M245.63 231.756C245.609 231.16 245.767 230.572 246.083 230.066C246.399 229.56 246.859 229.161 247.403 228.918C247.948 228.675 248.553 228.601 249.14 228.705C249.727 228.808 250.27 229.084 250.699 229.499C251.128 229.913 251.424 230.445 251.548 231.029C251.672 231.612 251.62 232.219 251.396 232.772C251.173 233.325 250.79 233.799 250.296 234.132C249.802 234.466 249.219 234.644 248.623 234.645C248.235 234.66 247.847 234.597 247.484 234.459C247.12 234.321 246.789 234.11 246.509 233.84C246.229 233.57 246.007 233.247 245.856 232.888C245.705 232.53 245.628 232.145 245.63 231.756ZM251.001 231.756C251.015 231.278 250.884 230.807 250.627 230.403C250.37 230 249.998 229.683 249.558 229.493C249.119 229.304 248.633 229.251 248.163 229.341C247.693 229.431 247.261 229.66 246.923 229.998C246.584 230.336 246.355 230.768 246.265 231.238C246.175 231.708 246.229 232.194 246.418 232.634C246.607 233.073 246.924 233.446 247.328 233.703C247.731 233.96 248.203 234.09 248.681 234.076C249.296 234.076 249.886 233.832 250.321 233.397C250.756 232.962 251.001 232.372 251.001 231.756Z" fill="white"/>
<path d="M253.97 229.425H251.975V228.903H256.615V229.425H254.608V234.599H254.005L253.97 229.425Z" fill="white"/>
<path d="M261.986 230.84C261.986 232 261.104 232.777 259.666 232.777H258.146V234.575H257.52V228.88H259.643C261.104 228.903 261.986 229.68 261.986 230.84ZM261.383 230.84C261.383 229.924 260.78 229.402 259.643 229.402H258.135V232.244H259.643C260.78 232.267 261.383 231.757 261.383 230.84Z" fill="white"/>
</g>
<g opacity="0.6">
<path d="M208.974 282.913L209.206 282.46C209.727 282.912 210.396 283.156 211.085 283.145C212.141 283.145 212.605 282.704 212.605 282.135C212.605 280.581 209.125 281.532 209.125 279.433C209.125 278.597 209.774 277.878 211.213 277.878C211.836 277.87 212.449 278.043 212.976 278.377L212.779 278.853C212.311 278.554 211.768 278.393 211.213 278.389C210.18 278.389 209.716 278.853 209.716 279.421C209.716 280.975 213.196 280.036 213.196 282.101C213.196 282.947 212.535 283.655 211.085 283.655C210.313 283.684 209.558 283.419 208.974 282.913Z" fill="white"/>
<path d="M218.08 281.649H214.507C214.534 282.068 214.726 282.46 215.041 282.738C215.357 283.017 215.769 283.159 216.189 283.133C216.435 283.141 216.68 283.096 216.906 282.999C217.132 282.903 217.335 282.759 217.5 282.577L217.825 282.948C217.621 283.181 217.367 283.366 217.082 283.488C216.796 283.611 216.488 283.668 216.178 283.655C215.883 283.673 215.589 283.63 215.312 283.527C215.036 283.425 214.784 283.266 214.572 283.061C214.36 282.856 214.193 282.609 214.082 282.336C213.971 282.062 213.919 281.769 213.927 281.475C213.913 281.193 213.957 280.911 214.055 280.647C214.154 280.383 214.306 280.141 214.502 279.938C214.697 279.735 214.933 279.574 215.193 279.465C215.453 279.356 215.733 279.302 216.015 279.305C216.298 279.298 216.579 279.35 216.84 279.458C217.101 279.566 217.337 279.727 217.533 279.931C217.728 280.135 217.879 280.378 217.975 280.644C218.071 280.91 218.111 281.193 218.092 281.475C218.092 281.475 218.08 281.591 218.08 281.649ZM214.507 281.219H217.535C217.502 280.841 217.328 280.488 217.048 280.232C216.767 279.975 216.401 279.832 216.021 279.832C215.641 279.832 215.275 279.975 214.994 280.232C214.714 280.488 214.54 280.841 214.507 281.219Z" fill="white"/>
<path d="M223.219 281.126V283.609H222.65V281.184C222.683 281.005 222.673 280.821 222.62 280.646C222.568 280.472 222.476 280.312 222.35 280.18C222.225 280.047 222.07 279.947 221.899 279.885C221.727 279.824 221.544 279.804 221.363 279.827C221.159 279.813 220.953 279.843 220.762 279.916C220.571 279.989 220.398 280.103 220.255 280.25C220.113 280.397 220.004 280.573 219.937 280.767C219.87 280.96 219.846 281.166 219.866 281.37V283.609H219.24V279.34H219.797V280.129C219.97 279.859 220.211 279.641 220.497 279.496C220.782 279.351 221.101 279.285 221.421 279.305C221.665 279.279 221.913 279.308 222.144 279.391C222.376 279.474 222.586 279.607 222.759 279.782C222.932 279.957 223.063 280.169 223.142 280.402C223.222 280.635 223.248 280.882 223.219 281.126Z" fill="white"/>
<path d="M228.706 277.577V283.609H228.149V282.762C227.979 283.045 227.737 283.277 227.447 283.434C227.158 283.591 226.831 283.667 226.502 283.656C225.952 283.615 225.438 283.369 225.063 282.965C224.688 282.562 224.48 282.031 224.48 281.481C224.48 280.93 224.688 280.399 225.063 279.996C225.438 279.592 225.952 279.346 226.502 279.306C226.823 279.294 227.141 279.366 227.425 279.515C227.71 279.663 227.951 279.883 228.126 280.152V277.577H228.706ZM228.137 281.475C228.124 281.164 228.019 280.864 227.836 280.612C227.654 280.36 227.401 280.167 227.11 280.057C226.818 279.947 226.501 279.926 226.198 279.995C225.894 280.064 225.617 280.22 225.402 280.445C225.187 280.67 225.042 280.953 224.986 281.259C224.93 281.565 224.966 281.881 225.088 282.167C225.21 282.454 225.413 282.698 225.673 282.87C225.932 283.042 226.237 283.133 226.548 283.134C226.764 283.137 226.978 283.096 227.177 283.013C227.376 282.93 227.556 282.807 227.705 282.651C227.854 282.495 227.969 282.311 228.044 282.108C228.118 281.906 228.15 281.69 228.137 281.475Z" fill="white"/>
<path d="M235.666 280.964V283.608H235.109V282.947C234.948 283.185 234.727 283.376 234.468 283.5C234.209 283.624 233.922 283.678 233.636 283.655C232.673 283.655 232.081 283.144 232.081 282.402C232.081 281.66 232.499 281.242 233.728 281.242H235.086V280.987C235.102 280.83 235.083 280.672 235.031 280.524C234.978 280.376 234.893 280.241 234.782 280.13C234.671 280.019 234.537 279.934 234.388 279.882C234.24 279.829 234.082 279.81 233.926 279.827C233.404 279.819 232.897 280 232.499 280.337L232.244 279.908C232.733 279.517 233.346 279.311 233.972 279.328C234.196 279.301 234.423 279.325 234.636 279.397C234.85 279.469 235.045 279.587 235.207 279.744C235.369 279.9 235.494 280.091 235.574 280.302C235.653 280.513 235.684 280.739 235.666 280.964ZM235.086 282.321V281.625H233.74C232.916 281.625 232.65 281.95 232.65 282.39C232.65 282.831 233.044 283.191 233.728 283.191C234.018 283.21 234.306 283.136 234.55 282.979C234.795 282.823 234.982 282.592 235.086 282.321Z" fill="white"/>
<path d="M241.199 279.34V283.04C241.244 283.331 241.221 283.628 241.13 283.908C241.038 284.188 240.882 284.442 240.674 284.65C240.466 284.858 240.212 285.014 239.932 285.105C239.652 285.197 239.355 285.22 239.064 285.175C238.343 285.203 237.636 284.973 237.069 284.525L237.359 284.084C237.835 284.469 238.43 284.674 239.041 284.664C240.132 284.664 240.619 284.177 240.619 283.122V282.576C240.435 282.844 240.187 283.059 239.896 283.204C239.606 283.348 239.284 283.415 238.96 283.4C238.675 283.421 238.389 283.384 238.119 283.289C237.849 283.195 237.602 283.046 237.393 282.851C237.183 282.657 237.016 282.422 236.902 282.16C236.787 281.898 236.729 281.615 236.729 281.329C236.729 281.044 236.787 280.761 236.902 280.499C237.016 280.237 237.183 280.002 237.393 279.807C237.602 279.613 237.849 279.464 238.119 279.369C238.389 279.275 238.675 279.237 238.96 279.259C239.29 279.243 239.618 279.313 239.912 279.461C240.207 279.609 240.458 279.831 240.642 280.106V279.294L241.199 279.34ZM240.642 281.37C240.654 281.047 240.568 280.727 240.397 280.452C240.226 280.178 239.976 279.961 239.681 279.829C239.385 279.697 239.057 279.656 238.738 279.712C238.419 279.768 238.125 279.918 237.892 280.143C237.659 280.368 237.498 280.657 237.431 280.973C237.363 281.29 237.392 281.619 237.513 281.919C237.634 282.219 237.842 282.477 238.11 282.658C238.378 282.839 238.694 282.936 239.018 282.936C239.23 282.949 239.442 282.918 239.641 282.844C239.84 282.771 240.021 282.657 240.174 282.51C240.327 282.363 240.447 282.185 240.528 281.989C240.608 281.793 240.647 281.582 240.642 281.37Z" fill="white"/>
<path d="M246.036 280.964V283.609H245.491V282.948C245.329 283.185 245.108 283.375 244.849 283.499C244.59 283.623 244.304 283.677 244.018 283.655C243.043 283.655 242.452 283.145 242.452 282.403C242.452 281.66 242.881 281.243 244.11 281.243H245.456V280.987C245.456 280.257 245.05 279.827 244.296 279.827C243.778 279.821 243.276 280.003 242.881 280.338L242.614 279.909C243.108 279.517 243.724 279.312 244.354 279.329C244.577 279.304 244.803 279.329 245.015 279.402C245.227 279.474 245.42 279.593 245.581 279.75C245.742 279.906 245.866 280.096 245.945 280.306C246.023 280.516 246.055 280.741 246.036 280.964ZM245.456 282.321V281.625H244.122C243.287 281.625 243.02 281.95 243.02 282.391C243.02 282.832 243.426 283.191 244.11 283.191C244.399 283.212 244.686 283.138 244.928 282.981C245.171 282.824 245.356 282.593 245.456 282.321Z" fill="white"/>
<path d="M247.474 277.983C247.491 277.883 247.543 277.792 247.62 277.726C247.698 277.66 247.796 277.624 247.898 277.624C248 277.624 248.098 277.66 248.175 277.726C248.253 277.792 248.305 277.883 248.321 277.983C248.305 278.083 248.253 278.174 248.175 278.24C248.098 278.306 248 278.342 247.898 278.342C247.796 278.342 247.698 278.306 247.62 278.24C247.543 278.174 247.491 278.083 247.474 277.983ZM247.602 279.34H248.182V283.609H247.602V279.34Z" fill="white"/>
<path d="M253.715 281.127V283.609H253.147V281.185C253.179 281.006 253.169 280.821 253.117 280.647C253.065 280.472 252.972 280.312 252.847 280.18C252.721 280.048 252.567 279.947 252.395 279.886C252.224 279.825 252.04 279.805 251.859 279.828C251.655 279.813 251.45 279.843 251.259 279.916C251.067 279.989 250.894 280.104 250.752 280.251C250.609 280.398 250.5 280.574 250.433 280.767C250.366 280.961 250.342 281.167 250.363 281.371V283.609H249.794V279.341H250.34V280.129C250.513 279.86 250.754 279.642 251.04 279.497C251.325 279.352 251.644 279.286 251.964 279.306C252.205 279.287 252.447 279.322 252.672 279.408C252.898 279.494 253.102 279.628 253.27 279.803C253.437 279.977 253.564 280.186 253.641 280.415C253.718 280.644 253.743 280.887 253.715 281.127Z" fill="white"/>
</g>
<path opacity="0.4" d="M263.854 312.609H199.207C196.652 312.606 194.203 311.589 192.398 309.782C190.593 307.974 189.579 305.524 189.579 302.97C189.579 300.415 190.593 297.965 192.398 296.158C194.203 294.35 196.652 293.333 199.207 293.33H263.854C266.41 293.33 268.862 294.346 270.67 296.153C272.478 297.961 273.493 300.413 273.493 302.97C273.493 305.526 272.478 307.978 270.67 309.786C268.862 311.594 266.41 312.609 263.854 312.609Z" fill="white"/>
<path d="M206.318 302.482C206.312 302.03 206.4 301.582 206.574 301.166C206.749 300.75 207.008 300.374 207.334 300.061C207.661 299.749 208.048 299.507 208.472 299.351C208.895 299.195 209.347 299.127 209.798 299.153C210.259 299.136 210.718 299.219 211.144 299.395C211.57 299.571 211.954 299.837 212.268 300.173L211.665 300.753C211.432 300.503 211.148 300.304 210.832 300.172C210.516 300.04 210.175 299.977 209.832 299.988C209.421 299.992 209.016 300.098 208.655 300.296C208.294 300.494 207.988 300.779 207.764 301.125C207.54 301.47 207.405 301.866 207.371 302.276C207.337 302.687 207.405 303.099 207.57 303.477C207.734 303.855 207.989 304.186 208.313 304.441C208.636 304.696 209.018 304.866 209.424 304.938C209.829 305.009 210.246 304.979 210.637 304.85C211.029 304.721 211.382 304.497 211.665 304.199L212.268 304.779C211.952 305.117 211.566 305.382 211.138 305.559C210.71 305.735 210.249 305.817 209.786 305.799C209.337 305.825 208.887 305.758 208.464 305.602C208.042 305.446 207.656 305.205 207.331 304.894C207.006 304.583 206.748 304.208 206.574 303.793C206.399 303.378 206.312 302.932 206.318 302.482Z" fill="white"/>
<path d="M212.895 302.482C212.862 301.788 213.039 301.1 213.401 300.507C213.763 299.913 214.294 299.442 214.927 299.154C215.559 298.865 216.263 298.773 216.949 298.888C217.634 299.003 218.269 299.321 218.772 299.801C219.275 300.281 219.623 300.9 219.771 301.579C219.919 302.258 219.86 302.966 219.602 303.611C219.345 304.257 218.899 304.81 218.324 305.2C217.749 305.59 217.07 305.799 216.375 305.8C215.925 305.824 215.476 305.755 215.053 305.599C214.631 305.443 214.245 305.202 213.92 304.891C213.594 304.581 213.335 304.207 213.159 303.793C212.982 303.378 212.893 302.932 212.895 302.482ZM218.869 302.482C218.876 301.98 218.733 301.487 218.459 301.067C218.185 300.646 217.791 300.317 217.329 300.12C216.867 299.924 216.357 299.869 215.864 299.964C215.371 300.058 214.917 300.298 214.56 300.651C214.204 301.004 213.96 301.456 213.861 301.948C213.762 302.441 213.812 302.951 214.004 303.415C214.196 303.879 214.522 304.275 214.94 304.553C215.358 304.831 215.849 304.979 216.352 304.976C216.683 304.987 217.014 304.931 217.323 304.81C217.631 304.689 217.912 304.506 218.148 304.272C218.384 304.039 218.569 303.759 218.693 303.452C218.817 303.144 218.877 302.814 218.869 302.482Z" fill="white"/>
<path d="M226.803 299.28V305.776H226.038L222.14 300.927V305.776H221.212V299.28H221.978L225.875 304.117V299.28H226.803Z" fill="white"/>
<path d="M230.04 300.034H227.812V299.28H233.16V300.081H230.956V305.776H230.04V300.034Z" fill="white"/>
<path d="M234.192 299.28H235.12V305.776H234.192V299.28Z" fill="white"/>
<path d="M242.66 299.28V305.776H241.895L237.997 300.927V305.776H237.069V299.28H237.8L241.698 304.117V299.28H242.66Z" fill="white"/>
<path d="M244.551 302.923V299.28H245.479V302.934C245.479 304.373 246.14 305.022 247.312 305.022C248.484 305.022 249.145 304.373 249.145 302.934V299.28H250.05V302.969C250.05 303.698 249.76 304.397 249.244 304.913C248.729 305.429 248.029 305.718 247.3 305.718C246.571 305.718 245.872 305.429 245.356 304.913C244.841 304.397 244.551 303.698 244.551 302.969V302.923Z" fill="white"/>
<path d="M256.662 304.918V305.73H251.952V299.28H256.592V300.081H252.88V302.076H256.128V302.865H252.88V304.964L256.662 304.918Z" fill="white"/>
<path opacity="0.1" d="M343.928 152.563C305.985 190.577 208.533 275.187 98.1128 268.923V152.563H343.928Z" fill="white"/>
<path opacity="0.1" d="M372.522 222.43V334.66H207.315C213.649 311.993 226.316 280.952 250.885 258.773C295.081 218.869 346.376 218.985 372.522 222.43Z" fill="white"/>
<path d="M407.427 134.665L411.278 151.671L415.129 134.665H407.427Z" fill="#599DD9"/>
<path opacity="0.7" d="M407.427 134.665L411.278 151.671L415.129 134.665H407.427Z" fill="white"/>
<path d="M454.384 86.5127H368.184C362.681 86.5127 358.22 90.9739 358.22 96.4771V128.47C358.22 133.973 362.681 138.434 368.184 138.434H454.384C459.887 138.434 464.348 133.973 464.348 128.47V96.4771C464.348 90.9739 459.887 86.5127 454.384 86.5127Z" fill="#599DD9"/>
<path opacity="0.7" d="M454.384 86.5127H368.184C362.681 86.5127 358.22 90.9739 358.22 96.4771V128.47C358.22 133.973 362.681 138.434 368.184 138.434H454.384C459.887 138.434 464.348 133.973 464.348 128.47V96.4771C464.348 90.9739 459.887 86.5127 454.384 86.5127Z" fill="white"/>
<g opacity="0.5">
<path d="M379.413 105.559V107.798H378.496V105.559L375.921 101.337H376.919L378.995 104.817L381.083 101.337H382L379.413 105.559Z" fill="#263238"/>
<path d="M381.791 105.35C381.782 104.841 381.924 104.341 382.2 103.914C382.476 103.486 382.873 103.15 383.341 102.949C383.808 102.748 384.325 102.69 384.826 102.784C385.326 102.878 385.787 103.118 386.15 103.475C386.513 103.831 386.762 104.288 386.865 104.786C386.968 105.285 386.92 105.803 386.727 106.274C386.534 106.745 386.206 107.148 385.783 107.432C385.361 107.716 384.863 107.867 384.354 107.867C384.017 107.884 383.681 107.83 383.366 107.71C383.05 107.59 382.763 107.405 382.523 107.169C382.282 106.933 382.093 106.649 381.967 106.336C381.841 106.023 381.781 105.687 381.791 105.35ZM386.002 105.35C386.021 105.122 385.992 104.891 385.918 104.674C385.844 104.457 385.725 104.258 385.57 104.089C385.414 103.92 385.226 103.785 385.015 103.693C384.805 103.6 384.578 103.553 384.349 103.553C384.119 103.553 383.892 103.6 383.682 103.693C383.472 103.785 383.283 103.92 383.128 104.089C382.972 104.258 382.854 104.457 382.779 104.674C382.705 104.891 382.676 105.122 382.696 105.35C382.676 105.579 382.705 105.809 382.779 106.026C382.854 106.243 382.972 106.443 383.128 106.612C383.283 106.781 383.472 106.916 383.682 107.008C383.892 107.1 384.119 107.148 384.349 107.148C384.578 107.148 384.805 107.1 385.015 107.008C385.226 106.916 385.414 106.781 385.57 106.612C385.725 106.443 385.844 106.243 385.918 106.026C385.992 105.809 386.021 105.579 386.002 105.35Z" fill="#263238"/>
<path d="M392.718 102.892V107.81H391.883V107.068C391.69 107.326 391.437 107.534 391.146 107.673C390.855 107.813 390.535 107.88 390.212 107.868C389.924 107.898 389.633 107.862 389.361 107.765C389.088 107.667 388.841 107.509 388.637 107.303C388.433 107.097 388.279 106.848 388.184 106.575C388.089 106.301 388.057 106.01 388.09 105.722V102.892H388.983V105.629C388.983 106.592 389.47 107.068 390.317 107.068C390.529 107.081 390.742 107.048 390.94 106.97C391.137 106.892 391.315 106.77 391.461 106.615C391.606 106.46 391.715 106.274 391.78 106.072C391.845 105.869 391.864 105.654 391.836 105.444V102.892H392.718Z" fill="#263238"/>
<path d="M397.068 102.845V103.715H396.859C396.643 103.7 396.426 103.735 396.224 103.815C396.023 103.895 395.842 104.019 395.694 104.178C395.546 104.336 395.436 104.526 395.37 104.733C395.305 104.94 395.287 105.159 395.316 105.373V107.821H394.4V102.891H395.258V103.726C395.444 103.422 395.714 103.177 396.034 103.021C396.355 102.864 396.714 102.803 397.068 102.845Z" fill="#263238"/>
<path d="M400.328 104.561C400.298 103.868 400.476 103.181 400.839 102.589C401.203 101.997 401.735 101.528 402.368 101.241C403.001 100.954 403.705 100.863 404.389 100.98C405.074 101.097 405.708 101.416 406.21 101.896C406.712 102.376 407.059 102.996 407.206 103.674C407.353 104.353 407.293 105.061 407.035 105.705C406.776 106.35 406.331 106.903 405.756 107.292C405.181 107.682 404.502 107.89 403.808 107.891C403.357 107.916 402.905 107.849 402.482 107.692C402.058 107.536 401.671 107.294 401.344 106.982C401.018 106.67 400.759 106.294 400.584 105.877C400.41 105.461 400.322 105.013 400.328 104.561ZM406.302 104.561C406.309 104.059 406.166 103.567 405.892 103.146C405.618 102.725 405.224 102.396 404.762 102.199C404.3 102.003 403.79 101.949 403.297 102.043C402.804 102.138 402.35 102.377 401.993 102.73C401.637 103.084 401.393 103.535 401.294 104.028C401.195 104.52 401.245 105.03 401.437 105.494C401.629 105.958 401.955 106.354 402.373 106.632C402.791 106.91 403.282 107.058 403.784 107.055C404.116 107.067 404.446 107.01 404.755 106.889C405.064 106.768 405.345 106.585 405.581 106.351C405.817 106.118 406.002 105.839 406.126 105.531C406.25 105.223 406.31 104.893 406.302 104.561Z" fill="#263238"/>
<path d="M409.851 102.08H407.624V101.279H412.96V102.08H410.733V107.764H409.816L409.851 102.08Z" fill="#263238"/>
<path d="M419.247 103.587C419.247 104.991 418.226 105.849 416.533 105.849H414.932V107.81H414.004V101.325H416.533C418.226 101.325 419.247 102.172 419.247 103.587ZM418.319 103.587C418.319 102.659 417.693 102.126 416.51 102.126H414.932V105.037H416.51C417.693 105.037 418.319 104.515 418.319 103.587Z" fill="#263238"/>
<path d="M422.669 104.562C422.7 103.89 422.925 103.242 423.317 102.696C423.708 102.15 424.249 101.729 424.875 101.483C425.501 101.238 426.184 101.179 426.842 101.314C427.501 101.448 428.106 101.77 428.585 102.242L427.982 102.833C427.749 102.581 427.466 102.381 427.149 102.247C426.833 102.113 426.492 102.048 426.149 102.056C425.488 102.056 424.853 102.319 424.386 102.787C423.918 103.254 423.655 103.889 423.655 104.55C423.655 105.211 423.918 105.846 424.386 106.314C424.853 106.781 425.488 107.044 426.149 107.044C426.492 107.052 426.833 106.987 427.149 106.853C427.466 106.719 427.749 106.519 427.982 106.267L428.585 106.858C428.106 107.33 427.501 107.652 426.842 107.786C426.184 107.921 425.501 107.862 424.875 107.617C424.249 107.371 423.708 106.95 423.317 106.404C422.925 105.858 422.7 105.21 422.669 104.538V104.562Z" fill="#263238"/>
<path d="M429.119 105.35C429.11 104.841 429.252 104.341 429.528 103.914C429.804 103.486 430.201 103.15 430.669 102.949C431.136 102.748 431.653 102.69 432.154 102.784C432.654 102.878 433.115 103.118 433.478 103.475C433.841 103.831 434.09 104.288 434.193 104.786C434.296 105.285 434.248 105.803 434.055 106.274C433.862 106.745 433.534 107.148 433.111 107.432C432.689 107.716 432.191 107.867 431.682 107.867C431.346 107.884 431.009 107.83 430.694 107.71C430.378 107.59 430.091 107.405 429.851 107.169C429.61 106.933 429.421 106.649 429.295 106.336C429.169 106.023 429.109 105.687 429.119 105.35ZM433.33 105.35C433.349 105.122 433.32 104.891 433.246 104.674C433.172 104.457 433.053 104.258 432.898 104.089C432.742 103.92 432.554 103.785 432.343 103.693C432.133 103.6 431.906 103.553 431.677 103.553C431.447 103.553 431.22 103.6 431.01 103.693C430.8 103.785 430.611 103.92 430.456 104.089C430.3 104.258 430.182 104.457 430.107 104.674C430.033 104.891 430.004 105.122 430.024 105.35C430.004 105.579 430.033 105.809 430.107 106.026C430.182 106.243 430.3 106.443 430.456 106.612C430.611 106.781 430.8 106.916 431.01 107.008C431.22 107.1 431.447 107.148 431.677 107.148C431.906 107.148 432.133 107.1 432.343 107.008C432.554 106.916 432.742 106.781 432.898 106.612C433.053 106.443 433.172 106.243 433.246 106.026C433.32 105.809 433.349 105.579 433.33 105.35Z" fill="#263238"/>
<path d="M440.104 100.92V107.799H439.257V107.022C439.055 107.292 438.789 107.509 438.484 107.655C438.179 107.8 437.843 107.87 437.506 107.857C436.869 107.813 436.273 107.53 435.837 107.064C435.401 106.598 435.159 105.983 435.159 105.345C435.159 104.707 435.401 104.093 435.837 103.627C436.273 103.161 436.869 102.877 437.506 102.834C437.833 102.824 438.159 102.89 438.457 103.027C438.754 103.164 439.017 103.368 439.222 103.623V100.92H440.104ZM439.222 105.34C439.206 105.015 439.096 104.702 438.903 104.44C438.711 104.178 438.446 103.978 438.141 103.865C437.837 103.752 437.505 103.731 437.189 103.805C436.872 103.879 436.584 104.044 436.361 104.28C436.138 104.516 435.988 104.813 435.932 105.133C435.876 105.453 435.914 105.783 436.044 106.081C436.173 106.379 436.387 106.633 436.659 106.81C436.932 106.988 437.25 107.081 437.575 107.08C437.8 107.085 438.023 107.043 438.231 106.957C438.439 106.871 438.626 106.743 438.781 106.58C438.937 106.417 439.056 106.224 439.132 106.012C439.208 105.801 439.239 105.575 439.222 105.351V105.34Z" fill="#263238"/>
<path d="M446.217 105.652H442.238C442.294 106.073 442.508 106.458 442.839 106.725C443.169 106.993 443.589 107.124 444.013 107.09C444.278 107.1 444.541 107.052 444.786 106.95C445.03 106.847 445.249 106.694 445.428 106.499L445.927 107.067C445.564 107.435 445.101 107.691 444.596 107.802C444.091 107.913 443.564 107.876 443.08 107.694C442.595 107.513 442.173 107.195 441.866 106.779C441.558 106.363 441.377 105.867 441.345 105.35C441.332 105.021 441.387 104.692 441.507 104.385C441.626 104.077 441.807 103.797 442.038 103.563C442.27 103.328 442.547 103.143 442.853 103.019C443.158 102.896 443.486 102.836 443.816 102.845C444.149 102.828 444.481 102.883 444.791 103.007C445.1 103.13 445.379 103.319 445.61 103.56C445.84 103.801 446.015 104.089 446.124 104.404C446.233 104.719 446.272 105.053 446.24 105.385C446.238 105.474 446.23 105.563 446.217 105.652ZM442.238 105.014H445.44C445.406 104.62 445.226 104.254 444.935 103.987C444.644 103.72 444.263 103.571 443.868 103.571C443.473 103.571 443.093 103.72 442.802 103.987C442.511 104.254 442.33 104.62 442.296 105.014H442.238Z" fill="#263238"/>
</g>
<g opacity="0.5">
<path d="M397.88 117.972C397.88 121.626 395.827 123.575 392.822 123.575C391.897 123.608 390.979 123.392 390.166 122.949L390.746 121.789C391.374 122.146 392.089 122.319 392.811 122.288C394.98 122.288 396.36 120.93 396.36 118.251V117.88C396.002 118.35 395.532 118.724 394.994 118.969C394.456 119.214 393.865 119.322 393.275 119.283C392.818 119.333 392.355 119.287 391.917 119.148C391.479 119.009 391.075 118.78 390.731 118.475C390.386 118.17 390.11 117.796 389.919 117.378C389.728 116.96 389.626 116.507 389.621 116.047C389.632 115.572 389.74 115.105 389.938 114.674C390.136 114.242 390.421 113.856 390.774 113.539C391.127 113.222 391.541 112.98 391.991 112.829C392.441 112.677 392.918 112.62 393.391 112.66C396.256 112.636 397.88 114.562 397.88 117.972ZM395.989 116C395.989 114.898 395.108 113.936 393.437 113.936C393.145 113.905 392.85 113.936 392.571 114.026C392.292 114.116 392.035 114.264 391.816 114.459C391.598 114.655 391.423 114.894 391.302 115.161C391.182 115.429 391.119 115.719 391.117 116.012C391.117 117.265 392.045 118.077 393.542 118.077C393.84 118.107 394.141 118.077 394.427 117.988C394.713 117.899 394.979 117.753 395.207 117.559C395.436 117.366 395.623 117.128 395.757 116.86C395.891 116.592 395.97 116.3 395.989 116Z" fill="#263238"/>
<path d="M399.342 118.112C399.342 114.632 401.209 112.637 403.715 112.637C406.22 112.637 408.065 114.632 408.065 118.112C408.065 121.592 406.197 123.576 403.715 123.576C401.232 123.576 399.342 121.592 399.342 118.112ZM406.534 118.112C406.534 115.374 405.374 114.006 403.715 114.006C402.056 114.006 400.873 115.374 400.873 118.112C400.873 120.85 402.033 122.218 403.715 122.218C405.397 122.218 406.534 120.85 406.534 118.112Z" fill="#263238"/>
<path d="M417.008 122.126V123.46H409.317V122.416L413.679 118.216C414.839 117.114 415.013 116.442 415.013 115.769C415.013 114.678 414.236 114.006 412.693 114.006C412.18 113.975 411.667 114.064 411.194 114.266C410.721 114.467 410.301 114.775 409.967 115.166L408.923 114.261C409.414 113.717 410.019 113.29 410.695 113.009C411.371 112.728 412.101 112.601 412.832 112.637C415.06 112.637 416.498 113.797 416.498 115.618C416.481 116.275 416.314 116.919 416.01 117.502C415.707 118.085 415.275 118.591 414.746 118.982L411.475 122.126H417.008Z" fill="#263238"/>
<path d="M421.579 112.765V123.46H420.059V114.099H417.6V112.765H421.579Z" fill="#263238"/>
<path d="M423.91 118.112C423.91 114.632 425.778 112.637 428.283 112.637C430.789 112.637 432.633 114.632 432.633 118.112C432.633 121.592 430.777 123.576 428.283 123.576C425.789 123.576 423.91 121.592 423.91 118.112ZM431.114 118.112C431.114 115.374 429.954 114.006 428.283 114.006C426.613 114.006 425.441 115.374 425.441 118.112C425.441 120.85 426.601 122.218 428.283 122.218C429.965 122.218 431.114 120.85 431.114 118.112Z" fill="#263238"/>
</g>
<path d="M401.743 184.545C408.668 189.337 416.413 192.816 424.595 194.811H424.676C424.064 194.793 423.461 194.963 422.948 195.298C422.442 195.613 422.039 196.069 421.788 196.609C421.703 196.774 421.655 196.956 421.648 197.142C421.834 194.706 420.778 191.969 420.036 189.335C418.702 185.171 417.136 180.902 415.57 176.715L420.048 174.313C423.748 179.986 436.102 197.943 427.669 203.139C426.223 203.983 424.515 204.256 422.878 203.905C413.689 202.544 404.926 199.126 397.242 193.906C396.708 193.535 396.244 193.21 395.618 192.746L401.766 184.521L401.743 184.545Z" fill="#DC897C"/>
<path d="M400.444 183.281C404.505 183.77 408.361 185.336 411.614 187.816L406.974 202.177C406.974 202.177 384.424 181.39 400.444 183.281Z" fill="#599DD9"/>
<path opacity="0.6" d="M400.397 195.355C402.462 197.719 404.645 199.977 406.94 202.118L408.854 196.214L411.614 187.757C408.365 185.279 404.512 183.713 400.455 183.222C390.595 182.12 395.305 189.497 400.397 195.355Z" fill="white"/>
<path opacity="0.2" d="M400.397 195.356C402.461 197.72 404.645 199.977 406.94 202.119L408.854 196.214C406.446 194.339 403.483 193.319 400.432 193.314C400.363 193.993 400.351 194.676 400.397 195.356Z" fill="black"/>
<path d="M350.32 162.04C350.32 162.04 339.532 197.907 362.256 202.721C384.981 207.535 387.44 191.028 387.44 191.028C387.44 191.028 368.764 162.771 350.32 162.04Z" fill="#263238"/>
<path d="M344.996 173.92C344.954 173.932 344.91 173.932 344.868 173.92C344.835 173.904 344.806 173.881 344.782 173.854C344.759 173.826 344.741 173.794 344.73 173.759C344.719 173.724 344.715 173.688 344.719 173.652C344.723 173.615 344.734 173.58 344.752 173.549C345.091 172.93 345.57 172.398 346.149 171.995C346.729 171.593 347.394 171.33 348.093 171.229C348.165 171.231 348.234 171.259 348.287 171.308C348.341 171.357 348.375 171.423 348.383 171.495C348.386 171.532 348.382 171.569 348.371 171.604C348.36 171.639 348.342 171.671 348.318 171.699C348.294 171.727 348.265 171.75 348.233 171.767C348.2 171.784 348.164 171.794 348.128 171.797C347.523 171.896 346.948 172.131 346.448 172.485C345.948 172.838 345.534 173.301 345.239 173.839C345.209 173.872 345.171 173.898 345.128 173.912C345.086 173.926 345.04 173.929 344.996 173.92Z" fill="#263238"/>
<path d="M348.244 178.374C348.098 179.772 347.783 181.147 347.304 182.469C347.664 182.683 348.074 182.797 348.493 182.797C348.912 182.797 349.323 182.683 349.682 182.469L348.244 178.374Z" fill="#DE5753"/>
<path d="M346.051 176.808C346.295 177.446 346.84 177.829 347.211 177.666C347.582 177.504 347.791 176.866 347.548 176.228C347.304 175.59 346.759 175.207 346.388 175.369C346.016 175.532 345.819 176.17 346.051 176.808Z" fill="#263238"/>
<path d="M346.573 175.334H344.984C344.984 175.334 346.121 176.216 346.573 175.334Z" fill="#263238"/>
<path d="M369.147 182.829C369.107 182.932 369.052 183.03 368.984 183.119C368.88 183.316 368.764 183.501 368.648 183.699C367.968 184.921 367.063 186.003 365.98 186.889C362.5 189.661 359.472 190.496 356.839 189.696L356.456 189.568C352.547 187.979 349.496 183.304 347.072 177.121C345.996 174.702 345.318 172.124 345.065 169.489C345.065 169.489 345.065 169.396 345.065 169.373C345.065 169.349 345.065 169.164 345.065 169.071C344.975 167.56 345.262 166.051 345.902 164.68C346.542 163.308 347.515 162.118 348.731 161.218C349.771 160.401 350.899 159.705 352.095 159.141C363.683 153.492 374.958 171.89 369.147 182.829Z" fill="#E4897B"/>
<path opacity="0.2" d="M368.648 183.698C367.968 184.921 367.063 186.003 365.98 186.888C362.5 189.661 359.472 190.496 356.839 189.696C359.4 189.075 361.705 187.677 363.44 185.694C364.109 185 364.922 184.462 365.822 184.118C366.722 183.773 367.687 183.63 368.648 183.698Z" fill="black"/>
<path d="M345.007 169.419C345.007 169.419 348.244 177.933 357.698 177.783C357.698 177.783 365.075 184.743 370.052 182.527C376.838 179.523 378.23 167.18 371.316 158.561C362.338 147.379 342.757 155.441 345.007 169.419Z" fill="#263238"/>
<path d="M352.64 177.295C352.037 176.008 352.048 173.375 354.171 172.725C356.294 172.075 359.971 176.588 355.401 180.114C354.751 180.625 353.893 179.963 352.64 177.295Z" fill="#E4897B"/>
<path d="M355.18 153.92C355.18 153.92 346.411 155.648 343.58 160.88C340.263 166.958 340.1 171.668 348.916 174.8C348.916 174.8 360.064 164.36 364.866 163.2C367.665 162.505 370.517 162.047 373.392 161.831C370.191 152.563 358.718 150.08 355.18 153.92Z" fill="#263238"/>
<path d="M363.683 187.109C363.683 187.109 369.715 191.285 371.281 198.175L390.085 187.201C390.085 187.201 375.364 183.849 372.836 178.153C372.836 178.153 362.999 179.371 363.683 187.109Z" fill="#E4897B"/>
<path d="M382.359 232.291C382.359 232.291 357.999 208.36 355.378 200.843C355.378 200.843 365.62 184.893 386.094 184.221C406.568 183.548 420.5 222.501 420.5 222.501L382.359 232.291Z" fill="#599DD9"/>
<path opacity="0.6" d="M420.5 222.512L382.371 232.302C382.371 232.302 377.058 227.071 371.119 220.702C369.286 218.719 367.372 216.631 365.528 214.566C360.69 209.079 356.422 203.72 355.389 200.808C355.389 200.808 365.62 184.858 386.094 184.185C406.568 183.513 420.5 222.512 420.5 222.512Z" fill="white"/>
<path d="M359.6 173.699C359.6 173.699 363.161 185.531 375.666 189.452C388.171 193.373 385.027 206.144 397.149 204.636C403.599 203.836 409.121 190.716 389.343 179.116C377.812 172.377 382.29 150.22 357.814 152.297C357.79 152.308 362.871 167.493 359.6 173.699Z" fill="#263238"/>
<path d="M371.745 412.648L365.945 411.325C366.815 382.325 371.003 347.259 374.703 320.915C375.283 316.785 375.863 312.888 376.397 309.245C376.664 307.517 376.907 305.858 377.151 304.257C378.311 296.358 379.378 290.117 380.016 286.254C380.492 283.435 380.758 281.893 380.758 281.893L401.638 286.985L400.142 292.251L395.212 309.651L394.655 311.635L391.384 323.107L385.839 342.63C386.187 372.106 371.745 412.648 371.745 412.648Z" fill="#E4897B"/>
<path d="M421.393 407.798L415.454 407.497C410.93 376.316 409.028 337.317 408.204 310.208C408.088 306.008 407.984 302.088 407.902 298.515C407.902 298.341 407.902 298.167 407.902 297.993C407.752 290.928 407.682 285.314 407.647 281.753C407.647 278.969 407.647 277.449 407.647 277.449L429.072 278.853L428.156 287.785L426.81 300.893L426.544 303.468L425.616 312.4L423.11 336.4C428.585 365.4 421.393 407.798 421.393 407.798Z" fill="#E4897B"/>
<path d="M423.62 406.639C423.62 405.896 414.456 406.476 414.456 406.476C414.456 406.476 408.83 412.195 403.367 413.436C397.903 414.678 400.966 418.007 407.067 418.007H422.147C426.509 418.053 423.794 414.353 423.62 406.639Z" fill="#263238"/>
<path d="M408.842 408.599C408.71 408.479 408.617 408.321 408.578 408.146C408.539 407.972 408.554 407.79 408.622 407.624C408.658 407.495 408.719 407.373 408.803 407.268C408.887 407.162 408.991 407.074 409.109 407.01C409.759 406.744 410.469 406.664 411.162 406.778C410.42 406.383 409.77 405.908 409.735 405.42C409.735 405.107 409.921 404.852 410.338 404.655C410.521 404.572 410.718 404.529 410.918 404.529C411.118 404.529 411.316 404.572 411.498 404.655C412.74 405.177 413.505 407.311 413.54 407.392C413.564 407.452 413.564 407.518 413.54 407.578V407.636C413.518 407.662 413.49 407.681 413.459 407.694C412.276 408.3 410.996 408.692 409.677 408.854C409.377 408.874 409.08 408.783 408.842 408.599ZM409.352 407.439C409.289 407.471 409.233 407.515 409.188 407.569C409.142 407.622 409.107 407.685 409.086 407.752C408.993 408.112 409.086 408.204 409.086 408.239C409.526 408.599 411.197 408.088 412.566 407.52C411.524 407.191 410.411 407.159 409.352 407.427V407.439ZM410.512 405.119C410.385 405.119 410.176 405.293 410.188 405.42C410.188 405.826 411.522 406.58 412.867 407.056C412.567 406.252 412.019 405.565 411.301 405.096C411.185 405.041 411.058 405.013 410.93 405.014C410.798 405.014 410.668 405.042 410.547 405.096L410.512 405.119Z" fill="#263238"/>
<path d="M374.68 406.639C374.68 405.896 365.528 406.476 365.528 406.476C365.528 406.476 359.902 412.195 354.438 413.436C348.974 414.678 352.025 418.007 358.127 418.007H373.207C377.58 418.053 374.877 414.353 374.68 406.639Z" fill="#263238"/>
<path d="M359.913 408.599C359.783 408.477 359.693 408.319 359.654 408.145C359.615 407.972 359.628 407.79 359.693 407.624C359.729 407.495 359.79 407.373 359.874 407.268C359.958 407.162 360.062 407.074 360.18 407.01C360.83 406.745 361.54 406.665 362.233 406.778C361.491 406.383 360.841 405.908 360.818 405.42C360.818 405.111 361.015 404.856 361.41 404.655C361.592 404.572 361.789 404.529 361.99 404.529C362.19 404.529 362.387 404.572 362.57 404.655C363.811 405.177 364.576 407.311 364.611 407.392C364.625 407.421 364.633 407.453 364.633 407.485C364.633 407.517 364.625 407.549 364.611 407.578C364.611 407.578 364.611 407.578 364.611 407.636L364.53 407.694C363.342 408.298 362.059 408.69 360.737 408.854C360.441 408.869 360.149 408.779 359.913 408.599ZM360.424 407.439C360.362 407.471 360.308 407.515 360.264 407.569C360.22 407.623 360.187 407.685 360.168 407.752C360.076 408.112 360.168 408.204 360.226 408.239C360.656 408.599 362.326 408.088 363.706 407.52C362.643 407.178 361.504 407.146 360.424 407.427V407.439ZM361.584 405.119C361.456 405.119 361.247 405.293 361.259 405.42C361.259 405.826 362.593 406.58 363.95 407.056C363.646 406.251 363.093 405.565 362.372 405.096C362.257 405.04 362.13 405.012 362.001 405.014C361.869 405.014 361.739 405.042 361.618 405.096L361.584 405.119Z" fill="#263238"/>
<path d="M377.418 290.615L382.359 255.815V232.267C395.386 222.477 420.5 222.477 420.5 222.477C420.5 222.477 439.791 249.238 430.418 293.237L406.197 296.717L404.654 288.504L401.615 296.717L377.418 290.615Z" fill="#263238"/>
<path opacity="0.2" d="M377.418 290.615L382.359 255.815V232.267C395.386 222.477 420.5 222.477 420.5 222.477C420.5 222.477 439.791 249.238 430.418 293.237L406.197 296.717L404.654 288.504L401.615 296.717L377.418 290.615Z" fill="white"/>
<path opacity="0.2" d="M404.654 288.631L409.294 274.143C409.294 274.143 414.19 272.658 420.477 262.938C420.5 262.938 419.41 279.479 404.654 288.631Z" fill="black"/>
<path opacity="0.2" d="M394.33 238.961L405.2 237.929C406.934 241.992 407.536 246.45 406.94 250.828L399.98 255.016L394.934 251.431C394.934 251.431 394.771 242.232 394.33 238.961Z" fill="black"/>
<path opacity="0.2" d="M420.5 236.304C421.959 239.889 423.036 243.618 423.713 247.428L427.564 249.064L429.641 246.477C429.641 246.477 428.237 238.902 425.859 235.19L420.5 236.304Z" fill="black"/>
<path d="M376.965 288.631L402.671 296.171L401.058 299.628L376.64 292.111L376.965 288.631Z" fill="#263238"/>
<path d="M405.2 295.673L405.629 298.851L430.836 295.673L431.218 291.671L405.2 295.673Z" fill="#263238"/>
<path d="M410.489 227.36C414.612 226.664 418.779 226.257 422.959 226.142L421.405 223.579C417.339 223.471 413.272 223.712 409.248 224.298L410.489 227.36Z" fill="#263238"/>
<path d="M387.37 230.516C384.041 231.954 382.127 233.033 382.127 233.033V236.2C383.999 235.256 385.874 234.394 387.753 233.613L387.37 230.516Z" fill="#263238"/>
<path d="M388.971 233.161C395.419 230.633 402.108 228.771 408.935 227.604L407.775 224.519C401.157 225.622 394.688 227.482 388.496 230.063L388.971 233.161Z" fill="#263238"/>
<path d="M319.278 242.22L312.69 239.575L311.53 245.793C311.53 245.793 317.469 249.389 319.951 245.108L319.278 242.22Z" fill="#E4897B"/>
<path d="M309.418 239.958L307.307 244.76L311.576 245.793L312.69 239.575L309.418 239.958Z" fill="#E4897B"/>
<path d="M420.396 175.393L419.618 168.34L413.61 170.289C413.61 170.289 413.239 177.249 418.192 177.388L420.396 175.393Z" fill="#E4897B"/>
<path d="M417.728 165.637L412.496 166.054L413.61 170.288L419.618 168.34L417.728 165.637Z" fill="#E4897B"/>
<path opacity="0.2" d="M371.119 220.737C369.286 218.753 367.372 216.665 365.528 214.6C364.82 210.285 364.368 206.48 364.368 206.48C366.577 208.12 368.349 210.278 369.526 212.764C370.704 215.251 371.251 217.989 371.119 220.737Z" fill="black"/>
<path d="M365.04 204.485C362.383 215.197 358.372 225.527 353.104 235.225C347.884 245.143 328.036 246.338 318.06 246.593L317.596 241.535C323.605 240.12 342.281 236.397 344.833 230.979C348.999 221.594 352.428 211.898 355.088 201.979L365.04 204.462V204.485Z" fill="#DC897C"/>
<path d="M359.356 195.739C353.684 199.451 350.645 209.102 349.682 213.823L361.468 222.5L367.418 216.7C369.831 203.383 361.514 194.335 359.356 195.739Z" fill="#599DD9"/>
<path opacity="0.6" d="M359.356 195.739C353.684 199.451 350.645 209.102 349.682 213.823L361.468 222.5L367.418 216.7C369.831 203.383 361.514 194.335 359.356 195.739Z" fill="white"/>
<path d="M416.892 177.654L408.471 178.559C408.352 178.563 408.234 178.541 408.124 178.497C408.014 178.452 407.914 178.385 407.832 178.3C407.749 178.215 407.684 178.114 407.643 178.003C407.601 177.892 407.583 177.773 407.589 177.654L407.079 159.825C407.063 159.573 407.138 159.324 407.292 159.123C407.445 158.923 407.666 158.785 407.914 158.735L416.324 157.842C416.443 157.836 416.562 157.856 416.673 157.9C416.784 157.944 416.884 158.011 416.967 158.097C417.051 158.182 417.115 158.284 417.156 158.396C417.197 158.508 417.214 158.627 417.206 158.746L417.716 176.576C417.732 176.825 417.658 177.071 417.506 177.269C417.355 177.468 417.137 177.604 416.892 177.654Z" fill="#263238"/>
<path opacity="0.6" d="M416.892 177.654L408.471 178.559C408.352 178.563 408.234 178.541 408.124 178.497C408.014 178.452 407.914 178.385 407.832 178.3C407.749 178.215 407.684 178.114 407.643 178.003C407.601 177.892 407.583 177.773 407.589 177.654L407.079 159.825C407.063 159.573 407.138 159.324 407.292 159.123C407.445 158.923 407.666 158.785 407.914 158.735L416.324 157.842C416.443 157.836 416.562 157.856 416.673 157.9C416.784 157.944 416.884 158.011 416.967 158.097C417.051 158.182 417.115 158.284 417.156 158.396C417.197 158.508 417.214 158.627 417.206 158.746L417.716 176.576C417.732 176.825 417.658 177.071 417.506 177.269C417.355 177.468 417.137 177.604 416.892 177.654Z" fill="white"/>
<path d="M416.15 177.735L407.74 178.629C407.621 178.635 407.502 178.617 407.39 178.574C407.279 178.532 407.178 178.466 407.094 178.382C407.009 178.298 406.944 178.196 406.901 178.085C406.859 177.974 406.84 177.855 406.847 177.735L406.348 159.895C406.327 159.645 406.399 159.396 406.551 159.196C406.704 158.997 406.925 158.861 407.172 158.816L415.582 157.923C415.7 157.918 415.818 157.937 415.928 157.981C416.038 158.024 416.137 158.09 416.22 158.174C416.303 158.258 416.368 158.359 416.41 158.469C416.452 158.58 416.47 158.698 416.463 158.816L416.974 176.657C416.995 176.907 416.923 177.156 416.77 177.355C416.618 177.555 416.397 177.69 416.15 177.735Z" fill="#263238"/>
<path opacity="0.7" d="M416.15 177.735L407.74 178.629C407.621 178.635 407.502 178.617 407.39 178.574C407.279 178.532 407.178 178.466 407.094 178.382C407.009 178.298 406.944 178.196 406.901 178.085C406.859 177.974 406.84 177.855 406.847 177.735L406.348 159.895C406.327 159.645 406.399 159.396 406.551 159.196C406.704 158.997 406.925 158.861 407.172 158.816L415.582 157.923C415.7 157.918 415.818 157.937 415.928 157.981C416.038 158.024 416.137 158.09 416.22 158.174C416.303 158.258 416.368 158.359 416.41 158.469C416.452 158.58 416.47 158.698 416.463 158.816L416.974 176.657C416.995 176.907 416.923 177.156 416.77 177.355C416.618 177.555 416.397 177.69 416.15 177.735Z" fill="white"/>
<path d="M415.593 158.271L413.389 158.503L413.111 159.187L409.7 159.547L409.387 158.932L407.183 159.164C407.024 159.198 406.882 159.288 406.783 159.418C406.685 159.548 406.638 159.709 406.65 159.872L407.148 177.701C407.143 177.779 407.155 177.856 407.182 177.929C407.209 178.002 407.252 178.068 407.307 178.123C407.362 178.177 407.428 178.22 407.501 178.247C407.573 178.275 407.651 178.286 407.728 178.281L416.138 177.388C416.297 177.357 416.439 177.269 416.537 177.141C416.636 177.013 416.683 176.853 416.672 176.692L416.173 158.851C416.176 158.774 416.164 158.697 416.136 158.625C416.108 158.553 416.065 158.488 416.011 158.434C415.956 158.379 415.891 158.336 415.819 158.308C415.747 158.28 415.67 158.268 415.593 158.271Z" fill="#599DD9"/>
<path opacity="0.8" d="M414.468 164.721L408.285 165.382C408.21 165.385 408.134 165.373 408.064 165.345C407.993 165.318 407.929 165.276 407.876 165.223C407.822 165.169 407.781 165.105 407.753 165.035C407.726 164.964 407.713 164.889 407.717 164.813V163.097C407.702 162.937 407.748 162.777 407.844 162.648C407.94 162.52 408.081 162.432 408.239 162.401L414.433 161.739C414.509 161.738 414.584 161.752 414.654 161.78C414.724 161.809 414.787 161.852 414.839 161.907C414.892 161.961 414.932 162.026 414.958 162.097C414.984 162.168 414.995 162.244 414.99 162.319L415.048 164.036C415.058 164.203 415.003 164.367 414.895 164.495C414.787 164.622 414.634 164.703 414.468 164.721Z" fill="white"/>
</svg>
