<svg width="114" height="47" viewBox="0 0 114 47" fill="none" xmlns="http://www.w3.org/2000/svg">
<path d="M19.6667 16.743V1.10025H13.7056V0H26.8342V1.10025H20.8731V16.743H19.6667Z" fill="white"/>
<path d="M35.9841 16.8626C33.934 16.8626 32.3175 16.2567 31.1348 15.0448C29.952 13.8329 29.3606 12.031 29.3606 9.63919V0H30.5671V9.59135C30.5671 11.6802 31.0402 13.227 31.9864 14.2316C32.9326 15.2361 34.273 15.7384 36.0077 15.7384C37.7267 15.7384 39.0592 15.2361 40.0054 14.2316C40.9516 13.227 41.4247 11.6802 41.4247 9.59135V0H42.6311V9.63919C42.6311 12.031 42.0398 13.8329 40.857 15.0448C39.6743 16.2567 38.0499 16.8626 35.9841 16.8626Z" fill="white"/>
<path d="M48.2603 16.743V0H54.1977C55.5855 0 56.7761 0.223241 57.7696 0.669721C58.7631 1.1162 59.528 1.762 60.0642 2.60713C60.6003 3.4363 60.8684 4.44886 60.8684 5.64478C60.8684 6.80882 60.6003 7.8134 60.0642 8.65853C59.528 9.4877 58.7631 10.1335 57.7696 10.5959C56.7761 11.0424 55.5855 11.2657 54.1977 11.2657H48.9226L49.4667 10.6916V16.743H48.2603ZM59.7566 16.743L55.4514 10.6677H56.8234L61.1286 16.743H59.7566ZM49.4667 10.7634L48.9226 10.1893H54.1977C55.9797 10.1893 57.3281 9.79067 58.2427 8.99339C59.1732 8.1961 59.6384 7.0799 59.6384 5.64478C59.6384 4.19372 59.1732 3.07752 58.2427 2.29618C57.3281 1.4989 55.9797 1.10025 54.1977 1.10025H48.9226L49.4667 0.502291V10.7634Z" fill="white"/>
<path d="M65.2855 16.743V0H66.3026L73.9905 13.4183H73.4464L81.1107 0H82.1042L82.1279 16.743H80.9451L80.9215 1.84173H81.2526L73.9905 14.5186H73.3991L66.1134 1.84173H66.4682V16.743H65.2855Z" fill="white"/>
<path d="M85.1333 16.743L92.7503 0H93.9567L101.574 16.743H100.273L93.0814 0.765395H93.6019L86.4344 16.743H85.1333ZM87.9246 12.031L88.3268 11.0025H98.2382L98.6404 12.031H87.9246Z" fill="white"/>
<path d="M11.2953 47C9.65914 47 8.15114 46.7409 6.77126 46.2226C5.41109 45.6845 4.21848 44.9271 3.19343 43.9504C2.18809 42.9737 1.39959 41.8276 0.827927 40.5121C0.275976 39.1966 0 37.7515 0 36.1768C0 34.6022 0.275976 33.1571 0.827927 31.8416C1.39959 30.5261 2.19795 29.38 3.223 28.4033C4.24805 27.4266 5.45052 26.6792 6.8304 26.1609C8.21027 25.6228 9.72814 25.3537 11.384 25.3537C13.2173 25.3537 14.8633 25.6626 16.322 26.2805C17.8004 26.8984 19.0423 27.7954 20.0477 28.9714L16.9725 31.8416C16.2234 31.0443 15.4054 30.4563 14.5183 30.0776C13.6312 29.679 12.6653 29.4796 11.6205 29.4796C10.6152 29.4796 9.69857 29.6391 8.87064 29.958C8.04272 30.2769 7.32321 30.7354 6.71212 31.3333C6.12074 31.9313 5.6575 32.6389 5.32239 33.4561C5.00699 34.2733 4.84929 35.1802 4.84929 36.1768C4.84929 37.1535 5.00699 38.0505 5.32239 38.8677C5.6575 39.6849 6.12074 40.4025 6.71212 41.0204C7.32321 41.6183 8.03286 42.0768 8.84107 42.3957C9.669 42.7146 10.5758 42.874 11.5614 42.874C12.5076 42.874 13.4242 42.7246 14.3113 42.4256C15.2181 42.1067 16.0953 41.5785 16.9429 40.841L19.6633 44.3391C18.5396 45.1961 17.2288 45.8539 15.7306 46.3123C14.2522 46.7708 12.7737 47 11.2953 47ZM15.2871 43.7112V35.848H19.6633V44.3391L15.2871 43.7112Z" fill="white"/>
<path d="M28.4004 46.6412V29.659H21.777V25.7125H39.8139V29.659H33.1905V46.6412H28.4004Z" fill="white"/>
<path d="M42.3913 46.6412V25.7125H47.1814V46.6412H42.3913Z" fill="white"/>
<path d="M66.9727 47C65.4548 47 64.1045 46.7509 62.9217 46.2525C61.739 45.7542 60.8026 45.0765 60.1127 44.2195C59.4228 43.3624 59.0778 42.3757 59.0778 41.2595C59.0778 40.2231 59.3045 39.2962 59.7579 38.479C60.2113 37.6419 60.9308 36.8645 61.9164 36.1469C62.902 35.4095 64.1538 34.6919 65.6716 33.9943C66.7755 33.476 67.6429 33.0176 68.2737 32.619C68.9045 32.2203 69.348 31.8416 69.6043 31.4828C69.8605 31.1041 69.9887 30.7254 69.9887 30.3467C69.9887 29.8285 69.8113 29.4099 69.4564 29.091C69.1213 28.7721 68.6187 28.6126 67.9484 28.6126C67.2388 28.6126 66.6868 28.792 66.2926 29.1508C65.8983 29.5095 65.7012 29.968 65.7012 30.5261C65.7012 30.8251 65.7603 31.124 65.8786 31.423C65.9969 31.7021 66.2236 32.031 66.5587 32.4097C66.8938 32.7684 67.3669 33.2369 67.978 33.8149L78.8889 44.0401L76.3755 47L64.341 35.6985C63.6511 35.0606 63.0991 34.4627 62.6852 33.9046C62.2712 33.3465 61.9657 32.7983 61.7686 32.2602C61.5911 31.722 61.5024 31.1639 61.5024 30.5859C61.5024 29.5693 61.7686 28.6724 62.3008 27.895C62.833 27.1177 63.5821 26.5197 64.548 26.1011C65.5139 25.6626 66.6474 25.4434 67.9484 25.4434C69.1509 25.4434 70.1858 25.6427 71.0532 26.0414C71.9402 26.4201 72.6302 26.9682 73.123 27.6858C73.6355 28.4033 73.8918 29.2604 73.8918 30.257C73.8918 31.134 73.6749 31.9413 73.2412 32.6788C72.8076 33.3963 72.1275 34.074 71.201 34.7118C70.2942 35.3497 69.1016 35.9975 67.6232 36.6552C66.6178 37.1137 65.8195 37.5621 65.2281 38.0006C64.6564 38.4192 64.2425 38.8478 63.9862 39.2863C63.7299 39.7248 63.6018 40.2131 63.6018 40.7513C63.6018 41.2496 63.7497 41.6981 64.0453 42.0967C64.3607 42.4953 64.7944 42.8043 65.3464 43.0235C65.8983 43.2428 66.5488 43.3524 67.2979 43.3524C68.5004 43.3524 69.6043 43.0734 70.6096 42.5153C71.615 41.9372 72.4626 41.0901 73.1525 39.9739C73.8622 38.8378 74.3649 37.4625 74.6605 35.848L78.3567 37.014C77.9427 39.0471 77.2035 40.8111 76.139 42.306C75.0745 43.8009 73.7636 44.957 72.2063 45.7742C70.649 46.5914 68.9045 47 66.9727 47Z" fill="white"/>
<path d="M97.1548 47C95.4989 47 93.9121 46.7808 92.3942 46.3422C90.8764 45.8838 89.6542 45.2958 88.7277 44.5782L90.354 40.9307C91.241 41.5685 92.2858 42.0967 93.4883 42.5153C94.7104 42.9139 95.9425 43.1132 97.1844 43.1132C98.1306 43.1132 98.8895 43.0235 99.4612 42.8442C100.053 42.6448 100.486 42.3757 100.762 42.0369C101.038 41.6981 101.176 41.3094 101.176 40.8709C101.176 40.3128 100.959 39.8743 100.526 39.5553C100.092 39.2165 99.5203 38.9474 98.8106 38.7481C98.101 38.5288 97.3125 38.3295 96.4451 38.1501C95.5975 37.9508 94.74 37.7116 93.8727 37.4326C93.025 37.1535 92.2464 36.7947 91.5367 36.3562C90.8271 35.9177 90.2455 35.3397 89.7922 34.6221C89.3585 33.9046 89.1416 32.9877 89.1416 31.8715C89.1416 30.6756 89.457 29.5893 90.0878 28.6126C90.7384 27.616 91.7043 26.8287 92.9856 26.2506C94.2866 25.6527 95.9129 25.3537 97.8644 25.3537C99.1655 25.3537 100.447 25.5131 101.708 25.8321C102.97 26.131 104.084 26.5895 105.05 27.2074L103.571 30.8849C102.605 30.3268 101.639 29.9182 100.673 29.659C99.7076 29.38 98.7614 29.2405 97.8349 29.2405C96.9084 29.2405 96.1495 29.3501 95.5581 29.5693C94.9667 29.7886 94.5429 30.0776 94.2866 30.4364C94.0304 30.7752 93.9022 31.1739 93.9022 31.6323C93.9022 32.1705 94.1191 32.609 94.5527 32.9478C94.9864 33.2668 95.5581 33.5259 96.2677 33.7252C96.9774 33.9245 97.756 34.1238 98.6037 34.3232C99.471 34.5225 100.329 34.7517 101.176 35.0108C102.044 35.2699 102.832 35.6187 103.542 36.0573C104.251 36.4958 104.823 37.0738 105.257 37.7913C105.71 38.5089 105.937 39.4158 105.937 40.5121C105.937 41.6881 105.611 42.7644 104.961 43.7411C104.31 44.7178 103.335 45.5051 102.034 46.1031C100.752 46.701 99.126 47 97.1548 47Z" fill="white"/>
<path d="M109.21 46.6412V25.7125H114V46.6412H109.21Z" fill="white"/>
</svg>
