<svg width="22" height="16" viewBox="0 0 22 16" fill="none" xmlns="http://www.w3.org/2000/svg">
<path d="M20.415 4.57681L15.6266 9.15248L14.1755 7.77658L12.6017 9.29114L15.6154 12.1709L22 6.09137L20.415 4.57681ZM2.23237 4.2675C2.21862 4.83135 2.32471 5.39202 2.54422 5.91558C2.76373 6.43913 3.09209 6.9147 3.50945 7.31352C3.92681 7.71234 4.4245 8.02611 4.9724 8.23587C5.5203 8.44562 6.10703 8.547 6.69711 8.53386C7.28718 8.547 7.87392 8.44562 8.42182 8.23587C8.96972 8.02611 9.4674 7.71234 9.88476 7.31352C10.3021 6.9147 10.6305 6.43913 10.85 5.91558C11.0695 5.39202 11.1756 4.83135 11.1618 4.2675C11.1756 3.70364 11.0695 3.14297 10.85 2.61942C10.6305 2.09586 10.3021 1.62029 9.88476 1.22147C9.4674 0.822657 8.96972 0.508882 8.42182 0.299127C7.87392 0.0893719 7.28718 -0.0120041 6.69711 0.0011312C6.10703 -0.0120041 5.5203 0.0893719 4.9724 0.299127C4.4245 0.508882 3.92681 0.822657 3.50945 1.22147C3.09209 1.62029 2.76373 2.09586 2.54422 2.61942C2.32471 3.14297 2.21862 3.70364 2.23237 4.2675ZM8.92948 4.2675C8.94383 4.55126 8.89592 4.83476 8.78881 5.09978C8.6817 5.3648 8.51777 5.60549 8.30754 5.80638C8.09731 6.00726 7.84544 6.16391 7.56809 6.26626C7.29075 6.36861 6.99407 6.4144 6.69711 6.40068C6.40015 6.4144 6.10347 6.36861 5.82612 6.26626C5.54878 6.16391 5.2969 6.00726 5.08667 5.80638C4.87645 5.60549 4.71251 5.3648 4.60541 5.09978C4.4983 4.83476 4.45038 4.55126 4.46474 4.2675C4.45038 3.98373 4.4983 3.70023 4.60541 3.43521C4.71251 3.17019 4.87645 2.9295 5.08667 2.72862C5.2969 2.52773 5.54878 2.37108 5.82612 2.26873C6.10347 2.16638 6.40015 2.1206 6.69711 2.13431C6.99407 2.1206 7.29075 2.16638 7.56809 2.26873C7.84544 2.37108 8.09731 2.52773 8.30754 2.72862C8.51777 2.9295 8.6817 3.17019 8.78881 3.43521C8.89592 3.70023 8.94383 3.98373 8.92948 4.2675ZM2.23237 14.9334C2.23237 14.0848 2.58516 13.2709 3.21314 12.6708C3.84111 12.0708 4.69283 11.7336 5.58092 11.7336H7.81329C8.70138 11.7336 9.5531 12.0708 10.1811 12.6708C10.8091 13.2709 11.1618 14.0848 11.1618 14.9334V16H13.3942V14.9334C13.3942 14.2331 13.2499 13.5396 12.9694 12.8926C12.6889 12.2456 12.2778 11.6576 11.7596 11.1624C11.2414 10.6672 10.6261 10.2744 9.94902 10.0064C9.27191 9.73839 8.54619 9.60045 7.81329 9.60045H5.58092C4.10077 9.60045 2.68124 10.1623 1.63461 11.1624C0.587988 12.1626 0 13.519 0 14.9334V16H2.23237V14.9334Z" fill="white"/>
</svg>
