<svg width="20" height="20" viewBox="0 0 20 20" fill="none" xmlns="http://www.w3.org/2000/svg">
<path d="M18.5648 16.2495C18.0976 15.1428 17.4195 14.1376 16.5683 13.2898C15.7198 12.4396 14.7146 11.7617 13.6083 11.2936C13.5984 11.2886 13.5885 11.2861 13.5786 11.2812C15.1218 10.1667 16.125 8.35125 16.125 6.30301C16.125 2.90991 13.3755 0.160767 9.98192 0.160767C6.58838 0.160767 3.83888 2.90991 3.83888 6.30301C3.83888 8.35125 4.84207 10.1667 6.38527 11.2837C6.37536 11.2886 6.36545 11.2911 6.35554 11.2961C5.24583 11.7642 4.25006 12.4353 3.39549 13.2923C2.54515 14.1407 1.86717 15.1458 1.399 16.2519C0.939069 17.3349 0.691019 18.496 0.668275 19.6723C0.667614 19.6987 0.672251 19.725 0.681913 19.7496C0.691575 19.7742 0.706067 19.7967 0.724534 19.8156C0.743002 19.8345 0.765071 19.8496 0.789442 19.8598C0.813813 19.8701 0.839992 19.8754 0.866437 19.8754H2.35266C2.46165 19.8754 2.54834 19.7887 2.55082 19.6822C2.60036 17.7702 3.36824 15.9795 4.72565 14.6223C6.13013 13.218 7.99534 12.4452 9.98192 12.4452C11.9685 12.4452 13.8337 13.218 15.2382 14.6223C16.5956 15.9795 17.3635 17.7702 17.413 19.6822C17.4155 19.7912 17.5022 19.8754 17.6112 19.8754H19.0974C19.1238 19.8754 19.15 19.8701 19.1744 19.8598C19.1988 19.8496 19.2208 19.8345 19.2393 19.8156C19.2578 19.7967 19.2723 19.7742 19.2819 19.7496C19.2916 19.725 19.2962 19.6987 19.2956 19.6723C19.2708 18.4884 19.0256 17.3367 18.5648 16.2495ZM9.98192 10.5629C8.84496 10.5629 7.77488 10.1196 6.96984 9.31469C6.16481 8.50976 5.72142 7.43982 5.72142 6.30301C5.72142 5.1662 6.16481 4.09626 6.96984 3.29133C7.77488 2.4864 8.84496 2.04307 9.98192 2.04307C11.1189 2.04307 12.189 2.4864 12.994 3.29133C13.799 4.09626 14.2424 5.1662 14.2424 6.30301C14.2424 7.43982 13.799 8.50976 12.994 9.31469C12.189 10.1196 11.1189 10.5629 9.98192 10.5629Z" fill="white"/>
</svg>
