<svg width="574" height="351" viewBox="0 0 574 351" fill="none" xmlns="http://www.w3.org/2000/svg">
<path d="M560.265 227.278L548.955 227.52L543.214 227.615C541.292 227.658 539.361 227.615 537.439 227.666H537.06V227.278L537.008 217.607V217.176H537.439L548.852 217.227C552.662 217.227 556.463 217.322 560.265 217.365H560.506V217.607C560.506 219.245 560.437 220.874 560.394 222.486L560.265 227.278ZM560.265 227.278L560.144 222.408C560.101 220.805 560.049 219.219 560.032 217.633L560.265 217.874C556.463 217.917 552.662 218.012 548.852 218.012L537.439 218.064L537.87 217.633V227.278L537.482 226.899C539.361 226.899 541.24 226.899 543.128 226.942L548.74 227.089L560.265 227.278Z" fill="#EBEBEB"/>
<path d="M547.533 239.44L536.223 239.681L530.474 239.776C528.56 239.776 526.629 239.776 524.707 239.828H524.328V239.44V229.794V229.363H524.759L536.172 229.424C539.973 229.424 543.783 229.518 547.585 229.562H547.826V229.794C547.826 231.432 547.757 233.061 547.714 234.673L547.533 239.44ZM547.533 239.44L547.412 234.57C547.369 232.966 547.317 231.38 547.3 229.794L547.533 230.036C543.731 230.079 539.921 230.174 536.12 230.174L524.707 230.225L525.138 229.794V239.44L524.75 239.061C526.629 239.061 528.509 239.061 530.396 239.104L536.06 239.207L547.533 239.44Z" fill="#EBEBEB"/>
<path d="M572.996 239.44L561.687 239.681L555.946 239.776C554.024 239.776 552.093 239.776 550.171 239.828H549.791V239.44L549.74 229.794V229.363H550.171L561.584 229.424C565.394 229.424 569.195 229.518 572.996 229.562H573.238V229.794C573.238 231.432 573.16 233.061 573.126 234.673L572.996 239.44ZM572.996 239.44L572.876 234.57C572.876 232.966 572.781 231.38 572.764 229.794L572.996 230.036C569.195 230.079 565.394 230.174 561.584 230.174L550.171 230.225L550.602 229.794V239.44L550.214 239.061C552.102 239.061 553.972 239.061 555.86 239.104L561.532 239.207L572.996 239.44Z" fill="#EBEBEB"/>
<path d="M234.791 112.503L223.482 112.745L217.741 112.84C215.819 112.84 213.888 112.84 211.965 112.84H211.586V112.452L211.534 102.806V102.375H211.965L223.378 102.427C227.188 102.427 230.99 102.522 234.791 102.565H235.033V102.797C235.033 104.435 234.955 106.056 234.912 107.668L234.791 112.503ZM234.791 112.503L234.67 107.625C234.67 106.021 234.576 104.435 234.558 102.858L234.791 103.09C230.99 103.09 227.188 103.228 223.378 103.228L211.965 103.289L212.396 102.858L212.353 112.503L211.965 112.116C213.845 112.116 215.724 112.116 217.612 112.167L223.283 112.262L234.791 112.503Z" fill="#EBEBEB"/>
<path d="M222.042 124.665L210.733 124.906L204.983 125.001C203.07 125.001 201.139 125.001 199.216 125.044H198.837V124.656L198.768 115.028V114.597H199.199L210.612 114.648C214.413 114.648 218.224 114.743 222.025 114.786H222.266V115.028C222.266 116.665 222.197 118.286 222.154 119.898L222.042 124.665ZM222.042 124.665L221.921 119.786C221.878 118.183 221.827 116.597 221.809 115.019L222.042 115.252C218.241 115.295 214.431 115.39 210.629 115.39L199.216 115.45L199.647 115.019L199.63 124.665L199.242 124.277C201.121 124.277 203.001 124.277 204.888 124.329L210.552 124.423L222.042 124.665Z" fill="#EBEBEB"/>
<path d="M247.523 124.665L236.213 124.906L230.472 125.001C228.55 125.001 226.628 125.001 224.697 125.044H224.318V124.656L224.266 115.028V114.597H224.697L236.11 114.648C239.92 114.648 243.721 114.743 247.523 114.786H247.764V115.028C247.764 116.665 247.686 118.286 247.652 119.898L247.523 124.665ZM247.523 124.665L247.402 119.786C247.402 118.183 247.307 116.597 247.29 115.019L247.523 115.252C243.721 115.295 239.92 115.39 236.11 115.39L224.697 115.45L225.128 115.019L225.085 124.665L224.697 124.277C226.585 124.277 228.455 124.277 230.343 124.329L236.015 124.423L247.523 124.665Z" fill="#EBEBEB"/>
<path d="M48.677 176.326L37.3676 176.567L31.618 176.662C29.7044 176.662 27.7735 176.662 25.8513 176.705H25.5065V176.317V166.671V166.24H25.9375L37.3503 166.292C41.1517 166.292 44.9618 166.387 48.7632 166.43H49.0045V166.663C49.0045 168.3 48.9356 169.921 48.8925 171.533L48.677 176.326ZM48.677 176.326L48.5563 171.447C48.5563 169.843 48.4615 168.257 48.4442 166.68L48.677 166.913C44.8756 166.956 41.0655 167.051 37.2641 167.051L25.8513 167.111L26.2823 166.68L26.2392 176.326L25.8513 175.938C27.7304 175.938 29.6096 175.938 31.4974 175.989L37.1607 176.084L48.677 176.326Z" fill="#EBEBEB"/>
<path d="M427.077 112.494L415.768 112.735L410.027 112.83C408.104 112.873 406.174 112.83 404.251 112.873H403.872V112.485L403.82 102.839V102.408H404.251L415.664 102.46C419.474 102.46 423.276 102.563 427.077 102.606H427.318V102.839C427.318 104.477 427.249 106.106 427.206 107.709L427.077 112.494ZM427.077 112.494L426.956 107.623C426.913 106.011 426.862 104.425 426.844 102.848L427.077 103.081C423.276 103.124 419.474 103.218 415.664 103.227L404.251 103.279L404.682 102.848L404.639 112.494L404.251 112.106C406.13 112.106 408.01 112.106 409.897 112.157L415.569 112.252L427.077 112.494Z" fill="#EBEBEB"/>
<path d="M558.946 18.8111L547.636 19.0525L541.887 19.1473C539.973 19.1473 538.042 19.1473 536.12 19.199H535.741V18.8111V9.16537V8.73438H536.172L547.585 8.7861C551.386 8.7861 555.196 8.88953 558.997 8.93263H559.239V9.16537C559.239 10.8032 559.17 12.4323 559.127 14.0357L558.946 18.8111ZM558.946 18.8111L558.825 13.9408C558.782 12.3289 558.73 10.7428 558.713 9.16537L558.946 9.39811C555.144 9.39811 551.334 9.53604 547.533 9.54466L536.12 9.59637L536.551 9.16537L536.508 18.8111L536.12 18.4232C537.999 18.4232 539.878 18.4232 541.766 18.475L547.429 18.5698L558.946 18.8111Z" fill="#EBEBEB"/>
<path d="M571.677 30.9731L560.368 31.2144L554.627 31.3093C552.705 31.3524 550.774 31.3093 548.852 31.3524H548.472V30.9645L548.421 21.3187V20.8877H548.852L560.265 20.9394C564.075 20.9394 567.876 21.0429 571.677 21.086H571.919V21.3187C571.919 22.9565 571.841 24.5857 571.798 26.189L571.677 30.9731ZM571.677 30.9731L571.557 26.1028C571.557 24.4908 571.462 22.9048 571.445 21.3273L571.677 21.5601C567.876 21.6032 564.075 21.698 560.265 21.7066L548.852 21.7583L549.283 21.3273V30.9731L548.895 30.5852C550.774 30.5852 552.653 30.5852 554.541 30.6369L560.213 30.7317L571.677 30.9731Z" fill="#EBEBEB"/>
<path d="M23.2136 18.8199L11.8956 19.0613L6.15467 19.1561C4.24103 19.1561 2.31016 19.1561 0.3879 19.2078H0V18.8199V9.17416V8.74316H0.439618L11.8525 8.8035C15.6539 8.8035 19.4553 8.89832 23.2653 8.94142H23.4981V9.17416C23.4981 10.812 23.4205 12.4411 23.386 14.0531L23.2136 18.8199ZM23.2136 18.8199L23.0843 13.9496C23.0843 12.3377 22.9895 10.7516 22.9723 9.17416L23.2136 9.4069C19.4036 9.45862 15.6022 9.54482 11.8008 9.55344L0.3879 9.60516L0.818899 9.17416L0.767178 18.8199L0.3879 18.4837C2.26706 18.4837 4.13759 18.4837 6.02537 18.4837L11.6973 18.5786L23.2136 18.8199Z" fill="#EBEBEB"/>
<path d="M16.2744 90.5904C16.6347 90.3685 17.0495 90.2509 17.4726 90.2509C17.8957 90.2509 18.3105 90.3685 18.6708 90.5904L19.2914 90.9438C19.4983 91.0559 19.7138 91.1679 19.9293 91.2628C20.3147 91.4382 20.6437 91.7173 20.8796 92.069C21.1156 92.4206 21.2491 92.8309 21.2654 93.254L21.3602 96.202L30.9801 95.9089L30.8939 92.9523C30.8792 92.5275 30.9847 92.1073 31.1982 91.7398C31.4117 91.3723 31.7245 91.0725 32.1007 90.8749C32.5206 90.6496 32.9265 90.3992 33.3161 90.1249C33.6613 89.8817 34.0669 89.7386 34.4882 89.7112C34.9095 89.6838 35.3302 89.7733 35.7039 89.9698L38.2899 91.3662L42.8412 82.8755L40.2552 81.4791C39.8849 81.2782 39.5776 80.9784 39.3675 80.6131C39.1575 80.2478 39.053 79.8314 39.0657 79.4103C39.0744 78.9327 39.0572 78.455 39.014 77.9794C38.9752 77.5574 39.0536 77.1328 39.2407 76.7526C39.4278 76.3724 39.7162 76.0511 40.0742 75.8244L42.5912 74.2642L37.5141 66.0838L34.9884 67.6612C34.6298 67.8834 34.2164 68.0011 33.7946 68.0011C33.3727 68.0011 32.9593 67.8834 32.6007 67.6612C32.3938 67.5406 32.1955 67.4199 31.98 67.3078L31.3508 66.9889C30.9644 66.8138 30.6341 66.5351 30.3967 66.1835C30.1593 65.832 30.0241 65.4215 30.0061 64.9977L29.9199 62.041L20.3344 62.3255L20.4293 65.2735C20.438 65.6972 20.33 66.115 20.1172 66.4814C19.9043 66.8478 19.5948 67.1486 19.2225 67.3509C18.7985 67.5771 18.3897 67.8305 17.9984 68.1095C17.6516 68.353 17.244 68.4956 16.821 68.5215C16.3979 68.5473 15.976 68.4554 15.6021 68.256L13.0161 66.8682L8.42163 75.3761L11.0076 76.7726C11.3779 76.9706 11.6864 77.2668 11.8993 77.6287C12.1122 77.9907 12.2213 78.4043 12.2144 78.8241C12.2028 79.3044 12.2172 79.7849 12.2575 80.2637C12.2973 80.6858 12.2193 81.1106 12.0321 81.4911C11.8449 81.8715 11.556 82.1926 11.1973 82.4187L8.68885 83.9961L13.766 92.1765L16.2744 90.5904ZM18.688 75.3761C19.4247 74.0034 20.5518 72.8799 21.9269 72.1476C23.302 71.4153 24.8633 71.1071 26.4134 71.262C27.9636 71.4169 29.4331 72.0278 30.6361 73.0177C31.8392 74.0076 32.7217 75.3319 33.1722 76.8232C33.6228 78.3145 33.6211 79.906 33.1673 81.3963C32.7136 82.8867 31.8282 84.2091 30.623 85.1963C29.4179 86.1836 27.9471 86.7914 26.3966 86.9429C24.846 87.0945 23.2854 86.7829 21.9119 86.0477C20.9991 85.5591 20.1916 84.8953 19.5355 84.0944C18.8794 83.2935 18.3876 82.3712 18.0882 81.3801C17.7888 80.389 17.6877 79.3486 17.7906 78.3184C17.8935 77.2882 18.1985 76.2884 18.688 75.3761Z" fill="#EBEBEB"/>
<path d="M476.219 271.816C476.475 271.966 476.684 272.184 476.822 272.446C476.961 272.708 477.024 273.003 477.004 273.299C477.004 273.471 477.004 273.635 477.004 273.799C477.004 273.963 477.004 274.135 477.004 274.299C477.024 274.594 476.961 274.89 476.822 275.152C476.684 275.413 476.475 275.631 476.219 275.781L474.427 276.816L477.797 282.66L479.59 281.626C479.853 281.469 480.155 281.392 480.461 281.403C480.766 281.413 481.063 281.512 481.314 281.686C481.593 281.867 481.88 282.034 482.176 282.186C482.437 282.321 482.655 282.525 482.807 282.776C482.959 283.027 483.039 283.315 483.038 283.608V285.703H489.787V283.634C489.787 283.341 489.868 283.053 490.02 282.803C490.171 282.552 490.389 282.347 490.649 282.212C490.947 282.064 491.235 281.897 491.511 281.712C491.763 281.538 492.059 281.439 492.364 281.429C492.67 281.418 492.972 281.495 493.235 281.652L495.028 282.686L498.399 276.842L496.597 275.799C496.344 275.649 496.137 275.432 496 275.172C495.863 274.911 495.801 274.618 495.821 274.325C495.821 274.161 495.821 273.988 495.821 273.825C495.821 273.661 495.821 273.497 495.821 273.325C495.801 273.029 495.864 272.734 496.003 272.472C496.141 272.21 496.35 271.992 496.606 271.842L498.399 270.808L495.028 264.963L493.244 265.998C492.981 266.154 492.679 266.231 492.373 266.221C492.067 266.21 491.771 266.112 491.52 265.937C491.235 265.756 490.942 265.593 490.658 265.437C490.398 265.302 490.18 265.098 490.028 264.847C489.876 264.596 489.796 264.308 489.796 264.015V261.946H483.046V264.015C483.048 264.309 482.968 264.597 482.816 264.848C482.664 265.098 482.445 265.303 482.184 265.437C481.889 265.589 481.601 265.756 481.323 265.937C481.071 266.112 480.775 266.21 480.469 266.221C480.164 266.231 479.861 266.154 479.599 265.998L477.806 264.963L474.435 270.808L476.219 271.816ZM486.4 268.273C487.493 268.273 488.561 268.597 489.469 269.205C490.378 269.812 491.086 270.675 491.504 271.684C491.923 272.694 492.032 273.805 491.819 274.877C491.606 275.949 491.079 276.933 490.307 277.706C489.534 278.479 488.549 279.005 487.478 279.218C486.406 279.431 485.295 279.322 484.285 278.904C483.276 278.485 482.413 277.777 481.805 276.869C481.198 275.96 480.874 274.892 480.874 273.799C480.874 272.333 481.456 270.928 482.493 269.892C483.529 268.855 484.934 268.273 486.4 268.273Z" fill="#EBEBEB"/>
<path d="M506.183 230.967C506.188 236.16 507.733 241.236 510.622 245.552C513.511 249.868 517.615 253.23 522.414 255.214C527.214 257.198 532.494 257.714 537.588 256.698C542.681 255.682 547.358 253.178 551.029 249.504C554.7 245.83 557.199 241.15 558.21 236.055C559.221 230.961 558.7 225.681 556.711 220.884C554.722 216.086 551.356 211.985 547.037 209.1C542.718 206.216 537.641 204.676 532.448 204.676C528.997 204.677 525.58 205.358 522.392 206.68C519.204 208.002 516.308 209.939 513.869 212.38C511.43 214.822 509.496 217.72 508.177 220.909C506.858 224.098 506.18 227.516 506.183 230.967ZM520.181 230.967C520.178 228.538 520.895 226.163 522.242 224.142C523.589 222.121 525.506 220.545 527.749 219.613C529.992 218.682 532.461 218.437 534.844 218.909C537.226 219.381 539.415 220.55 541.133 222.267C542.851 223.984 544.021 226.172 544.495 228.554C544.969 230.936 544.726 233.405 543.796 235.649C542.866 237.893 541.291 239.81 539.271 241.159C537.251 242.507 534.877 243.226 532.448 243.224C529.197 243.222 526.079 241.93 523.78 239.632C521.48 237.334 520.186 234.218 520.181 230.967Z" fill="#EBEBEB"/>
<path d="M527.396 205.786H537.499L536.939 198.632H527.957L527.396 205.786Z" fill="#EBEBEB"/>
<path d="M546.628 209.193L553.765 216.33L558.428 210.882L552.076 204.529L546.628 209.193Z" fill="#EBEBEB"/>
<path d="M557.816 225.192V235.295L564.962 234.735V225.753L557.816 225.192Z" fill="#EBEBEB"/>
<path d="M554.412 244.413L547.266 251.559L552.722 256.222L559.075 249.87L554.412 244.413Z" fill="#EBEBEB"/>
<path d="M538.404 255.602H528.31L528.87 262.756H537.852L538.404 255.602Z" fill="#EBEBEB"/>
<path d="M519.182 252.198L512.036 245.061L507.381 250.508L513.734 256.861L519.182 252.198Z" fill="#EBEBEB"/>
<path d="M507.993 236.199V226.097L500.847 226.657V235.639L507.993 236.199Z" fill="#EBEBEB"/>
<path d="M511.398 216.977L518.544 209.831L513.088 205.168L506.735 211.521L511.398 216.977Z" fill="#EBEBEB"/>
<path d="M514.958 60.7218C512.734 61.2217 511.01 59.8598 511.01 57.7737C510.99 57.1341 511.173 56.5046 511.534 55.9762C511.895 55.4478 512.415 55.0479 513.018 54.8343C519.983 52.6793 520.992 50.4554 520.992 45.5765C520.992 44.1369 520.845 41.775 520.845 40.2665C520.845 34.6635 523.5 32.0086 528.31 30.4311C523.569 28.9226 520.845 26.1901 520.845 20.5957C520.845 19.0872 520.992 16.7167 520.992 15.2858C520.992 10.4069 519.983 8.17434 513.018 6.02796C512.415 5.81162 511.896 5.40986 511.535 4.88027C511.174 4.35068 510.99 3.72045 511.01 3.07993C511.01 1.00252 512.734 -0.368061 514.958 0.140518C526.086 2.57997 529.026 7.03651 529.026 13.9928C529.026 15.0703 528.879 17.9408 528.879 19.1648C528.879 24.4834 530.75 26.7763 535.628 26.9918C537.93 27.1383 539.292 28.5003 539.292 30.4398C539.292 32.3793 537.93 33.7412 535.628 33.8878C530.75 34.0343 528.879 36.4048 528.879 41.6457C528.879 42.8612 529.026 45.7316 529.026 46.8177C529.026 53.8258 526.086 58.2478 514.958 60.7218Z" fill="#EBEBEB"/>
<path d="M501.037 0.106338C503.261 -0.402241 504.976 0.968336 504.976 3.04575C504.998 3.69625 504.806 4.33604 504.431 4.86807C504.057 5.4001 503.518 5.79532 502.899 5.99378C496.003 8.14016 495.003 10.3727 495.003 15.2516C495.003 16.6826 495.149 19.0531 495.149 20.5616C495.149 26.1559 492.494 28.8195 487.684 30.397C492.417 31.9055 495.149 34.6294 495.149 40.2324C495.149 41.7409 495.003 44.1027 495.003 45.5423C495.003 50.4212 496.011 52.6451 502.899 54.8001C503.518 54.9969 504.056 55.3906 504.431 55.9211C504.806 56.4517 504.997 57.0902 504.976 57.7395C504.976 59.8256 503.252 61.1875 501.037 60.6876C489.908 58.2481 486.96 53.7916 486.96 46.7577C486.96 45.6802 487.107 42.8097 487.107 41.5857C487.107 36.3447 485.167 33.9743 480.288 33.8277C478.064 33.6898 476.702 32.3278 476.702 30.3797C476.702 28.4316 478.064 27.0783 480.288 26.9317C485.167 26.7162 487.107 24.4233 487.107 19.1048C487.107 17.8894 486.96 15.0189 486.96 13.9328C486.96 6.99371 489.908 2.54579 501.037 0.106338Z" fill="#EBEBEB"/>
<path d="M45.5824 164.455C45.996 164.861 46.2796 165.38 46.3973 165.948C46.515 166.515 46.4615 167.104 46.2435 167.641C46.0254 168.178 45.6528 168.638 45.1729 168.962C44.693 169.287 44.1274 169.461 43.5481 169.464C42.7515 169.46 41.9863 169.152 41.4104 168.602L28.3683 155.404C28.3077 155.382 28.2541 155.344 28.2132 155.294C28.1722 155.244 28.1455 155.184 28.1356 155.12C28.0892 155.085 28.0402 155.053 27.989 155.025C27.9281 154.908 27.8818 154.783 27.8511 154.654C27.8146 154.639 27.7827 154.614 27.7585 154.582C27.7344 154.55 27.7188 154.513 27.7132 154.473C27.7132 154.379 27.7132 154.241 27.6184 154.189C27.5236 154.137 27.5236 154.008 27.5236 153.956V153.637C27.5236 153.542 27.5236 153.499 27.5236 153.361C27.5236 153.223 27.5236 153.172 27.5236 153.129V152.801C27.5236 152.706 27.6184 152.663 27.6184 152.611C27.6184 152.56 27.6701 152.387 27.7132 152.241C27.7563 152.094 27.7132 152.241 27.7132 152.155C27.7831 152.01 27.8608 151.869 27.9459 151.732C27.9459 151.707 27.9559 151.683 27.9737 151.665C27.9915 151.647 28.0156 151.637 28.0408 151.637C28.105 151.507 28.2033 151.397 28.3252 151.318L41.3673 138.087C41.9278 137.547 42.6754 137.246 43.4533 137.246C44.2312 137.246 44.9788 137.547 45.5393 138.087C45.8156 138.359 46.035 138.684 46.1847 139.042C46.3344 139.4 46.4115 139.785 46.4115 140.173C46.4115 140.561 46.3344 140.945 46.1847 141.303C46.035 141.661 45.8156 141.986 45.5393 142.259L34.5833 153.361L45.5824 164.455Z" fill="#EBEBEB"/>
<path d="M57.4006 165.938L68.7789 138.871C69.0517 138.245 69.5609 137.753 70.1956 137.501C70.8303 137.249 71.5388 137.258 72.1666 137.527C72.775 137.792 73.2536 138.287 73.4976 138.904C73.7415 139.521 73.731 140.21 73.4682 140.82L62.0898 167.938C61.8847 168.394 61.5515 168.781 61.1308 169.052C60.71 169.323 60.2197 169.466 59.7193 169.464C59.4024 169.471 59.0878 169.409 58.797 169.283C58.4818 169.16 58.1945 168.975 57.9524 168.738C57.7104 168.502 57.5184 168.219 57.3881 167.907C57.2577 167.595 57.1916 167.26 57.1938 166.921C57.1959 166.583 57.2663 166.249 57.4006 165.938Z" fill="#EBEBEB"/>
<path d="M95.9318 155.026V155.078C95.8314 155.195 95.7219 155.305 95.6043 155.405L82.5622 168.637C82.002 169.185 81.2511 169.494 80.4676 169.499C79.6863 169.495 78.9376 169.186 78.3815 168.637C78.105 168.363 77.8855 168.038 77.7356 167.679C77.5858 167.32 77.5087 166.935 77.5087 166.546C77.5087 166.158 77.5858 165.773 77.7356 165.414C77.8855 165.055 78.105 164.73 78.3815 164.456L89.3806 153.362L78.3815 142.26C78.1053 141.987 77.8859 141.662 77.7362 141.304C77.5865 140.946 77.5094 140.562 77.5094 140.174C77.5094 139.786 77.5865 139.401 77.7362 139.043C77.8859 138.685 78.1053 138.36 78.3815 138.088C78.9435 137.548 79.6926 137.246 80.4719 137.246C81.2512 137.246 82.0003 137.548 82.5622 138.088L95.6043 151.319C95.7258 151.412 95.8357 151.519 95.9318 151.638V151.733C96.0186 151.869 96.0964 152.01 96.1646 152.155C96.1646 152.199 96.2163 152.199 96.2163 152.242C96.2455 152.386 96.2888 152.528 96.3456 152.664C96.3456 152.707 96.3973 152.707 96.3973 152.802V153.129C96.3973 153.173 96.449 153.311 96.449 153.362C96.449 153.414 96.3973 153.543 96.3973 153.586V153.957C96.3973 154.009 96.3456 154.009 96.3456 154.052C96.2594 154.241 96.2594 154.379 96.2163 154.474C96.1732 154.569 96.1646 154.517 96.1646 154.612C96.1646 154.707 96.0266 154.845 95.9318 155.026Z" fill="#EBEBEB"/>
<path d="M7.16309 350.569L77.0453 350.362L146.928 350.284L286.692 350.138L426.456 350.284L496.339 350.362L566.221 350.569L496.339 350.784L426.456 350.862L286.692 351L146.928 350.853L77.0453 350.784L7.16309 350.569Z" fill="#263238"/>
<path d="M548.317 331.512H25.0582V350.57H548.317V331.512Z" fill="#C7C7C7"/>
<path d="M494.261 53.8271H79.1313V331.52H494.261V53.8271Z" fill="#DBDBDB"/>
<path d="M491.244 57.2158H82.1484V328.133H491.244V57.2158Z" fill="#37474F"/>
<path d="M473.125 74.627H100.259V310.711H473.125V74.627Z" fill="#263238"/>
<path d="M473.125 74.627H100.259V83.7124H473.125V74.627Z" fill="#599DD9"/>
<path d="M108.81 79.1703C108.81 79.5113 108.709 79.8446 108.52 80.1281C108.33 80.4116 108.061 80.6326 107.746 80.7631C107.431 80.8935 107.084 80.9277 106.75 80.8612C106.415 80.7946 106.108 80.6304 105.867 80.3893C105.626 80.1482 105.462 79.841 105.395 79.5066C105.329 79.1722 105.363 78.8256 105.493 78.5105C105.624 78.1955 105.845 77.9263 106.128 77.7368C106.412 77.5474 106.745 77.4463 107.086 77.4463C107.543 77.4463 107.982 77.6279 108.305 77.9512C108.628 78.2745 108.81 78.7131 108.81 79.1703Z" fill="#C7C7C7"/>
<path d="M115.835 79.1703C115.835 79.5113 115.734 79.8446 115.545 80.1281C115.355 80.4116 115.086 80.6326 114.771 80.7631C114.456 80.8935 114.109 80.9277 113.775 80.8612C113.441 80.7946 113.133 80.6304 112.892 80.3893C112.651 80.1482 112.487 79.841 112.42 79.5066C112.354 79.1722 112.388 78.8256 112.519 78.5105C112.649 78.1955 112.87 77.9263 113.154 77.7368C113.437 77.5474 113.77 77.4463 114.111 77.4463C114.569 77.4463 115.007 77.6279 115.33 77.9512C115.654 78.2745 115.835 78.7131 115.835 79.1703Z" fill="white"/>
<path d="M122.852 79.1703C122.852 79.5113 122.751 79.8446 122.561 80.1281C122.372 80.4116 122.103 80.6326 121.788 80.7631C121.473 80.8935 121.126 80.9277 120.792 80.8612C120.457 80.7946 120.15 80.6304 119.909 80.3893C119.668 80.1482 119.504 79.841 119.437 79.5066C119.371 79.1722 119.405 78.8256 119.535 78.5105C119.666 78.1955 119.887 77.9263 120.17 77.7368C120.454 77.5474 120.787 77.4463 121.128 77.4463C121.585 77.4463 122.024 77.6279 122.347 77.9512C122.67 78.2745 122.852 78.7131 122.852 79.1703Z" fill="#455A64"/>
<path d="M132.653 124.071H124.085V125.752H132.653V124.071Z" fill="#EBEBEB"/>
<path d="M332.662 124.071H142.764V125.752H332.662V124.071Z" fill="#EBEBEB"/>
<path d="M354.203 124.071H337.929V125.752H354.203V124.071Z" fill="#599DD9"/>
<path d="M418.897 163.689H363.97V165.362H418.897V163.689Z" fill="#EBEBEB"/>
<path d="M438.369 124.071H357.738V125.752H438.369V124.071Z" fill="#A6A6A6"/>
<path d="M132.653 131.993H124.085V133.674H132.653V131.993Z" fill="#EBEBEB"/>
<path d="M215.603 131.993H151.108V133.674H215.603V131.993Z" fill="#A6A6A6"/>
<path d="M360.1 163.689H335.705V165.362H360.1V163.689Z" fill="#A6A6A6"/>
<path d="M204.362 155.768H142.764V157.448H204.362V155.768Z" fill="#A6A6A6"/>
<path d="M194.32 139.924H151.108V141.605H194.32V139.924Z" fill="#599DD9"/>
<path d="M430.672 147.846H348.808V149.518H430.672V147.846Z" fill="#A6A6A6"/>
<path d="M332.662 186.73H250.798V188.403H332.662V186.73Z" fill="#A6A6A6"/>
<path d="M359.763 139.924H199.121V141.605H359.763V139.924Z" fill="#A6A6A6"/>
<path d="M330.137 163.689H142.764V165.362H330.137V163.689Z" fill="#599DD9"/>
<path d="M352.385 131.993H219.654V133.674H352.385V131.993Z" fill="#EBEBEB"/>
<path d="M394.416 139.924H366.625V141.605H394.416V139.924Z" fill="#EBEBEB"/>
<path d="M132.653 139.924H124.085V141.605H132.653V139.924Z" fill="#EBEBEB"/>
<path d="M132.653 147.846H124.085V149.518H132.653V147.846Z" fill="#A6A6A6"/>
<path d="M193.398 147.846H142.764V149.518H193.398V147.846Z" fill="#EBEBEB"/>
<path d="M201.742 171.611H151.108V173.292H201.742V171.611Z" fill="#EBEBEB"/>
<path d="M407.837 179.533H337.153V181.214H407.837V179.533Z" fill="#599DD9"/>
<path d="M332.723 179.533H196.898V181.214H332.723V179.533Z" fill="#EBEBEB"/>
<path d="M189.166 179.533H151.108V181.214H189.166V179.533Z" fill="#A6A6A6"/>
<path d="M354.195 155.768H207.845V157.448H354.195V155.768Z" fill="#EBEBEB"/>
<path d="M445.058 155.768H357.738V157.448H445.058V155.768Z" fill="#599DD9"/>
<path d="M344.825 147.846H198.535V149.518H344.825V147.846Z" fill="#599DD9"/>
<path d="M132.653 155.768H124.085V157.448H132.653V155.768Z" fill="#EBEBEB"/>
<path d="M132.653 163.689H124.085V165.362H132.653V163.689Z" fill="#EBEBEB"/>
<path d="M132.653 171.611H124.085V173.292H132.653V171.611Z" fill="#A6A6A6"/>
<path d="M132.653 179.533H124.085V181.214H132.653V179.533Z" fill="#EBEBEB"/>
<path d="M132.653 186.73H124.085V188.403H132.653V186.73Z" fill="#EBEBEB"/>
<path d="M243.213 186.73H142.764V188.403H243.213V186.73Z" fill="#EBEBEB"/>
<path d="M132.653 194.652H124.085V196.333H132.653V194.652Z" fill="#EBEBEB"/>
<path d="M215.603 194.652H151.108V196.333H215.603V194.652Z" fill="#A6A6A6"/>
<path d="M204.362 218.416H142.764V220.088H204.362V218.416Z" fill="#A6A6A6"/>
<path d="M194.32 202.574H151.108V204.255H194.32V202.574Z" fill="#599DD9"/>
<path d="M293.286 234.269H250.074V235.949H293.286V234.269Z" fill="#599DD9"/>
<path d="M194.32 250.112H151.108V251.793H194.32V250.112Z" fill="#599DD9"/>
<path d="M359.763 202.574H199.121V204.255H359.763V202.574Z" fill="#A6A6A6"/>
<path d="M330.137 226.338H142.764V228.019H330.137V226.338Z" fill="#599DD9"/>
<path d="M352.385 194.652H219.654V196.333H352.385V194.652Z" fill="#EBEBEB"/>
<path d="M380.495 210.496H352.756V212.177H380.495V210.496Z" fill="#EBEBEB"/>
<path d="M132.653 202.574H124.085V204.255H132.653V202.574Z" fill="#EBEBEB"/>
<path d="M132.653 210.496H124.085V212.177H132.653V210.496Z" fill="#A6A6A6"/>
<path d="M193.398 210.496H142.764V212.177H193.398V210.496Z" fill="#EBEBEB"/>
<path d="M354.195 218.416H207.845V220.088H354.195V218.416Z" fill="#EBEBEB"/>
<path d="M344.825 210.496H198.535V212.177H344.825V210.496Z" fill="#599DD9"/>
<path d="M132.653 218.416H124.085V220.088H132.653V218.416Z" fill="#EBEBEB"/>
<path d="M132.653 234.269H124.085V235.949H132.653V234.269Z" fill="#EBEBEB"/>
<path d="M243.213 234.269H142.764V235.949H243.213V234.269Z" fill="#EBEBEB"/>
<path d="M132.653 242.19H124.085V243.871H132.653V242.19Z" fill="#EBEBEB"/>
<path d="M215.603 242.19H151.108V243.871H215.603V242.19Z" fill="#A6A6A6"/>
<path d="M204.362 265.956H142.764V267.637H204.362V265.956Z" fill="#A6A6A6"/>
<path d="M359.763 250.112H199.121V251.793H359.763V250.112Z" fill="#A6A6A6"/>
<path d="M380.495 258.034H352.756V259.715H380.495V258.034Z" fill="#EBEBEB"/>
<path d="M132.653 250.112H124.085V251.793H132.653V250.112Z" fill="#EBEBEB"/>
<path d="M132.653 258.034H124.085V259.715H132.653V258.034Z" fill="#A6A6A6"/>
<path d="M193.398 258.034H142.764V259.715H193.398V258.034Z" fill="#EBEBEB"/>
<path d="M354.195 265.956H207.845V267.637H354.195V265.956Z" fill="#EBEBEB"/>
<path d="M344.825 258.034H198.535V259.715H344.825V258.034Z" fill="#599DD9"/>
<path d="M132.653 265.956H124.085V267.637H132.653V265.956Z" fill="#EBEBEB"/>
<path d="M130.593 109.297L132.851 103.918C132.877 103.856 132.916 103.8 132.964 103.753C133.012 103.706 133.069 103.669 133.131 103.644C133.194 103.62 133.261 103.607 133.328 103.608C133.395 103.61 133.462 103.624 133.523 103.651C133.584 103.676 133.639 103.714 133.685 103.761C133.731 103.807 133.767 103.863 133.791 103.924C133.815 103.985 133.827 104.05 133.825 104.116C133.824 104.182 133.809 104.246 133.782 104.306L131.532 109.694C131.492 109.786 131.426 109.865 131.341 109.92C131.257 109.975 131.159 110.004 131.058 110.004C130.999 110.02 130.936 110.02 130.877 110.004C130.807 109.982 130.743 109.946 130.69 109.896C130.636 109.847 130.594 109.786 130.567 109.718C130.54 109.651 130.528 109.578 130.532 109.505C130.537 109.432 130.557 109.361 130.593 109.297Z" fill="#599DD9"/>
<path d="M138.256 107.133L138.187 107.193L135.601 109.822C135.546 109.882 135.479 109.929 135.405 109.962C135.331 109.994 135.251 110.011 135.17 110.011C135.089 110.011 135.009 109.994 134.935 109.962C134.86 109.929 134.794 109.882 134.739 109.822C134.678 109.768 134.63 109.702 134.596 109.627C134.563 109.553 134.546 109.473 134.546 109.391C134.546 109.31 134.563 109.229 134.596 109.155C134.63 109.081 134.678 109.015 134.739 108.96L136.928 106.754L134.739 104.547C134.678 104.493 134.63 104.426 134.596 104.352C134.563 104.278 134.546 104.197 134.546 104.116C134.546 104.035 134.563 103.954 134.596 103.88C134.63 103.805 134.678 103.739 134.739 103.685C134.794 103.626 134.861 103.58 134.935 103.548C135.009 103.516 135.089 103.5 135.17 103.5C135.25 103.5 135.33 103.516 135.404 103.548C135.478 103.58 135.545 103.626 135.601 103.685L138.187 106.271L138.256 106.331C138.256 106.331 138.256 106.392 138.256 106.417C138.256 106.443 138.256 106.417 138.256 106.417C138.253 106.446 138.253 106.475 138.256 106.504V106.573C138.256 106.573 138.256 106.573 138.256 106.616V106.693C138.254 106.722 138.254 106.751 138.256 106.779C138.228 106.896 138.228 107.017 138.256 107.133Z" fill="#599DD9"/>
<path d="M515.777 66.1621H426.905V122.856H515.777V66.1621Z" fill="white"/>
<path d="M516.337 123.416H426.336V65.6016H516.328L516.337 123.416ZM427.465 122.295H515.208V66.7566H427.465V122.295Z" fill="#EBEBEB"/>
<path d="M515.777 66.1621H426.905V76.8854H515.777V66.1621Z" fill="#599DD9"/>
<path d="M516.337 77.4454H426.336V65.6016H516.328L516.337 77.4454ZM427.465 76.3248H515.208V66.7566H427.465V76.3248Z" fill="#EBEBEB"/>
<path d="M442.24 98.0803C442.298 95.2106 443.479 92.478 445.529 90.4686C447.579 88.4592 450.334 87.3329 453.204 87.3312C455.698 87.3181 458.125 88.1372 460.1 89.6586C460.42 89.9498 460.619 90.3505 460.657 90.7813C460.695 91.2122 460.57 91.6417 460.307 91.9846C460.043 92.3274 459.66 92.5587 459.234 92.6324C458.808 92.7061 458.369 92.6169 458.006 92.3825C456.648 91.2865 454.949 90.7036 453.204 90.7361C451.205 90.7479 449.284 91.5145 447.825 92.8825C446.446 94.2524 445.663 96.1107 445.645 98.0545C445.647 99.0181 445.841 99.9716 446.216 100.86C446.59 101.747 447.137 102.552 447.825 103.226C449.284 104.594 451.205 105.361 453.204 105.373C454.946 105.398 456.643 104.82 458.006 103.735C458.374 103.487 458.822 103.383 459.262 103.444C459.702 103.504 460.105 103.724 460.393 104.063C460.665 104.42 460.787 104.87 460.732 105.316C460.677 105.762 460.451 106.169 460.1 106.45C458.125 107.972 455.698 108.791 453.204 108.778C450.339 108.787 447.585 107.672 445.535 105.671C443.484 103.67 442.301 100.945 442.24 98.0803Z" fill="#EBEBEB"/>
<path d="M465.531 103.634C465.794 103.32 466.171 103.122 466.579 103.083C466.987 103.044 467.394 103.168 467.712 103.427C469.316 104.79 471.317 105.597 473.418 105.728C474.746 105.753 476.05 105.368 477.151 104.625C477.522 104.396 477.831 104.08 478.054 103.705C478.276 103.329 478.404 102.906 478.426 102.47C478.436 102.134 478.342 101.803 478.159 101.522C477.942 101.172 477.647 100.877 477.297 100.66C476.033 99.9453 474.648 99.469 473.211 99.2548H473.151C471.823 99.028 470.529 98.6371 469.298 98.0911C468.167 97.5966 467.203 96.7853 466.522 95.7551C466.066 95.0206 465.827 94.1718 465.833 93.307C465.87 92.4528 466.105 91.619 466.519 90.8711C466.934 90.1232 467.516 89.4817 468.22 88.997C469.736 87.9411 471.545 87.3864 473.392 87.4109C476.254 87.4109 478.375 88.816 479.9 89.7987C480.233 90.0276 480.463 90.3779 480.54 90.7744C480.618 91.1709 480.536 91.5819 480.314 91.9192C480.207 92.0904 480.066 92.2382 479.9 92.3539C479.734 92.4695 479.547 92.5507 479.349 92.5925C479.151 92.6343 478.947 92.6359 478.748 92.5973C478.55 92.5586 478.361 92.4804 478.194 92.3674C476.676 91.3503 475.211 90.4538 473.392 90.4538C472.199 90.4346 471.029 90.7903 470.048 91.4709C469.721 91.6691 469.446 91.9435 469.248 92.2708C469.05 92.598 468.934 92.9683 468.91 93.3501C468.887 93.652 468.959 93.9535 469.117 94.2121C469.336 94.5214 469.611 94.7873 469.927 94.9965C471.076 95.6677 472.343 96.1125 473.66 96.3067H473.72C475.138 96.5589 476.521 96.9785 477.84 97.5566C479.047 98.0885 480.081 98.9487 480.823 100.039C481.291 100.801 481.539 101.679 481.538 102.573C481.51 103.496 481.261 104.398 480.811 105.204C480.361 106.01 479.723 106.695 478.952 107.202C477.344 108.349 475.411 108.953 473.435 108.926C470.629 108.791 467.943 107.74 465.789 105.935C465.615 105.806 465.47 105.641 465.362 105.453C465.254 105.265 465.185 105.056 465.161 104.841C465.137 104.625 465.157 104.406 465.221 104.199C465.284 103.991 465.39 103.799 465.531 103.634Z" fill="#EBEBEB"/>
<path d="M485.15 103.632C485.414 103.318 485.79 103.12 486.198 103.081C486.606 103.043 487.013 103.166 487.331 103.425C488.931 104.788 490.931 105.595 493.029 105.727C494.357 105.751 495.66 105.366 496.761 104.623C497.134 104.395 497.446 104.08 497.67 103.705C497.894 103.329 498.023 102.905 498.046 102.468C498.055 102.132 497.962 101.802 497.778 101.52C497.559 101.172 497.265 100.877 496.916 100.658C495.652 99.9434 494.267 99.4672 492.83 99.2529H492.71C491.382 99.0274 490.087 98.6364 488.857 98.0893C487.725 97.5948 486.761 96.7835 486.081 95.7532C485.625 95.0187 485.385 94.1699 485.391 93.3052C485.429 92.451 485.664 91.6172 486.078 90.8693C486.493 90.1214 487.075 89.4799 487.779 88.9952C489.294 87.9377 491.104 87.3829 492.951 87.4091C495.822 87.4091 497.942 88.8141 499.468 89.7968C499.799 90.0272 500.027 90.3774 500.104 90.7732C500.182 91.1691 500.102 91.5794 499.882 91.9173C499.774 92.0885 499.633 92.2364 499.467 92.352C499.302 92.4677 499.114 92.5488 498.916 92.5907C498.718 92.6325 498.514 92.6341 498.316 92.5954C498.117 92.5568 497.929 92.4786 497.761 92.3656C496.235 91.3484 494.779 90.4519 492.951 90.4519C491.758 90.4345 490.588 90.7901 489.607 91.4691C489.282 91.6688 489.009 91.9438 488.813 92.2709C488.616 92.5979 488.501 92.9674 488.477 93.3483C488.455 93.6502 488.527 93.9516 488.684 94.2103C488.901 94.5216 489.176 94.7879 489.495 94.9947C490.643 95.6675 491.91 96.1123 493.227 96.3049H493.279C494.7 96.5559 496.086 96.9755 497.408 97.5548C498.615 98.0867 499.648 98.9469 500.39 100.037C500.859 100.799 501.107 101.677 501.106 102.572C501.076 103.494 500.825 104.395 500.375 105.2C499.925 106.006 499.289 106.692 498.52 107.201C496.907 108.346 494.972 108.95 492.994 108.925C490.188 108.785 487.504 107.735 485.348 105.933C485.179 105.799 485.038 105.632 484.936 105.441C484.833 105.251 484.771 105.041 484.752 104.825C484.733 104.61 484.759 104.393 484.828 104.188C484.896 103.982 485.006 103.793 485.15 103.632Z" fill="#EBEBEB"/>
<path d="M435.007 71.6009C435.007 71.9419 434.906 72.2752 434.717 72.5587C434.527 72.8423 434.258 73.0632 433.943 73.1937C433.628 73.3242 433.281 73.3583 432.947 73.2918C432.613 73.2253 432.305 73.0611 432.064 72.82C431.823 72.5789 431.659 72.2717 431.592 71.9373C431.526 71.6029 431.56 71.2562 431.691 70.9412C431.821 70.6262 432.042 70.3569 432.326 70.1675C432.609 69.9781 432.942 69.877 433.283 69.877C433.741 69.877 434.179 70.0586 434.502 70.3819C434.826 70.7052 435.007 71.1437 435.007 71.6009Z" fill="#C7C7C7"/>
<path d="M442.033 71.6009C442.033 71.9419 441.932 72.2752 441.742 72.5587C441.553 72.8423 441.283 73.0632 440.968 73.1937C440.653 73.3242 440.307 73.3583 439.972 73.2918C439.638 73.2253 439.331 73.0611 439.09 72.82C438.849 72.5789 438.684 72.2717 438.618 71.9373C438.551 71.6029 438.585 71.2562 438.716 70.9412C438.846 70.6262 439.067 70.3569 439.351 70.1675C439.634 69.9781 439.968 69.877 440.309 69.877C440.766 69.877 441.204 70.0586 441.528 70.3819C441.851 70.7052 442.033 71.1437 442.033 71.6009Z" fill="white"/>
<path d="M449.05 71.6009C449.05 71.9419 448.948 72.2752 448.759 72.5587C448.57 72.8423 448.3 73.0632 447.985 73.1937C447.67 73.3242 447.324 73.3583 446.989 73.2918C446.655 73.2253 446.348 73.0611 446.107 72.82C445.865 72.5789 445.701 72.2717 445.635 71.9373C445.568 71.6029 445.602 71.2562 445.733 70.9412C445.863 70.6262 446.084 70.3569 446.368 70.1675C446.651 69.9781 446.985 69.877 447.326 69.877C447.783 69.877 448.221 70.0586 448.545 70.3819C448.868 70.7052 449.05 71.1437 449.05 71.6009Z" fill="#455A64"/>
<path d="M440.378 26.6045H379.84V49.0165H440.378V26.6045Z" fill="#455A64"/>
<path d="M388.58 42.4563V32.5174C388.578 32.3957 388.6 32.2747 388.646 32.1617C388.691 32.0488 388.759 31.9461 388.845 31.86C388.931 31.7739 389.034 31.7061 389.147 31.6605C389.26 31.615 389.381 31.5928 389.503 31.5951C389.626 31.5916 389.749 31.6129 389.863 31.6577C389.978 31.7026 390.083 31.7699 390.172 31.8559C390.26 31.9419 390.33 32.0448 390.378 32.1584C390.426 32.272 390.451 32.3941 390.451 32.5174V36.5861H394.812V32.5174C394.81 32.3949 394.833 32.2732 394.879 32.1597C394.925 32.0461 394.993 31.9431 395.08 31.8569C395.167 31.7706 395.271 31.7029 395.385 31.658C395.499 31.613 395.621 31.5916 395.743 31.5951C395.866 31.5928 395.988 31.615 396.102 31.6603C396.216 31.7056 396.319 31.7732 396.407 31.8591C396.494 31.945 396.564 32.0474 396.611 32.1604C396.659 32.2735 396.683 32.3949 396.683 32.5174V42.4563C396.683 42.5793 396.659 42.701 396.611 42.8145C396.564 42.9281 396.495 43.0311 396.407 43.1176C396.32 43.2042 396.216 43.2726 396.102 43.3189C395.988 43.3651 395.866 43.3884 395.743 43.3872C395.621 43.3896 395.498 43.3671 395.384 43.3211C395.27 43.2752 395.167 43.2067 395.08 43.1198C394.993 43.0329 394.925 42.9293 394.879 42.8153C394.833 42.7013 394.81 42.5792 394.812 42.4563V38.4135H390.451V42.4563C390.451 42.58 390.426 42.7025 390.378 42.8166C390.33 42.9307 390.26 43.0341 390.172 43.1207C390.084 43.2074 389.979 43.2756 389.864 43.3214C389.749 43.3671 389.626 43.3895 389.503 43.3872C389.38 43.3884 389.259 43.3651 389.146 43.3186C389.033 43.2721 388.931 43.2034 388.845 43.1166C388.759 43.0298 388.691 42.9267 388.646 42.8133C388.6 42.6998 388.578 42.5784 388.58 42.4563Z" fill="white"/>
<path d="M407.734 33.4656H405.062V42.4563C405.074 42.5855 405.06 42.7159 405.019 42.8391C404.978 42.9622 404.912 43.0755 404.824 43.1716C404.737 43.2677 404.631 43.3445 404.512 43.397C404.393 43.4496 404.265 43.4767 404.135 43.4767C404.005 43.4767 403.877 43.4496 403.758 43.397C403.64 43.3445 403.533 43.2677 403.446 43.1716C403.359 43.0755 403.292 42.9622 403.252 42.8391C403.211 42.7159 403.196 42.5855 403.208 42.4563V33.4656H400.545C400.421 33.4645 400.3 33.4391 400.186 33.3908C400.072 33.3426 399.969 33.2724 399.883 33.1844C399.797 33.0963 399.728 32.9921 399.682 32.8777C399.636 32.7632 399.613 32.6408 399.614 32.5174C399.612 32.3949 399.634 32.2732 399.68 32.1597C399.726 32.0461 399.795 31.9431 399.882 31.8569C399.969 31.7706 400.073 31.7029 400.187 31.658C400.3 31.613 400.422 31.5916 400.545 31.5951H407.734C407.856 31.594 407.977 31.617 408.09 31.6628C408.202 31.7087 408.305 31.7764 408.392 31.8622C408.478 31.9479 408.547 32.05 408.594 32.1625C408.641 32.2749 408.665 32.3956 408.665 32.5174C408.663 32.7653 408.565 33.0026 408.391 33.1795C408.217 33.3564 407.982 33.4589 407.734 33.4656Z" fill="white"/>
<path d="M421.586 32.5172V42.4561C421.582 42.7031 421.481 42.9386 421.305 43.1124C421.13 43.2863 420.894 43.3848 420.647 43.387C420.524 43.387 420.403 43.363 420.29 43.3162C420.177 43.2694 420.075 43.2008 419.988 43.1144C419.902 43.0279 419.833 42.9253 419.786 42.8123C419.74 42.6994 419.716 42.5783 419.716 42.4561V35.3618L417.293 38.7322C417.208 38.8536 417.094 38.9524 416.962 39.02C416.83 39.0876 416.683 39.122 416.535 39.1201C416.384 39.1226 416.234 39.0886 416.099 39.0211C415.964 38.9535 415.848 38.8545 415.759 38.7322L413.345 35.3618V42.4561C413.323 42.6886 413.215 42.9045 413.042 43.0616C412.869 43.2187 412.644 43.3058 412.41 43.3058C412.176 43.3058 411.951 43.2187 411.778 43.0616C411.605 42.9045 411.497 42.6886 411.475 42.4561V32.5172C411.477 32.2718 411.576 32.0372 411.751 31.8645C411.925 31.6918 412.16 31.5949 412.406 31.5949H412.458C412.602 31.5956 412.745 31.6302 412.873 31.6961C413.002 31.762 413.114 31.8572 413.199 31.9742L416.552 36.629L419.905 31.9742C419.992 31.8543 420.106 31.7572 420.238 31.6912C420.37 31.6251 420.516 31.5921 420.664 31.5949C420.906 31.6035 421.135 31.7034 421.306 31.8745C421.478 32.0457 421.578 32.2753 421.586 32.5172Z" fill="white"/>
<path d="M425.664 42.4559V32.5171C425.664 32.3953 425.688 32.2746 425.735 32.1621C425.781 32.0497 425.85 31.9476 425.937 31.8618C426.023 31.7761 426.126 31.7083 426.239 31.6625C426.352 31.6166 426.473 31.5936 426.595 31.5948C426.717 31.5936 426.838 31.6166 426.951 31.6623C427.065 31.7081 427.168 31.7757 427.255 31.8613C427.343 31.947 427.412 32.049 427.46 32.1615C427.508 32.274 427.533 32.3948 427.534 32.5171V41.5164H432.103C432.335 41.5387 432.551 41.6469 432.708 41.8198C432.865 41.9928 432.952 42.218 432.952 42.4516C432.952 42.6853 432.865 42.9105 432.708 43.0834C432.551 43.2564 432.335 43.3646 432.103 43.3869H426.595C426.348 43.3869 426.111 43.2888 425.936 43.1142C425.762 42.9396 425.664 42.7029 425.664 42.4559Z" fill="white"/>
<path d="M297.433 331.649C294.993 332.588 224.257 333.872 221.49 332.295C221.189 332.114 221.266 328.994 220.232 320.917C220.18 320.529 218.56 319.029 216.043 316.917C206.561 308.987 184.356 292.272 184.356 292.272L219.698 261.603L253.91 295.22L262.806 303.961C262.806 303.961 291.709 319.572 294.571 321.632C297.433 323.692 299.872 330.718 297.433 331.649Z" fill="#DD6A57"/>
<path d="M297.433 331.648C294.993 332.588 224.257 333.872 221.49 332.295C221.189 332.114 221.275 328.993 220.223 320.916C220.18 320.528 218.568 319.037 216.043 316.917C212.75 314.158 211.19 312.9 206.293 309.09L251.178 292.6L253.867 295.237L262.763 303.987C262.763 303.987 291.666 319.589 294.528 321.649C297.389 323.709 299.872 330.717 297.433 331.648Z" fill="#EBEBEB"/>
<path d="M302.303 332.624C299.846 333.486 224.482 334.305 221.766 332.624C221.129 332.227 220.542 327.848 220.042 321.849C219.982 321.099 212.345 314.996 211.302 313.867L257.488 298.351L263.323 303.833C263.323 303.833 297.312 319.651 300.088 321.806C302.863 323.961 304.794 331.77 302.303 332.624Z" fill="#599DD9"/>
<path d="M301.26 329.811C289.416 329.656 236.895 330.165 225.18 330.914C225.085 330.914 225.085 330.983 225.18 330.983C236.912 331.397 289.433 330.501 301.26 330.009C301.51 329.992 301.51 329.82 301.26 329.811Z" fill="#263238"/>
<path d="M267.125 304.314C262.453 303.503 256.781 304.314 253.247 307.641C253.109 307.77 253.298 307.96 253.445 307.917C257.878 306.426 262.459 305.415 267.107 304.9C267.185 304.902 267.261 304.873 267.317 304.82C267.374 304.767 267.407 304.693 267.409 304.615C267.411 304.538 267.383 304.462 267.329 304.406C267.276 304.349 267.202 304.316 267.125 304.314Z" fill="#263238"/>
<path d="M270.512 306.305C265.84 305.487 260.168 306.305 256.634 309.633C256.496 309.762 256.677 309.952 256.832 309.9C261.266 308.412 265.847 307.403 270.495 306.892C270.573 306.894 270.648 306.865 270.705 306.812C270.762 306.758 270.795 306.685 270.797 306.607C270.799 306.529 270.77 306.454 270.717 306.397C270.664 306.341 270.59 306.308 270.512 306.305Z" fill="#263238"/>
<path d="M273.892 308.289C269.228 307.479 263.548 308.289 260.013 311.616C259.884 311.746 260.065 311.935 260.22 311.892C264.654 310.402 269.234 309.39 273.883 308.875C273.961 308.876 274.036 308.847 274.091 308.793C274.147 308.738 274.179 308.664 274.18 308.587C274.181 308.509 274.152 308.434 274.098 308.378C274.043 308.322 273.969 308.29 273.892 308.289Z" fill="#263238"/>
<path d="M277.279 310.279C272.616 309.46 266.935 310.279 263.401 313.606C263.263 313.736 263.453 313.925 263.608 313.874C268.041 312.385 272.622 311.376 277.27 310.865C277.348 310.866 277.423 310.837 277.479 310.782C277.535 310.728 277.567 310.654 277.568 310.576C277.569 310.499 277.539 310.424 277.485 310.368C277.431 310.312 277.357 310.28 277.279 310.279Z" fill="#263238"/>
<path d="M275.598 293.461C273.745 290.962 270.349 292.134 268.418 293.789C265.164 296.694 262.733 300.404 261.367 304.547C261.36 304.565 261.357 304.585 261.359 304.604C261.362 304.623 261.369 304.642 261.38 304.658C261.391 304.674 261.406 304.687 261.423 304.696C261.44 304.706 261.459 304.71 261.479 304.711C261.477 304.802 261.496 304.892 261.535 304.975C261.575 305.057 261.632 305.129 261.704 305.185C261.776 305.241 261.861 305.28 261.95 305.298C262.04 305.316 262.132 305.312 262.22 305.288C266.047 303.814 270.323 302.702 273.59 300.116C275.486 298.582 277.357 295.806 275.598 293.461ZM267.573 301.866C265.702 302.633 263.815 303.305 261.97 304.15C263.358 302.056 264.642 299.909 266.228 297.952C266.98 297.002 267.795 296.103 268.668 295.263C270.038 293.979 275.495 291.237 274.702 296.358C274.314 299.159 269.797 300.935 267.573 301.849V301.866Z" fill="#263238"/>
<path d="M249.514 303.453C253.376 305.039 257.789 304.909 261.875 305.254C261.966 305.253 262.056 305.23 262.137 305.189C262.217 305.147 262.287 305.087 262.341 305.013C262.394 304.939 262.43 304.854 262.445 304.764C262.46 304.675 262.454 304.583 262.427 304.496C262.445 304.489 262.46 304.478 262.473 304.464C262.486 304.45 262.496 304.433 262.502 304.415C262.507 304.397 262.509 304.378 262.507 304.359C262.504 304.34 262.498 304.322 262.487 304.306C260.027 300.707 256.662 297.819 252.73 295.936C250.419 294.876 246.825 294.695 245.739 297.608C244.704 300.358 247.264 302.522 249.514 303.453ZM247.377 300.151C245.222 295.445 251.221 296.565 252.893 297.419C253.968 297.983 255.002 298.623 255.988 299.332C258.003 300.82 259.942 302.408 261.798 304.091C259.798 303.797 257.789 303.677 255.764 303.461C253.393 303.194 248.557 302.746 247.377 300.151Z" fill="#263238"/>
<path d="M254.35 293.35L210.715 315.968C210.715 315.968 165.254 274.817 161.09 274.506C156.927 274.196 95.768 315.701 64.9774 315.874C33.0835 316.012 31.4716 282.6 31.4716 282.6L78.0195 271.912C111.551 255.387 146.479 225.709 169.331 228.476C194.113 231.441 254.35 293.35 254.35 293.35Z" fill="#455A64"/>
<path d="M243.696 287.592C236.326 291.239 238.394 290.092 231.068 293.816C227.482 295.635 209.44 304.737 206.371 306.987C206.311 307.039 206.371 307.16 206.449 307.134C210.052 305.927 227.895 296.436 231.447 294.549C238.705 290.695 236.619 291.73 243.799 287.799C243.813 287.792 243.825 287.783 243.835 287.772C243.845 287.76 243.852 287.747 243.857 287.732C243.862 287.718 243.864 287.703 243.863 287.688C243.862 287.672 243.858 287.658 243.851 287.644C243.844 287.63 243.835 287.618 243.823 287.608C243.812 287.598 243.798 287.591 243.784 287.586C243.77 287.581 243.754 287.579 243.739 287.58C243.724 287.581 243.709 287.585 243.696 287.592Z" fill="#263238"/>
<path d="M202.992 305.53C194.458 298.013 166.504 273.524 165.375 272.61C164.494 271.769 163.516 271.037 162.461 270.429C162.026 270.259 161.557 270.19 161.092 270.228C160.626 270.265 160.174 270.408 159.772 270.645C158.479 271.248 157.186 271.912 155.927 272.533L148.367 276.222C138.592 280.989 128.869 285.885 119.016 290.505C109.534 294.936 102.776 299.125 92.8806 302.573C83.0594 306.034 72.9006 308.45 62.5727 309.78C61.297 309.935 60.0212 310.073 58.7454 310.193C58.7302 310.199 58.717 310.209 58.7077 310.222C58.6984 310.235 58.6934 310.251 58.6934 310.267C58.6934 310.283 58.6984 310.298 58.7077 310.312C58.717 310.325 58.7302 310.335 58.7454 310.34C68.8966 309.734 78.9327 307.866 88.6223 304.78C98.4232 301.772 105.069 297.884 114.387 293.574C124.033 289.135 133.541 284.385 143.049 279.653C148.074 277.162 153.083 274.636 158.117 272.171C159.263 271.619 160.884 270.404 162.194 270.998C162.738 271.306 163.241 271.679 163.694 272.11L165.418 273.507C167.573 275.3 201.837 304.814 202.958 305.659C202.958 305.728 203.078 305.616 202.992 305.53Z" fill="#263238"/>
<path d="M31.3856 282.558C31.3856 282.558 26.2136 312.728 41.2555 324.58C56.2973 336.432 166.874 335.002 183.623 329.58C200.372 324.158 200.923 297.099 182.589 290.833C165.15 284.842 91.0186 281.971 89.1395 281.239C88.6826 281.058 95.7251 276.834 95.6907 276.575L78.8127 271.403L31.3856 282.558Z" fill="#455A64"/>
<path d="M54.2802 281.79C54.2802 281.66 54.0647 281.703 54.0647 281.79C54.0754 285.29 52.8549 288.683 50.6167 291.375C48.0308 294.34 44.2638 296.004 40.8331 297.737C40.5055 297.9 40.7555 298.418 41.0917 298.314C43.1919 297.676 45.2154 296.809 47.1257 295.728C48.8883 294.788 50.4401 293.497 51.6856 291.935C52.7971 290.516 53.6017 288.881 54.0483 287.135C54.4949 285.388 54.5739 283.568 54.2802 281.79Z" fill="#263238"/>
<path d="M87.9325 278.057C87.1654 277.075 86.3292 276.144 85.5276 275.195C83.6398 272.946 81.7434 270.687 79.7608 268.524C79.5798 268.317 79.2091 268.61 79.3815 268.834C80.7176 270.558 82.1227 272.282 83.5105 273.963L85.6569 276.549C86.4095 277.343 87.0822 278.209 87.6653 279.135C88.1825 280.1 87.5015 280.928 86.493 281.031C85.6105 281.062 84.7497 280.754 84.088 280.169C82.5905 278.843 81.2197 277.38 79.9935 275.799C79.2005 274.937 78.3988 274.006 77.5972 273.127C76.7955 272.247 75.8215 271.291 74.9595 270.351C74.9077 270.291 74.8043 270.351 74.8474 270.446C75.5974 271.472 76.2869 272.54 77.0369 273.575C77.7868 274.609 78.554 275.618 79.3212 276.626C80.0884 277.635 80.8124 278.514 81.5969 279.436C82.247 280.244 83.0243 280.94 83.8984 281.497C85.3293 282.359 87.8205 282.522 88.5877 280.635C88.7221 280.186 88.7322 279.709 88.6168 279.255C88.5014 278.801 88.2649 278.387 87.9325 278.057Z" fill="#263238"/>
<path d="M181.33 329.666C175.563 329.769 169.788 330.105 164.013 330.226C158.237 330.347 152.557 330.381 146.833 330.329C135.34 330.226 123.846 329.781 112.353 328.993C100.75 328.192 88.217 327.037 76.7266 325.433C71.2098 324.675 65.624 324.037 60.1762 322.847C55.2757 321.915 50.7444 319.6 47.1169 316.175C39.652 308.943 36.7729 298.298 35.5661 288.135C35.4023 286.773 35.273 285.402 35.161 284.031C35.161 283.945 35.0145 283.945 35.0231 284.031C35.6954 294.453 37.316 305.323 43.8758 313.701C46.6415 317.36 50.3264 320.221 54.556 321.994C59.7279 324.063 65.443 324.58 70.9339 325.287C82.5019 326.856 95.0699 328.071 106.69 328.967C118.309 329.864 130.136 330.441 141.876 330.614C153.617 330.786 165.374 330.614 177.098 330.045C178.529 329.976 179.959 329.89 181.408 329.769C181.415 329.757 181.419 329.743 181.419 329.729C181.418 329.715 181.413 329.702 181.405 329.69C181.396 329.679 181.385 329.671 181.371 329.666C181.358 329.662 181.344 329.662 181.33 329.666Z" fill="#263238"/>
<path d="M144.928 285.332C141.299 284.798 137.67 284.281 134.015 283.893C130.36 283.505 126.627 283.177 122.93 282.867C115.62 282.246 108.276 281.695 100.957 281.35C96.7937 281.152 92.6303 281.134 88.4668 281.186C88.3289 281.186 88.3375 281.376 88.4668 281.393C95.7938 282.057 103.121 282.514 110.474 283.005C117.826 283.496 125.128 284.134 132.429 284.832C136.575 285.229 140.721 285.531 144.867 285.867C144.938 285.875 145.009 285.854 145.065 285.81C145.121 285.765 145.157 285.701 145.165 285.63C145.173 285.559 145.152 285.488 145.108 285.432C145.063 285.376 144.999 285.34 144.928 285.332Z" fill="#263238"/>
<path d="M96.5526 276.222C93.6268 277.483 90.8125 278.988 88.1395 280.721C85.4281 282.352 82.8356 284.172 80.3815 286.169C80.3126 286.23 80.3815 286.316 80.4677 286.281C83.3209 284.962 86.0707 283.307 88.786 281.73C91.5423 280.182 94.2047 278.472 96.7595 276.61C96.9061 276.463 96.794 276.11 96.5526 276.222Z" fill="#263238"/>
<path d="M82.7002 246.052L75.5025 244.88C74.1367 240.447 74.1849 235.699 75.6404 231.294C75.9594 230.286 72.4166 235.777 71.8477 244.293C64.2448 243.078 53.9095 241.423 44.9016 239.889C45.3757 236.346 45.6515 233.044 45.6515 233.044C44.9439 235.296 44.0352 237.48 42.9362 239.57L39.3417 238.949C40.6088 233.544 41.4363 223.881 41.4363 223.881C39.8231 228.965 37.3857 233.75 34.2214 238.044C28.515 237.009 24.7394 236.234 25.067 236.001C35.523 227.7 30.239 220.83 34.3162 212.563C39.1952 202.659 48.5047 202.659 49.6857 194.763C50.6597 188.341 52.0044 176.609 60.5296 175.627C63.1055 173.894 66.1348 172.958 69.2392 172.937C72.3435 172.915 75.3855 173.809 77.9851 175.506C89.8289 182.738 81.1572 201.495 81.2865 205.676C81.4676 211.624 83.8208 214.141 84.6483 221.037C85.4758 227.933 81.6917 231.855 80.5194 236.268C79.347 240.682 84.1225 246.276 82.7002 246.052Z" fill="#263238"/>
<path d="M25.0669 234.544C26.5672 233.04 27.847 231.33 28.8683 229.467C29.8855 227.64 29.9717 225.597 29.9544 223.433C29.8805 221.263 29.9179 219.091 30.0665 216.925C30.2448 214.671 30.872 212.476 31.9112 210.469C32.999 208.471 34.5329 206.751 36.3936 205.443C38.1899 204.2 40.0871 203.11 42.0655 202.185C43.9729 201.298 45.7576 200.168 47.3754 198.823C48.9504 197.397 50.1042 195.566 50.7113 193.53C50.4016 195.729 49.4271 197.78 47.9185 199.409C46.3762 200.974 44.6064 202.296 42.6689 203.331C40.8184 204.346 39.036 205.481 37.3331 206.727C35.7075 207.951 34.3664 209.513 33.4024 211.305C32.4733 213.127 31.8888 215.106 31.6784 217.14C31.4198 219.209 31.4198 221.33 31.3078 223.502C31.2597 224.608 31.1272 225.709 30.9112 226.795C30.6596 227.902 30.213 228.956 29.5924 229.907C28.3682 231.706 26.8363 233.276 25.0669 234.544Z" fill="#263238"/>
<path d="M83.8467 184.161C84.2791 186.784 84.3891 189.45 84.1742 192.1C84.0191 194.746 83.7346 197.384 83.4243 200.005L82.9933 203.918C82.8348 205.179 82.8002 206.452 82.8899 207.72C83.2034 210.25 83.9714 212.703 85.1569 214.96C85.7246 216.192 86.2112 217.458 86.6137 218.753C86.9981 220.083 87.2379 221.45 87.3292 222.83C87.3686 224.195 87.3081 225.561 87.1481 226.916C86.9931 228.281 86.6717 229.621 86.1913 230.907C85.7086 232.2 85.1052 233.39 84.5621 234.562C84.0179 235.731 83.585 236.949 83.2691 238.2C82.9948 239.461 83.0261 240.769 83.3605 242.015C83.6949 243.261 84.3227 244.409 85.1914 245.363C84.1676 244.464 83.3829 243.324 82.9076 242.047C82.4322 240.77 82.281 239.395 82.4675 238.045C82.6876 236.71 83.0458 235.401 83.5364 234.14C84.0019 232.873 84.5535 231.692 84.9242 230.476C85.6412 228.031 85.907 225.475 85.7086 222.934C85.5981 221.68 85.3613 220.442 85.0018 219.236C84.6108 218.013 84.1386 216.818 83.5881 215.659C83.018 214.44 82.5144 213.191 82.0796 211.917C81.6414 210.597 81.3692 209.228 81.2693 207.84C81.2128 206.471 81.2879 205.1 81.4934 203.746C81.6658 202.427 81.8813 201.117 82.0968 199.815C82.5192 197.229 82.9588 194.643 83.3295 192.014C83.7729 189.421 83.9462 186.79 83.8467 184.161Z" fill="#263238"/>
<path d="M62.9777 224.346C67.2273 235.905 86.4671 266.041 95.3802 270.463C101.975 273.721 121.663 277.721 124.197 277.092C127.852 276.23 136.032 251.37 132.688 251.128C116.603 249.965 106.362 247.879 102.569 246.379C99.3713 245.112 86.0448 232.802 68.7531 217.769C62.7277 212.537 60.4262 217.433 62.9777 224.346Z" fill="#D3766A"/>
<path d="M72.8561 249.603L83.8984 228.561C83.8984 228.561 74.9594 220.64 69.3909 216.95C62.0208 212.08 58.478 213.675 61.3485 224.122C63.2621 231.104 72.8561 249.603 72.8561 249.603Z" fill="#599DD9"/>
<path d="M73.7786 220.14H73.6838C73.3178 220.14 72.963 220.014 72.6789 219.783C72.3948 219.553 72.1987 219.231 72.1236 218.873C72.658 219.33 73.2097 219.701 73.7786 220.14ZM73.6838 244.828C73.2608 244.828 72.8552 244.996 72.5562 245.295C72.2571 245.594 72.0891 246 72.0891 246.423C72.0891 246.845 72.2571 247.251 72.5562 247.55C72.8552 247.849 73.2608 248.017 73.6838 248.017L74.9854 245.526C74.8405 245.312 74.6454 245.136 74.417 245.014C74.1886 244.892 73.9339 244.828 73.6752 244.828H73.6838ZM64.8569 231.036C64.57 231.033 64.2885 231.114 64.0466 231.269C64.4604 232.208 64.9086 233.174 65.331 234.148C65.6563 234.049 65.9411 233.848 66.143 233.575C66.3449 233.302 66.4532 232.97 66.4516 232.631C66.4539 232.419 66.4141 232.209 66.3344 232.013C66.2547 231.817 66.1369 231.639 65.9876 231.489C65.8384 231.339 65.6608 231.22 65.4652 231.139C65.2696 231.058 65.0599 231.017 64.8483 231.019L64.8569 231.036ZM82.5106 231.036C82.3012 231.036 82.0939 231.077 81.9004 231.157C81.7069 231.237 81.5311 231.355 81.383 231.503C81.2349 231.651 81.1175 231.827 81.0373 232.02C80.9572 232.214 80.9159 232.421 80.9159 232.631C80.9156 232.988 81.0373 233.334 81.2607 233.613L82.6141 231.027L82.5106 231.036Z" fill="white"/>
<path d="M71.9855 246.422C73.3819 243.25 74.8128 240.103 76.3989 237.018C77.1805 235.477 77.9907 233.949 78.8298 232.432C79.6918 230.915 80.6572 229.484 81.4675 227.958C81.5106 227.88 81.6399 227.958 81.5882 228.035C80.7262 229.51 80.0107 231.13 79.2004 232.647C78.3901 234.164 77.5885 235.716 76.7954 237.25C75.2094 240.319 73.6233 243.396 72.1062 246.499C72.0545 246.586 71.9424 246.508 71.9855 246.422Z" fill="#263238"/>
<path opacity="0.1" d="M82.1658 231.872L72.8563 249.612C72.8563 249.612 63.2708 231.105 61.34 224.123C60.478 220.89 60.1849 218.511 60.478 216.899L82.1658 231.872Z" fill="black"/>
<path d="M124.197 277.084C127.679 278.991 131.281 280.67 134.98 282.11C137.937 283.118 146.523 285.79 147.953 282.644C148.936 280.498 144.074 278.334 140.661 276.722C138.868 275.86 136.704 273.86 137.299 272.705C138.334 270.697 142.954 272.981 145.962 274.921C151.789 278.679 159.478 285.316 163.28 282.446C164.711 281.36 163.202 279.196 160.952 277.032C164.65 279.618 168.624 281.748 170.271 280.61C171.21 279.955 171.296 279.006 170.84 277.903C171.311 278.147 171.844 278.246 172.372 278.188C172.899 278.13 173.398 277.917 173.805 277.576C175.106 276.343 174.589 274.395 173.322 272.404C173.556 272.389 173.783 272.32 173.985 272.202C174.187 272.084 174.359 271.919 174.486 271.723C177.296 267.844 164.693 255.75 160.202 254.483C146.988 250.69 132.713 251.19 132.713 251.19C127.222 255.086 124.188 277.084 124.197 277.084Z" fill="#D3766A"/>
<path d="M144.463 265.55C147.63 266.164 150.621 267.474 153.22 269.386C156.237 271.678 158.582 274.713 161.349 277.273C161.427 277.342 161.349 277.454 161.237 277.385C159.944 276.066 158.504 274.877 157.151 273.618C155.798 272.359 154.565 271.101 153.151 269.963C150.622 267.866 147.647 266.375 144.454 265.601C144.454 265.601 144.385 265.541 144.463 265.55Z" fill="#263238"/>
<path d="M147.178 259.99C150.714 260.994 154.137 262.361 157.392 264.067C160.84 266.05 163.53 269.136 166.142 272.118C167.71 273.911 169.245 275.73 170.736 277.592C170.796 277.67 170.684 277.782 170.624 277.704C167.969 274.624 165.228 271.63 162.4 268.722C159.792 266.003 156.672 263.826 153.22 262.317C151.246 261.455 149.212 260.757 147.186 260.05C147.117 260.042 147.134 259.981 147.178 259.99Z" fill="#263238"/>
<path d="M151.16 255.206C154.539 256.068 157.487 256.801 160.418 258.775C164.306 261.361 167.978 265.671 169.271 267.145C170.693 268.808 172.055 270.524 173.4 272.256C173.451 272.325 173.331 272.42 173.27 272.351C170.195 268.548 166.878 264.946 163.34 261.568C161.678 259.935 159.773 258.568 157.694 257.516C155.584 256.569 153.395 255.807 151.152 255.241C151.152 255.241 151.143 255.206 151.16 255.206Z" fill="#263238"/>
<path d="M27.2909 289.056C29.3338 289.72 87.6308 272.851 87.6308 272.851L80.7348 252.62C80.7348 252.62 84.1828 246.112 82.5536 239.854C80.4503 231.492 64.9688 217.743 63.7534 216.933C58.8745 213.701 54.2714 213.752 50.2459 215.899C33.3938 224.855 27.2909 289.056 27.2909 289.056Z" fill="#599DD9"/>
<path d="M57.616 218.555C57.616 218.87 57.5225 219.178 57.3473 219.441C57.172 219.703 56.923 219.907 56.6316 220.028C56.3402 220.149 56.0196 220.18 55.7102 220.119C55.4009 220.057 55.1167 219.905 54.8937 219.682C54.6707 219.459 54.5188 219.175 54.4573 218.866C54.3957 218.556 54.4273 218.236 54.548 217.944C54.6687 217.653 54.8731 217.404 55.1353 217.229C55.3976 217.053 55.7059 216.96 56.0213 216.96C56.4443 216.96 56.8499 217.128 57.1489 217.427C57.448 217.726 57.616 218.132 57.616 218.555ZM38.3676 244.828C38.0522 244.828 37.7439 244.922 37.4816 245.097C37.2194 245.272 37.015 245.521 36.8943 245.813C36.7736 246.104 36.742 246.425 36.8035 246.734C36.8651 247.044 37.0169 247.328 37.24 247.551C37.463 247.774 37.7471 247.926 38.0565 247.987C38.3658 248.049 38.6865 248.017 38.9779 247.896C39.2692 247.776 39.5183 247.571 39.6935 247.309C39.8688 247.047 39.9623 246.738 39.9623 246.423C39.9623 246.214 39.921 246.006 39.8409 245.813C39.7608 245.619 39.6433 245.444 39.4952 245.295C39.3471 245.147 39.1713 245.03 38.9779 244.95C38.7844 244.87 38.577 244.828 38.3676 244.828ZM56.0213 244.828C55.7059 244.828 55.3976 244.922 55.1353 245.097C54.8731 245.272 54.6687 245.521 54.548 245.813C54.4273 246.104 54.3957 246.425 54.4573 246.734C54.5188 247.044 54.6707 247.328 54.8937 247.551C55.1167 247.774 55.4009 247.926 55.7102 247.987C56.0196 248.049 56.3402 248.017 56.6316 247.896C56.923 247.776 57.172 247.571 57.3473 247.309C57.5225 247.047 57.616 246.738 57.616 246.423C57.616 246.214 57.5748 246.006 57.4946 245.813C57.4145 245.619 57.297 245.444 57.1489 245.295C57.0009 245.147 56.8251 245.03 56.6316 244.95C56.4381 244.87 56.2307 244.828 56.0213 244.828ZM73.675 244.828C73.3596 244.828 73.0513 244.922 72.7891 245.097C72.5268 245.272 72.3224 245.521 72.2017 245.813C72.081 246.104 72.0495 246.425 72.111 246.734C72.1725 247.044 72.3244 247.328 72.5474 247.551C72.7704 247.774 73.0546 247.926 73.3639 247.987C73.6733 248.049 73.9939 248.017 74.2853 247.896C74.5767 247.776 74.8258 247.571 75.001 247.309C75.1762 247.047 75.2697 246.738 75.2697 246.423C75.2697 246.214 75.2285 246.006 75.1483 245.813C75.0682 245.619 74.9507 245.444 74.8027 245.295C74.6546 245.147 74.4788 245.03 74.2853 244.95C74.0918 244.87 73.8845 244.828 73.675 244.828ZM47.1945 231.036C46.878 231.035 46.5681 231.127 46.3044 231.302C46.0406 231.477 45.8349 231.727 45.7134 232.019C45.5919 232.311 45.5601 232.633 45.6221 232.943C45.6841 233.254 45.837 233.539 46.0614 233.762C46.2858 233.985 46.5715 234.136 46.8822 234.197C47.1929 234.257 47.5146 234.223 47.8061 234.1C48.0977 233.977 48.3461 233.77 48.5196 233.505C48.6931 233.241 48.7839 232.93 48.7805 232.614C48.7805 232.192 48.6137 231.788 48.3165 231.489C48.0193 231.19 47.6159 231.021 47.1945 231.019V231.036ZM64.8482 231.036C64.5328 231.036 64.2245 231.13 63.9622 231.305C63.7 231.48 63.4956 231.729 63.3749 232.021C63.2542 232.312 63.2226 232.633 63.2841 232.942C63.3457 233.252 63.4975 233.536 63.7206 233.759C63.9436 233.982 64.2277 234.134 64.5371 234.195C64.8464 234.257 65.167 234.225 65.4584 234.104C65.7498 233.984 65.9989 233.779 66.1741 233.517C66.3493 233.255 66.4429 232.946 66.4429 232.631C66.4452 232.42 66.4056 232.211 66.3265 232.016C66.2474 231.82 66.1302 231.642 65.9819 231.492C65.8336 231.342 65.6571 231.223 65.4625 231.142C65.2678 231.061 65.0591 231.019 64.8482 231.019V231.036ZM38.3676 272.697C38.0522 272.697 37.7439 272.79 37.4816 272.966C37.2194 273.141 37.015 273.39 36.8943 273.681C36.7736 273.973 36.742 274.293 36.8035 274.603C36.8651 274.912 37.0169 275.196 37.24 275.419C37.463 275.642 37.7471 275.794 38.0565 275.856C38.3658 275.917 38.6865 275.885 38.9779 275.765C39.2692 275.644 39.5183 275.44 39.6935 275.177C39.8688 274.915 39.9623 274.607 39.9623 274.291C39.9623 273.869 39.7943 273.463 39.4952 273.164C39.1961 272.865 38.7905 272.697 38.3676 272.697ZM56.0213 272.697C55.7059 272.697 55.3976 272.79 55.1353 272.966C54.8731 273.141 54.6687 273.39 54.548 273.681C54.4273 273.973 54.3957 274.293 54.4573 274.603C54.5188 274.912 54.6707 275.196 54.8937 275.419C55.1167 275.642 55.4009 275.794 55.7102 275.856C56.0196 275.917 56.3402 275.885 56.6316 275.765C56.923 275.644 57.172 275.44 57.3473 275.177C57.5225 274.915 57.616 274.607 57.616 274.291C57.616 273.869 57.448 273.463 57.1489 273.164C56.8499 272.865 56.4443 272.697 56.0213 272.697ZM73.675 272.697C73.3596 272.697 73.0513 272.79 72.7891 272.966C72.5268 273.141 72.3224 273.39 72.2017 273.681C72.081 273.973 72.0495 274.293 72.111 274.603C72.1725 274.912 72.3244 275.196 72.5474 275.419C72.7704 275.642 73.0546 275.794 73.3639 275.856C73.6733 275.917 73.9939 275.885 74.2853 275.765C74.5767 275.644 74.8258 275.44 75.001 275.177C75.1762 274.915 75.2697 274.607 75.2697 274.291C75.2697 273.869 75.1017 273.463 74.8027 273.164C74.5036 272.865 74.098 272.697 73.675 272.697ZM47.1945 258.905C46.878 258.903 46.5681 258.996 46.3044 259.171C46.0406 259.346 45.8349 259.595 45.7134 259.887C45.5919 260.18 45.5601 260.501 45.6221 260.812C45.6841 261.122 45.837 261.407 46.0614 261.63C46.2858 261.853 46.5715 262.005 46.8822 262.065C47.1929 262.125 47.5146 262.092 47.8061 261.969C48.0977 261.846 48.3461 261.638 48.5196 261.374C48.6931 261.109 48.7839 260.799 48.7805 260.482C48.7805 260.061 48.6137 259.656 48.3165 259.358C48.0193 259.059 47.6159 258.89 47.1945 258.888V258.905ZM64.8482 258.905C64.5328 258.905 64.2245 258.998 63.9622 259.174C63.7 259.349 63.4956 259.598 63.3749 259.889C63.2542 260.181 63.2226 260.501 63.2841 260.811C63.3457 261.12 63.4975 261.404 63.7206 261.627C63.9436 261.85 64.2277 262.002 64.5371 262.064C64.8464 262.125 65.167 262.094 65.4584 261.973C65.7498 261.852 65.9989 261.648 66.1741 261.385C66.3493 261.123 66.4429 260.815 66.4429 260.5C66.4452 260.289 66.4056 260.079 66.3265 259.884C66.2474 259.688 66.1302 259.511 65.9819 259.361C65.8336 259.211 65.6571 259.092 65.4625 259.011C65.2678 258.929 65.0591 258.888 64.8482 258.888V258.905ZM82.8898 258.957C82.7636 258.921 82.633 258.904 82.5019 258.905C82.079 258.905 81.6734 259.073 81.3743 259.372C81.0752 259.671 80.9072 260.077 80.9072 260.5C80.9072 260.922 81.0752 261.328 81.3743 261.627C81.6734 261.926 82.079 262.094 82.5019 262.094C82.7413 262.096 82.978 262.043 83.1933 261.938C83.4087 261.833 83.5969 261.68 83.7432 261.491L82.8898 258.957ZM29.5407 286.756C29.1178 286.756 28.7122 286.924 28.4131 287.223C28.114 287.522 27.946 287.928 27.946 288.351C27.9432 288.581 27.9964 288.809 28.1012 289.014C28.7649 288.92 29.8252 288.704 31.1268 288.402C31.1308 288.385 31.1308 288.368 31.1268 288.351C31.1268 287.929 30.96 287.525 30.6628 287.226C30.3656 286.927 29.9622 286.758 29.5407 286.756Z" fill="white"/>
<path d="M62.0381 251.162C64.5452 250.69 67.0833 250.402 69.6323 250.3C70.8995 250.3 72.158 250.3 73.4251 250.361C74.0544 250.361 74.6837 250.361 75.3129 250.404C75.9754 250.424 76.6379 250.366 77.2869 250.231C77.3386 250.231 77.3645 250.3 77.2869 250.318C76.6945 250.515 76.0898 250.673 75.4767 250.792C74.8801 250.882 74.2784 250.934 73.6751 250.947C72.3907 250.99 71.0891 250.947 69.8134 250.999C67.2274 251.05 64.6414 251.111 62.0554 251.352C61.9433 251.378 61.9175 251.223 62.0381 251.162Z" fill="#263238"/>
<path d="M56.6077 255.017C58.5629 254.244 60.5601 253.582 62.5899 253.034C63.6071 252.759 64.6329 252.552 65.6673 252.362L67.1499 252.121C67.7016 252.043 68.2619 252.034 68.805 251.948C68.8164 251.948 68.8274 251.953 68.8354 251.961C68.8435 251.969 68.8481 251.98 68.8481 251.991C68.8481 252.003 68.8435 252.014 68.8354 252.022C68.8274 252.03 68.8164 252.034 68.805 252.034C68.2964 252.129 67.7964 252.319 67.2965 252.448L65.7707 252.827C64.7536 253.086 63.7364 253.353 62.7192 253.603C60.6763 254.103 58.6506 254.62 56.6335 255.189C56.6107 255.193 56.5874 255.187 56.5688 255.173C56.5502 255.16 56.5378 255.139 56.5344 255.116C56.531 255.093 56.5368 255.07 56.5505 255.051C56.5643 255.033 56.5848 255.02 56.6077 255.017Z" fill="#263238"/>
<path d="M53.9008 214.855C53.9008 215.933 57.4781 223.648 62.2449 224.389C63.7965 224.63 65.486 216.217 65.486 216.217L65.7532 215.622L69.4771 207.33L59.3141 197.512C59.3141 197.512 53.8921 214.39 53.9008 214.855Z" fill="#D3766A"/>
<path d="M69.4686 207.33L65.7447 215.622C63.5764 214.262 61.7183 212.461 60.2912 210.336C58.8641 208.21 57.8998 205.809 57.4609 203.287C58.3919 200.356 59.1849 197.925 59.2798 197.563C59.2841 197.546 59.2841 197.529 59.2798 197.512L60.5814 198.684L69.4686 207.33Z" fill="#263238"/>
<path d="M83.5363 195.754C82.1312 211.649 72.4424 212.597 69.0202 212.296C65.9084 212.011 55.3489 210.675 55.099 194.711C54.849 178.747 62.6932 174.385 69.8478 174.644C77.0023 174.902 84.9845 179.85 83.5363 195.754Z" fill="#D3766A"/>
<path d="M81.364 192.953C81.0153 192.839 80.673 192.706 80.3382 192.556C79.9542 192.472 79.6105 192.259 79.3641 191.953C79.3031 191.844 79.2801 191.718 79.2988 191.595C79.3176 191.471 79.377 191.358 79.4676 191.272C79.6751 191.129 79.9173 191.043 80.1689 191.025C80.4205 191.007 80.6724 191.056 80.8985 191.168C81.386 191.323 81.7999 191.652 82.0622 192.091C82.1173 192.195 82.1405 192.314 82.129 192.431C82.1174 192.549 82.0717 192.66 81.9973 192.752C81.923 192.844 81.8233 192.912 81.7108 192.947C81.5982 192.983 81.4776 192.985 81.364 192.953Z" fill="#263238"/>
<path d="M70.4686 192.609C70.8479 192.609 71.2013 192.609 71.572 192.557C71.9628 192.589 72.3535 192.493 72.684 192.281C72.776 192.197 72.837 192.084 72.8573 191.96C72.8776 191.837 72.856 191.71 72.796 191.6C72.6441 191.401 72.4419 191.246 72.2101 191.15C71.9784 191.055 71.7254 191.023 71.4772 191.057C70.9638 191.051 70.4663 191.236 70.0807 191.575C69.9969 191.656 69.9387 191.761 69.9132 191.875C69.8877 191.989 69.896 192.109 69.9371 192.218C69.9782 192.328 70.0504 192.423 70.1448 192.493C70.2392 192.562 70.3517 192.603 70.4686 192.609Z" fill="#263238"/>
<path d="M72.3563 195.788C72.3563 195.744 72.2701 195.788 72.2614 195.865C72.1494 196.951 71.8391 198.167 70.8219 198.399V198.46C72.0546 198.451 72.4252 196.831 72.3563 195.788Z" fill="#263238"/>
<path d="M71.5459 194.53C69.8219 194.168 69.2272 197.616 70.8132 197.978C72.3993 198.341 72.9855 194.841 71.5459 194.53Z" fill="#263238"/>
<path d="M70.8391 194.591C70.5029 194.738 70.1495 195.031 69.7788 195.005C69.4082 194.979 69.0978 194.557 68.9168 194.143C68.9168 194.1 68.8565 194.143 68.8479 194.143C68.7186 194.807 68.8479 195.531 69.5547 195.747C70.2615 195.962 70.7529 195.453 71.0287 194.816C71.046 194.738 70.977 194.54 70.8391 194.591Z" fill="#263238"/>
<path d="M78.5886 196.057C78.5886 196.057 78.6661 196.126 78.6575 196.169C78.4248 197.229 78.3386 198.487 79.2437 199.022C79.2437 199.022 79.2437 199.091 79.2437 199.074C78.0886 198.643 78.2007 196.996 78.5886 196.057Z" fill="#263238"/>
<path d="M79.7521 195.083C81.4761 195.273 80.9934 198.738 79.3814 198.574C77.7695 198.41 78.2867 194.928 79.7521 195.083Z" fill="#263238"/>
<path d="M80.4418 195.418C80.6918 195.642 80.9159 196.013 81.2348 196.082C81.5538 196.151 81.9503 195.823 82.2434 195.496C82.2434 195.496 82.2951 195.496 82.2951 195.547C82.2175 196.211 81.8986 196.875 81.2435 196.909C80.5884 196.944 80.2953 196.306 80.2349 195.625C80.2177 195.496 80.3384 195.323 80.4418 195.418Z" fill="#263238"/>
<path d="M75.8732 201.427C75.8732 201.427 75.787 203.065 75.6491 203.815C75.6491 203.884 75.4422 203.884 75.1836 203.815C74.5153 203.811 73.8612 203.622 73.2937 203.269C72.7262 202.916 72.2675 202.413 71.9684 201.815C71.9627 201.807 71.9588 201.797 71.9568 201.787C71.9548 201.777 71.9548 201.767 71.9568 201.757C71.9588 201.747 71.9628 201.737 71.9685 201.729C71.9741 201.72 71.9814 201.713 71.9899 201.707C71.9984 201.702 72.0079 201.698 72.0179 201.696C72.028 201.694 72.0383 201.694 72.0483 201.696C72.0583 201.698 72.0678 201.702 72.0763 201.708C72.0847 201.713 72.092 201.721 72.0977 201.729C72.931 202.57 74.0131 203.12 75.1836 203.298C75.2785 203.1 75.2353 200.488 75.356 200.505C75.9323 200.667 76.4835 200.908 76.9938 201.22C77.2697 197.816 76.9938 194.393 77.33 191.006C77.33 190.978 77.3409 190.952 77.3603 190.933C77.3797 190.913 77.406 190.902 77.4334 190.902C77.4609 190.902 77.4872 190.913 77.5066 190.933C77.526 190.952 77.5369 190.978 77.5369 191.006C77.9374 194.662 77.972 198.35 77.6403 202.014C77.5886 202.47 76.1491 201.608 75.8732 201.427Z" fill="#263238"/>
<path d="M75.2093 203.539C74.69 204.102 74.0337 204.521 73.3043 204.754C72.9058 204.879 72.4788 204.879 72.0802 204.754C71.2182 204.436 71.2786 203.634 71.5027 202.962C71.6231 202.603 71.7882 202.261 71.994 201.944C72.8706 202.802 73.9961 203.36 75.2093 203.539Z" fill="#263238"/>
<path d="M73.3043 204.754C72.9058 204.878 72.4788 204.878 72.0802 204.754C71.2182 204.435 71.2786 203.633 71.5027 202.961C71.9591 203.018 72.3837 203.225 72.7097 203.55C73.0357 203.874 73.2449 204.298 73.3043 204.754Z" fill="#FF9CBD"/>
<path d="M55.7627 196.177C57.4867 196.177 62.4346 191.747 63.2104 183.325C63.2104 183.325 61.9863 190.833 61.3312 191.945C60.6761 193.057 64.081 189.437 64.7792 182.653C66.8031 184.351 69.0619 185.747 71.4856 186.799C74.6232 187.945 76.5886 188.066 76.8386 187.85C77.0886 187.635 72.4769 185.79 71.3045 184.213C71.3045 184.213 79.5453 188.833 83.4673 189.437C83.9156 189.506 84.9931 181.084 79.1574 176.644C73.3216 172.205 63.5897 174.86 60.8054 177.17C60.8054 177.17 57.7281 177.369 54.0732 181.627C50.4183 185.885 53.8749 196.143 55.7627 196.177Z" fill="#263238"/>
<path d="M68.4945 201.4C67.5425 201.216 66.6614 200.768 65.9516 200.107C65.2419 199.447 64.7322 198.6 64.4806 197.663C64.229 196.727 64.2457 195.739 64.5288 194.811C64.8119 193.884 65.35 193.055 66.0817 192.419C66.8134 191.782 67.7092 191.365 68.6669 191.213C69.6246 191.061 70.6056 191.182 71.498 191.561C72.3904 191.94 73.1582 192.563 73.7139 193.357C74.2696 194.152 74.5907 195.087 74.6406 196.055C74.679 196.735 74.5829 197.415 74.3579 198.057C74.1329 198.699 73.7834 199.291 73.3293 199.798C72.8753 200.305 72.3257 200.717 71.712 201.011C71.0983 201.305 70.4326 201.475 69.7531 201.512C69.3305 201.529 68.9074 201.491 68.4945 201.4ZM70.3565 191.918C69.9907 191.844 69.6169 191.818 69.2445 191.84C68.1034 191.902 67.0292 192.398 66.2404 193.225C65.4517 194.052 65.0079 195.148 64.9994 196.291C64.9909 197.434 65.4184 198.537 66.1947 199.375C66.971 200.214 68.0378 200.725 69.1778 200.804C70.3177 200.884 71.4452 200.526 72.3304 199.803C73.2156 199.081 73.7921 198.048 73.9423 196.915C74.0926 195.782 73.8053 194.634 73.1391 193.706C72.4729 192.777 71.4778 192.138 70.3565 191.918Z" fill="#599DD9"/>
<path d="M80.3556 202.254C78.4075 201.875 77.0369 199.539 77.2438 196.841C77.3215 195.549 77.8006 194.313 78.6144 193.307C78.9398 192.856 79.3756 192.497 79.8798 192.264C80.384 192.03 80.9398 191.93 81.4937 191.974C82.0477 192.017 82.5812 192.202 83.043 192.511C83.5049 192.82 83.8796 193.242 84.1311 193.738C84.7798 194.856 85.063 196.149 84.9414 197.435C84.7173 200.28 82.8123 202.47 80.6918 202.306C80.5786 202.297 80.4662 202.28 80.3556 202.254ZM81.7003 192.695H81.4417C80.9985 192.68 80.5583 192.772 80.1579 192.962C79.7574 193.153 79.4085 193.436 79.1402 193.789C78.4238 194.686 78.0022 195.782 77.9334 196.927C77.7437 199.392 79.0023 201.513 80.7435 201.651C82.4847 201.789 84.0622 199.884 84.2518 197.418C84.3613 196.276 84.1112 195.127 83.5364 194.134C83.3499 193.778 83.0898 193.465 82.7732 193.217C82.4567 192.969 82.0909 192.791 81.7003 192.695Z" fill="#599DD9"/>
<path d="M74.4509 196.617L74.0458 196.048C74.9078 195.453 76.7611 194.712 77.9162 196.16L77.3731 196.591C76.3646 195.289 74.5199 196.556 74.4509 196.617Z" fill="#599DD9"/>
<path d="M51.3148 196.16L50.7286 195.798C50.901 195.522 52.4526 193.108 53.9956 192.979C55.5386 192.85 64.6499 194.445 65.0378 194.513L64.9258 195.194C62.288 194.738 55.1852 193.574 54.056 193.669C52.9267 193.764 51.7286 195.496 51.3148 196.16Z" fill="#599DD9"/>
<path d="M57.5212 196.159C57.5212 196.159 54.9352 190.643 52.513 191.479C50.0908 192.315 51.401 199.875 53.8405 201.306C54.1405 201.512 54.4793 201.655 54.8363 201.726C55.1932 201.798 55.561 201.796 55.9172 201.721C56.2734 201.646 56.6107 201.499 56.9087 201.29C57.2066 201.081 57.459 200.814 57.6505 200.504L57.5212 196.159Z" fill="#D3766A"/>
<path d="M52.9528 193.634V193.703C54.6768 194.772 55.3146 196.642 55.6767 198.521C55.6027 198.319 55.486 198.136 55.3344 197.983C55.1829 197.831 55.0001 197.713 54.7987 197.637C54.5973 197.562 54.382 197.531 54.1675 197.547C53.953 197.563 53.7445 197.624 53.5562 197.728C53.5044 197.728 53.5562 197.84 53.5562 197.84C53.8976 197.786 54.2474 197.84 54.5566 197.994C54.8658 198.149 55.1188 198.397 55.2802 198.702C55.5383 199.214 55.7406 199.751 55.8836 200.306C55.9353 200.487 56.2456 200.452 56.2197 200.254C56.2197 200.254 56.2197 200.254 56.2197 200.202C56.6507 197.901 55.4181 194.332 52.9528 193.634Z" fill="#263238"/>
<path d="M41.5397 226.589C29.3338 250.664 27.8857 271.05 31.4888 274.705C41.1863 284.592 73.0285 280.188 81.683 280.024C85.1827 279.955 78.0712 251.19 74.3646 251.707C65.624 252.914 53.0733 255.664 52.6509 255.491C51.7889 255.138 52.7802 248.345 54.0818 228.071C55.1335 211.667 46.5307 216.745 41.5397 226.589Z" fill="#D3766A"/>
<path d="M86.0447 248.172C94.7336 246.957 97.1472 247.983 103.931 243.069C108.388 239.846 112.361 241.302 109.819 246.431C105.672 254.81 94.7853 258.723 90.6219 258.982L86.0447 248.172Z" fill="#D3766A"/>
<path d="M62.9777 256.535C62.9777 256.535 72.7355 251.113 81.864 248.906C88.1739 247.38 101.466 246.432 115.766 259.509C119.551 262.957 120.309 269.913 113.551 266.068C108.62 263.258 106.414 260.698 103.207 259.793C103.207 259.793 104.983 268.999 101.552 272.077C98.5499 274.767 95.3612 277.241 92.0098 279.481C91.4629 278.958 90.9476 278.402 90.4668 277.818C90.4668 277.818 87.0188 280.403 80.4417 279.766L62.9777 256.535Z" fill="#D3766A"/>
<path d="M88.1222 248.414C91.1392 249.992 97.4749 253.431 101.681 258.051C106.353 263.18 113.974 274.326 110.155 277.739C107.345 280.239 104.069 276.239 104.069 276.239C104.069 276.239 106.241 281.506 103.207 283.213C100.449 284.765 98.0955 281.489 98.0955 281.489C98.0955 281.489 98.8713 284.937 95.9233 285.894C92.3805 287.083 91.346 279.713 86.7171 277.808C85.6913 277.42 88.1222 248.414 88.1222 248.414Z" fill="#D3766A"/>
<path d="M95.4405 262.086C98.0265 264.025 102.793 269.956 104.112 276.102C104.112 276.24 104.052 276.335 104 276.214C101.709 271.187 98.8142 266.457 95.3801 262.129C95.3801 262.129 95.406 262.06 95.4405 262.086Z" fill="#263238"/>
<path d="M90.3979 266.947C92.4667 268.861 97.0956 275.188 98.2162 281.463C98.2162 281.601 98.1472 281.696 98.0955 281.567C96.0676 276.431 93.4651 271.541 90.3375 266.991C90.3375 266.991 90.372 266.93 90.3979 266.947Z" fill="#263238"/>
<path d="M72.7183 251.939C76.6109 250.239 80.6779 248.97 84.8466 248.155C86.9314 247.734 89.0379 247.429 91.1564 247.241C92.2253 247.155 93.2942 247.129 94.3113 246.991C95.3413 246.835 96.3563 246.593 97.3456 246.267C99.3322 245.613 101.207 244.66 102.905 243.44C103.755 242.761 104.703 242.215 105.716 241.819C106.747 241.375 107.877 241.212 108.991 241.345C109.599 241.419 110.153 241.729 110.534 242.207C110.873 242.715 111.028 243.323 110.974 243.931C110.891 245.036 110.583 246.113 110.069 247.094C109.044 249.01 107.632 250.692 105.922 252.034V251.525C108.584 253.255 111.149 255.131 113.603 257.145C114.843 258.156 115.997 259.269 117.051 260.473C117.568 261.096 118.013 261.775 118.378 262.498C118.772 263.232 119.01 264.039 119.077 264.869C119.097 265.309 119.017 265.748 118.844 266.153C118.651 266.569 118.318 266.905 117.904 267.101C117.099 267.408 116.21 267.408 115.404 267.101C113.915 266.508 112.498 265.748 111.181 264.834C109.853 263.972 108.595 263.05 107.25 262.171C106.603 261.731 105.94 261.309 105.267 260.895C104.614 260.478 103.906 260.153 103.164 259.93L103.328 259.662C105.041 261.783 106.6 264.024 107.991 266.369C108.686 267.54 109.311 268.752 109.862 269.998C110.415 271.243 110.834 272.543 111.112 273.877C110.81 272.551 110.365 271.262 109.784 270.032C109.215 268.8 108.567 267.605 107.845 266.455C106.415 264.149 104.822 261.948 103.078 259.869L102.75 259.481L103.242 259.611C104.016 259.837 104.755 260.167 105.44 260.593C106.129 260.998 106.802 261.455 107.465 261.852C108.784 262.714 110.051 263.619 111.413 264.438C112.705 265.318 114.093 266.047 115.551 266.61C116.237 266.869 116.994 266.869 117.68 266.61C117.979 266.441 118.221 266.187 118.375 265.88C118.528 265.573 118.586 265.227 118.542 264.886C118.32 263.371 117.654 261.955 116.628 260.817C115.592 259.647 114.458 258.566 113.241 257.585C110.801 255.592 108.248 253.741 105.595 252.042L105.241 251.81L105.578 251.534C107.202 250.242 108.546 248.631 109.526 246.801C109.999 245.901 110.292 244.917 110.388 243.905C110.397 243.439 110.255 242.982 109.982 242.603C109.704 242.244 109.295 242.008 108.845 241.948C107.843 241.844 106.832 241.995 105.905 242.388C104.94 242.758 104.036 243.273 103.224 243.914C101.476 245.171 99.5417 246.148 97.4921 246.81C96.4684 247.143 95.419 247.391 94.3544 247.551C93.2683 247.689 92.2167 247.706 91.165 247.784C89.0704 247.948 86.9671 248.189 84.8897 248.56C80.733 249.291 76.6568 250.422 72.7183 251.939Z" fill="#263238"/>
<path d="M30.4976 247.397L53.9525 243.363C53.9525 243.363 54.8145 231.442 54.3318 224.779C53.6939 215.969 50.2804 214.159 43.7292 222.779C39.3503 228.537 30.4976 247.397 30.4976 247.397Z" fill="#599DD9"/>
<path d="M39.8245 245.792L36.7816 246.309C36.8046 245.953 36.9472 245.615 37.1862 245.35C37.4252 245.085 37.7467 244.908 38.0986 244.848C38.4506 244.788 38.8124 244.849 39.1256 245.02C39.4388 245.192 39.685 245.464 39.8245 245.792ZM47.1946 231.018C46.8788 231.016 46.5696 231.108 46.3063 231.282C46.0429 231.456 45.8371 231.705 45.7151 231.996C45.5931 232.287 45.5603 232.608 45.6208 232.918C45.6814 233.228 45.8326 233.513 46.0553 233.737C46.2779 233.961 46.5621 234.113 46.8716 234.176C47.1812 234.238 47.5023 234.207 47.7942 234.086C48.0861 233.966 48.3357 233.762 48.5113 233.499C48.6869 233.237 48.7806 232.928 48.7806 232.612C48.7806 232.191 48.6138 231.787 48.3166 231.488C48.0194 231.189 47.616 231.02 47.1946 231.018Z" fill="white"/>
<path d="M32.4974 244.767C35.8679 243.948 39.2383 243.172 42.6518 242.543C44.3758 242.233 46.0797 241.945 47.7634 241.681C49.4874 241.422 51.2114 241.336 52.9354 241.052C53.0216 241.052 53.0475 241.19 52.9354 241.198C51.2114 241.397 49.4874 241.819 47.8151 242.112C46.1429 242.405 44.4103 242.69 42.7035 242.974C39.3072 243.586 35.9023 244.189 32.5147 244.879C32.4026 244.931 32.4026 244.793 32.4974 244.767Z" fill="#263238"/>
<path d="M51.0735 243.863C52.0028 243.625 52.9436 243.435 53.8922 243.294C53.9526 241.889 53.9957 240.484 54.0819 239.079C54.0819 238.38 54.1681 237.673 54.2284 236.975C54.2888 236.277 54.3405 235.32 54.4008 234.639C54.3967 234.628 54.3955 234.615 54.3973 234.603C54.399 234.591 54.4037 234.579 54.4109 234.569C54.418 234.559 54.4275 234.55 54.4385 234.545C54.4495 234.539 54.4617 234.536 54.4741 234.536C54.4865 234.536 54.4987 234.539 54.5097 234.545C54.5207 234.55 54.5301 234.559 54.5373 234.569C54.5445 234.579 54.5491 234.591 54.5509 234.603C54.5526 234.615 54.5514 234.628 54.5474 234.639C54.5474 235.501 54.5474 236.208 54.5474 236.984C54.5474 237.76 54.5474 238.363 54.5043 239.053C54.4525 240.518 54.4525 242.078 54.3146 243.535C53.2503 243.744 52.1733 243.882 51.0907 243.949C51.0907 243.949 51.0304 243.871 51.0735 243.863Z" fill="#263238"/>
<path d="M55.2628 235.906C55.1532 236.752 54.9026 237.574 54.5215 238.337C54.5717 237.913 54.6611 237.495 54.7887 237.087C54.9138 236.681 55.0724 236.286 55.2628 235.906Z" fill="#263238"/>
<path d="M144.316 284.462H82.4761V287.238H144.316V284.462Z" fill="#C7C7C7"/>
<path d="M109.095 284.462L106.983 287.229H157.703V284.462H109.095Z" fill="#A6A6A6"/>
<path d="M111.767 287.228H172.029L184.269 246.301H123.998L111.767 287.228Z" fill="#A6A6A6"/>
<path d="M113.853 287.228H174.115L186.347 246.301H126.085L113.853 287.228Z" fill="#C7C7C7"/>
<path d="M147.591 266.74C147.477 267.183 147.467 267.646 147.564 268.094C147.66 268.541 147.861 268.959 148.148 269.315C148.435 269.672 148.802 269.955 149.219 270.144C149.636 270.333 150.091 270.422 150.548 270.403C151.581 270.364 152.571 269.983 153.364 269.32C154.156 268.657 154.706 267.749 154.927 266.74C155.042 266.296 155.051 265.832 154.954 265.385C154.858 264.937 154.658 264.518 154.371 264.161C154.083 263.805 153.717 263.52 153.3 263.33C152.883 263.14 152.428 263.05 151.97 263.068C150.937 263.109 149.946 263.491 149.154 264.156C148.362 264.821 147.812 265.729 147.591 266.74Z" fill="white"/>
<path d="M132.593 194.074V231.459H137.842V240.536L146.91 231.459H196.682V194.074H132.593Z" fill="white"/>
<path d="M132.593 194.074L132.73 212.822C132.794 219.057 132.828 225.27 132.834 231.459L132.593 231.217H138.092V231.467V240.536L137.618 240.346L146.66 231.252L146.755 231.157H146.884L171.77 231.088C180.063 231.088 188.364 231.01 196.656 231.088L196.243 231.502L196.346 194.117L196.656 194.427L164.702 194.324L132.593 194.074ZM132.593 194.074L164.547 193.858L196.682 193.755H196.992V194.074L197.087 231.459V231.872H196.674C188.381 231.916 180.08 231.872 171.788 231.872L146.902 231.812L147.126 231.717L138.032 240.76L137.549 241.242V240.561V231.493L137.808 231.752H132.558H132.394V231.51C132.394 225.252 132.429 219.003 132.498 212.762L132.593 194.074Z" fill="#263238"/>
<path d="M156.03 218.753C156.246 218.967 156.394 219.24 156.455 219.538C156.516 219.836 156.487 220.145 156.373 220.427C156.259 220.709 156.064 220.951 155.813 221.122C155.562 221.293 155.265 221.387 154.961 221.39C154.545 221.394 154.143 221.236 153.841 220.951L146.945 213.994C146.876 213.994 146.85 213.925 146.824 213.848C146.804 213.83 146.78 213.815 146.755 213.805C146.72 213.743 146.693 213.676 146.678 213.606C146.659 213.597 146.644 213.584 146.632 213.567C146.62 213.551 146.612 213.532 146.609 213.512C146.609 213.46 146.609 213.382 146.557 213.365C146.505 213.348 146.505 213.262 146.505 213.244V213.072C146.505 213.02 146.505 212.994 146.505 212.926C146.505 212.857 146.505 212.822 146.505 212.805V212.632C146.505 212.581 146.557 212.555 146.557 212.529C146.557 212.503 146.557 212.408 146.609 212.339C146.66 212.27 146.609 212.339 146.609 212.288C146.609 212.236 146.686 212.115 146.738 212.072C146.79 212.029 146.738 212.02 146.781 212.02C146.816 211.953 146.867 211.894 146.928 211.848L153.823 204.9C154.119 204.619 154.511 204.462 154.918 204.462C155.326 204.462 155.718 204.619 156.013 204.9C156.158 205.043 156.274 205.213 156.353 205.401C156.432 205.589 156.472 205.791 156.472 205.995C156.472 206.199 156.432 206.401 156.353 206.589C156.274 206.777 156.158 206.947 156.013 207.09L150.238 212.926L156.03 218.753Z" fill="#599DD9"/>
<path d="M162.245 219.538L168.219 205.315C168.363 204.985 168.631 204.726 168.965 204.594C169.3 204.461 169.673 204.467 170.003 204.608C170.321 204.748 170.57 205.008 170.698 205.33C170.825 205.653 170.82 206.013 170.684 206.332L164.711 220.572C164.604 220.815 164.429 221.021 164.207 221.165C163.985 221.309 163.725 221.385 163.461 221.383C163.295 221.384 163.131 221.352 162.978 221.288C162.814 221.222 162.664 221.125 162.538 221.001C162.412 220.877 162.312 220.73 162.244 220.567C162.176 220.404 162.14 220.229 162.141 220.052C162.141 219.875 162.177 219.701 162.245 219.538Z" fill="#599DD9"/>
<path d="M182.494 213.804C182.443 213.868 182.385 213.926 182.321 213.977L175.425 220.933C175.282 221.082 175.111 221.201 174.921 221.282C174.731 221.364 174.527 221.407 174.321 221.409C174.114 221.411 173.909 221.371 173.718 221.293C173.527 221.215 173.354 221.099 173.208 220.952C173.062 220.806 172.947 220.632 172.869 220.441C172.792 220.249 172.753 220.044 172.756 219.838C172.758 219.631 172.802 219.427 172.885 219.238C172.967 219.049 173.086 218.878 173.236 218.735L179.011 212.908L173.236 207.072C173.09 206.929 172.975 206.759 172.896 206.571C172.817 206.383 172.777 206.181 172.777 205.977C172.777 205.774 172.817 205.572 172.896 205.384C172.975 205.196 173.09 205.026 173.236 204.883C173.531 204.601 173.923 204.444 174.331 204.444C174.738 204.444 175.13 204.601 175.425 204.883L182.321 211.83C182.383 211.884 182.441 211.941 182.494 212.003V212.055C182.494 212.055 182.588 212.201 182.614 212.27C182.64 212.339 182.614 212.27 182.614 212.322C182.633 212.396 182.659 212.468 182.692 212.537C182.692 212.537 182.692 212.537 182.692 212.615V212.787C182.692 212.787 182.692 212.882 182.692 212.908C182.692 212.934 182.692 213.003 182.692 213.029V213.227C182.692 213.227 182.692 213.227 182.692 213.27C182.661 213.343 182.635 213.418 182.614 213.494C182.614 213.494 182.614 213.494 182.614 213.563C182.569 213.641 182.529 213.722 182.494 213.804Z" fill="#599DD9"/>
<path d="M564.799 266.922C553.369 282.437 541.447 300.376 538.542 319.796C538.542 320.09 538.982 320.184 539.042 319.891C540.36 314.606 542.051 309.421 544.102 304.375C551.619 302.307 558.997 300.608 562.945 293.169C566.971 285.498 566.462 275.498 565.695 267.146C565.635 266.646 565.031 266.62 564.799 266.922Z" fill="#599DD9"/>
<path d="M544.214 304.193C549.386 292.668 555.946 281.1 564.325 271.618C564.385 271.558 564.471 271.618 564.419 271.713C558.928 278.462 554.765 285.815 550.688 293.263C554.472 289.418 558.627 285.97 562.213 281.902C562.282 281.815 562.394 281.902 562.325 282.014C558.765 286.324 554.877 290.927 550.257 294.082C549.007 296.375 547.757 298.676 546.481 300.978C546.792 300.805 547.119 300.65 547.438 300.495C547.445 300.5 547.451 300.506 547.455 300.514C547.459 300.521 547.461 300.529 547.461 300.538C547.461 300.547 547.459 300.555 547.455 300.562C547.451 300.57 547.445 300.576 547.438 300.581C547.085 300.762 546.74 300.943 546.369 301.098C545.774 302.193 545.171 303.279 544.559 304.365C544.43 304.667 544.111 304.443 544.214 304.193Z" fill="#263238"/>
<path d="M548.033 300.178C551.11 298.456 554.047 296.497 556.817 294.316C556.886 294.256 556.998 294.359 556.92 294.428C554.237 296.734 551.299 298.724 548.162 300.359C548.024 300.462 547.878 300.255 548.033 300.178Z" fill="#263238"/>
<path d="M537.223 316.909C537.223 317.141 537.646 317.141 537.637 316.909C537.697 310.513 537.637 304.082 537.74 297.66C539.378 294.359 542.912 292.488 545.335 289.902C547.097 287.967 548.63 285.835 549.903 283.549C552.848 278.079 554.646 272.067 555.187 265.878C555.868 259.034 553.274 236.467 550.386 237.251C548.895 237.657 544.05 248.837 542.766 252.535C540.686 258.631 539.163 264.903 538.215 271.274C535.879 286.308 536.077 301.763 537.223 316.909Z" fill="#599DD9"/>
<path d="M537.172 289.325C537.516 281.231 539.344 273.059 541.051 265.189C542.887 256.733 545.033 248.768 549.386 241.234C549.464 241.088 549.671 241.234 549.602 241.355C546.699 247.218 544.453 253.385 542.904 259.741C543.197 259.293 543.55 258.879 543.852 258.422C543.973 258.259 544.249 258.422 544.137 258.595C543.743 259.274 543.287 259.914 542.775 260.508C542.765 260.513 542.755 260.515 542.744 260.515C542.734 260.515 542.724 260.513 542.714 260.508C541.223 266.542 540.128 272.732 539.266 278.904L539.473 278.662C539.473 278.61 539.602 278.662 539.568 278.731C539.456 278.938 539.327 279.145 539.197 279.343C538.732 282.472 538.335 285.601 537.878 288.696C543.447 283.929 548.222 278.352 550.886 271.404C550.886 271.404 550.955 271.404 550.938 271.404C548.352 278.585 544.171 284.963 537.784 289.316C537.672 290.178 537.551 290.98 537.43 291.808C537.43 291.98 537.137 291.937 537.137 291.808C537.137 291.066 537.137 290.325 537.206 289.592C537.183 289.58 537.162 289.562 537.147 289.541C537.132 289.519 537.122 289.494 537.119 289.468C537.115 289.441 537.118 289.415 537.128 289.39C537.137 289.365 537.152 289.343 537.172 289.325Z" fill="#263238"/>
<path d="M539.801 277.6C544.059 271.239 548.033 265.067 551.153 258.041C551.153 257.964 551.317 258.041 551.291 258.102C548.662 265.084 544.99 272.152 540.008 277.764C539.913 277.876 539.715 277.721 539.801 277.6Z" fill="#263238"/>
<path d="M545.455 256.473C547.179 253.353 549.084 250.319 550.739 247.138C550.741 247.126 550.746 247.114 550.754 247.104C550.761 247.094 550.77 247.086 550.781 247.08C550.793 247.075 550.805 247.072 550.817 247.072C550.83 247.072 550.842 247.076 550.853 247.081C550.864 247.087 550.873 247.096 550.88 247.106C550.887 247.116 550.891 247.128 550.893 247.14C550.895 247.152 550.893 247.165 550.889 247.176C550.885 247.188 550.878 247.198 550.869 247.207C549.501 250.533 547.767 253.696 545.697 256.637C545.611 256.792 545.352 256.654 545.455 256.473Z" fill="#263238"/>
<path d="M532.887 298.41C532.807 302.649 532.307 306.871 531.396 311.012C531.465 311.469 531.525 311.926 531.594 312.391C532.9 307.817 533.655 303.103 533.844 298.349C533.883 298.283 533.903 298.207 533.903 298.13C533.903 298.052 533.883 297.977 533.844 297.91C534.024 291.537 533.551 285.162 532.431 278.885C530.448 267.128 526.121 255.853 517.923 247.043C517.856 246.994 517.779 246.959 517.697 246.942C517.615 246.924 517.531 246.924 517.449 246.942C517.367 246.96 517.291 246.996 517.224 247.046C517.157 247.096 517.101 247.16 517.061 247.233C513.76 255.637 514.915 265.671 517.725 274.067C519.26 278.607 521.45 282.899 524.224 286.807C527.026 290.755 530.638 294.1 532.887 298.41Z" fill="#599DD9"/>
<path d="M518.923 250.967C526.681 263.578 532.094 278.551 532.758 293.412C532.758 293.679 532.327 293.748 532.284 293.48C532.103 292.144 531.896 290.817 531.681 289.498C528.465 286.421 525.164 283.171 522.862 279.326C522.862 279.258 522.923 279.18 522.974 279.24C525.63 282.509 528.477 285.617 531.5 288.55C530.925 285.257 530.261 282.016 529.508 278.827L528.888 278.102C528.758 277.947 528.983 277.715 529.12 277.87L529.31 278.077C528.213 273.69 526.857 269.373 525.25 265.147C523.267 262.793 521.061 260.75 519.621 257.914C519.615 257.901 519.615 257.886 519.619 257.872C519.624 257.858 519.634 257.846 519.646 257.839C519.659 257.831 519.674 257.829 519.688 257.832C519.703 257.834 519.716 257.842 519.725 257.854C520.88 259.475 522 261.112 523.319 262.621C523.836 263.216 524.414 263.785 524.957 264.345C523.167 259.774 521.041 255.343 518.595 251.087C518.588 251.066 518.584 251.043 518.585 251.02C518.586 250.997 518.591 250.975 518.601 250.954C518.61 250.933 518.624 250.914 518.641 250.899C518.658 250.883 518.677 250.871 518.699 250.863C518.72 250.855 518.743 250.852 518.766 250.853C518.789 250.854 518.812 250.859 518.832 250.869C518.853 250.878 518.872 250.892 518.887 250.909C518.903 250.925 518.915 250.945 518.923 250.967Z" fill="#263238"/>
<path d="M520.492 266.525C523 269.904 525.862 273.128 528.198 276.619C528.267 276.714 528.121 276.818 528.035 276.74C525.035 273.93 522.501 270.085 520.277 266.62C520.264 266.592 520.263 266.559 520.275 266.53C520.286 266.501 520.308 266.478 520.337 266.465C520.365 266.452 520.398 266.452 520.427 266.463C520.456 266.474 520.479 266.497 520.492 266.525Z" fill="#263238"/>
<path d="M528.552 277.393L528.655 277.505C528.733 277.574 528.612 277.695 528.543 277.617L528.431 277.514C528.418 277.497 528.412 277.477 528.414 277.456C528.415 277.435 528.424 277.416 528.439 277.401C528.454 277.387 528.473 277.378 528.494 277.376C528.514 277.375 528.535 277.381 528.552 277.393Z" fill="#263238"/>
<path d="M506.752 275.205C507.372 281.688 510.786 289.437 514.949 294.437C516.784 296.601 519.047 298.362 521.595 299.608C524.474 301.031 527.491 302.669 530.465 303.841C531.883 307.451 532.937 311.193 533.612 315.012L533.896 314.021C531.983 297.6 521.354 283.567 507.769 274.559C507.662 274.49 507.538 274.454 507.412 274.453C507.285 274.453 507.161 274.489 507.054 274.557C506.947 274.625 506.861 274.722 506.808 274.837C506.754 274.952 506.735 275.08 506.752 275.205Z" fill="#599DD9"/>
<path d="M511.45 280.058C511.355 279.972 511.45 279.799 511.588 279.877C519.058 285.43 525.015 292.768 528.914 301.22C529.017 301.444 528.707 301.642 528.578 301.418C527.946 300.315 527.302 299.235 526.647 298.177C523.544 297.591 520.613 295.41 518.303 293.341C518.295 293.328 518.291 293.313 518.293 293.297C518.295 293.282 518.302 293.268 518.313 293.257C518.324 293.246 518.338 293.239 518.353 293.237C518.369 293.235 518.384 293.239 518.398 293.247C519.584 294.327 520.902 295.254 522.32 296.005C523.587 296.643 524.906 297.048 526.259 297.565C525.113 295.738 523.914 293.988 522.664 292.29C519.313 291.014 516.17 289.248 513.338 287.049C513.251 286.988 513.338 286.842 513.424 286.902C516.23 288.598 519.125 290.144 522.096 291.531C520.2 289.035 518.156 286.654 515.975 284.402C514.924 283.842 513.846 283.282 512.829 282.678C512.812 282.667 512.8 282.65 512.794 282.631C512.789 282.611 512.79 282.59 512.798 282.572C512.807 282.553 512.821 282.538 512.839 282.53C512.858 282.521 512.878 282.518 512.898 282.523C513.746 282.822 514.556 283.218 515.312 283.704C514.062 282.472 512.803 281.248 511.45 280.058Z" fill="#263238"/>
<path d="M511.734 285.703C511.92 285.815 512.096 285.942 512.26 286.082C512.312 286.126 512.26 286.186 512.191 286.169C512.003 286.079 511.821 285.975 511.648 285.858C511.553 285.815 511.674 285.703 511.734 285.703Z" fill="#263238"/>
<path d="M555.11 350.569H517.863L520.871 316.658L521.526 309.176H551.438L552.101 316.658L555.11 350.569Z" fill="#455A64"/>
<path d="M552.101 316.658H520.871L521.526 309.176H551.438L552.101 316.658Z" fill="#263238"/>
<path d="M553.222 303.943H519.751V311.348H553.222V303.943Z" fill="#455A64"/>
</svg>
