<svg width="94" height="94" viewBox="0 0 94 94" fill="none" xmlns="http://www.w3.org/2000/svg">
<circle cx="47" cy="47" r="47" fill="#181818"/>
<path d="M66 38.968L62.6433 42.376C58.6375 38.312 53.0958 35.8 47 35.8C40.9042 35.8 35.3625 38.312 31.3567 42.376L28 38.968C32.8608 34.04 39.5742 31 47 31C54.4258 31 61.1392 34.04 66 38.968ZM66 56.6V61.4C66 62.28 65.2875 63 64.4167 63H58.0833C57.2125 63 56.5 62.28 56.5 61.4V56.6C56.5 55.72 57.2125 55 58.0833 55V53.4C58.0833 51.64 59.5083 50.2 61.25 50.2C62.9917 50.2 64.4167 51.64 64.4167 53.4V55C65.2875 55 66 55.72 66 56.6ZM62.8333 53.4C62.8333 52.52 62.1208 51.8 61.25 51.8C60.3792 51.8 59.6667 52.52 59.6667 53.4V55H62.8333V53.4ZM34.7133 45.752L38.07 49.144C39.2417 47.9572 40.6336 47.0156 42.166 46.3732C43.6983 45.7307 45.341 45.4 47 45.4C50.4833 45.4 53.65 46.84 55.93 49.16L59.2867 45.768C56.1517 42.568 51.7975 40.6 47 40.6C42.2025 40.6 37.8483 42.568 34.7133 45.752ZM47 50.2C44.815 50.2 42.8358 51.096 41.4108 52.536L47 58.2L52.5892 52.536C51.8555 51.7941 50.9842 51.2058 50.025 50.8049C49.0659 50.4041 48.0379 50.1985 47 50.2Z" fill="#599DD9"/>
</svg>
