<svg width="52" height="52" viewBox="0 0 52 52" fill="none" xmlns="http://www.w3.org/2000/svg">
<circle cx="26" cy="26" r="26" fill="#101010"/>
<path fill-rule="evenodd" clip-rule="evenodd" d="M27.1303 15.0235C29.6774 15.1801 32.0652 16.433 33.8162 18.1557C35.8857 20.3483 37 23.0107 37 26.143C37 28.6488 36.0449 30.998 34.453 33.0339C32.8611 34.9133 30.6325 36.3228 28.0855 36.7926C25.5385 37.2625 22.9915 36.9492 20.7628 35.6963C18.5342 34.4434 16.7831 32.5641 15.828 30.2149C14.8729 27.8657 14.7137 25.2033 15.5096 22.8541C16.3056 20.3483 17.7383 18.3124 19.9669 16.9028C22.0363 15.4933 24.5833 14.8669 27.1303 15.0235ZM27.9263 35.2265C29.9957 34.7567 31.906 33.6604 33.3387 31.9376C34.6122 30.2149 35.4081 28.1789 35.2489 25.9864C35.2489 23.4806 34.2938 20.9748 32.5427 19.252C30.9509 17.6859 29.0406 16.7462 26.812 16.5896C24.7425 16.433 22.5139 16.9028 20.7628 18.1557C19.0118 19.4086 17.7383 21.1314 17.1015 23.324C16.4648 25.3599 16.4648 27.5525 17.4199 29.5885C18.375 31.6244 19.8077 33.1905 21.718 34.2868C23.6282 35.3831 25.8568 35.6963 27.9263 35.2265ZM26.016 25.2033L29.8365 21.288L30.9509 22.3843L27.1303 26.2996L30.9509 30.2149L29.8365 31.3112L26.016 27.3959L22.1955 31.3112L21.0812 30.2149L24.9017 26.2996L21.0812 22.3843L22.1955 21.288L26.016 25.2033Z" fill="#599DD9"/>
</svg>
